<ttFont>
<head>
    <!-- Most of this table will be recalculated by the compiler -->
    <tableVersion value="1.0"/>
    <fontRevision value="4.00299"/>
    <checkSumAdjustment value="0xf8c9ebe9"/>
    <magicNumber value="0x5f0f3cf5"/>
    <flags value="00000000 00000011"/>
    <unitsPerEm value="1000"/>
    <created value="Tue Mar  5 22:33:41 2019"/>
    <modified value="Tue Mar  5 14:33:43 2019"/>
    <xMin value="-543"/>
    <yMin value="-593"/>
    <xMax value="2510"/>
    <yMax value="1091"/>
    <macStyle value="00000000 00000000"/>
    <lowestRecPPEM value="7"/>
    <fontDirectionHint value="2"/>
    <indexToLocFormat value="0"/>
    <glyphDataFormat value="0"/>
  </head>
    <TTGlyph name=".notdef" xMin="0" yMin="0" xMax="500" yMax="700">
      <contour>
        <pt x="0" y="700" on="1"/>
        <pt x="500" y="700" on="1"/>
        <pt x="500" y="0" on="1"/>
        <pt x="0" y="0" on="1"/>
      </contour>
      <contour>
        <pt x="420" y="650" on="1"/>
        <pt x="80" y="650" on="1"/>
        <pt x="250" y="395" on="1"/>
      </contour>
      <contour>
        <pt x="50" y="95" on="1"/>
        <pt x="220" y="350" on="1"/>
        <pt x="50" y="605" on="1"/>
      </contour>
      <contour>
        <pt x="450" y="95" on="1"/>
        <pt x="450" y="605" on="1"/>
        <pt x="280" y="350" on="1"/>
      </contour>
      <contour>
        <pt x="420" y="50" on="1"/>
        <pt x="250" y="305" on="1"/>
        <pt x="80" y="50" on="1"/>
      </contour>
    </TTGlyph>
    <TTGlyph name="A" xMin="26" yMin="0" xMax="691" yMax="699">
      <contour>
        <pt x="497" y="133" on="1"/>
        <pt x="219" y="133" on="1"/>
        <pt x="173" y="0" on="1"/>
        <pt x="26" y="0" on="1"/>
        <pt x="277" y="699" on="1"/>
        <pt x="440" y="699" on="1"/>
        <pt x="691" y="0" on="1"/>
        <pt x="543" y="0" on="1"/>
      </contour>
      <contour>
        <pt x="459" y="245" on="1"/>
        <pt x="358" y="537" on="1"/>
        <pt x="257" y="245" on="1"/>
      </contour>
    </TTGlyph>
    <TTGlyph name="AE" xMin="9" yMin="0" xMax="879" yMax="699">
      <contour>
        <pt x="617" y="589" on="1"/>
        <pt x="617" y="409" on="1"/>
        <pt x="849" y="409" on="1"/>
        <pt x="849" y="301" on="1"/>
        <pt x="617" y="301" on="1"/>
        <pt x="617" y="111" on="1"/>
        <pt x="879" y="111" on="1"/>
        <pt x="879" y="0" on="1"/>
        <pt x="476" y="0" on="1"/>
        <pt x="476" y="131" on="1"/>
        <pt x="231" y="131" on="1"/>
        <pt x="162" y="0" on="1"/>
        <pt x="9" y="0" on="1"/>
        <pt x="381" y="699" on="1"/>
        <pt x="879" y="699" on="1"/>
        <pt x="879" y="589" on="1"/>
      </contour>
      <contour>
        <pt x="476" y="239" on="1"/>
        <pt x="476" y="597" on="1"/>
        <pt x="288" y="239" on="1"/>
      </contour>
    </TTGlyph>
    <TTGlyph name="Aacute" xMin="26" yMin="0" xMax="691" yMax="957">
      <component glyphName="A" x="0" y="0" flags="0x0"/>
      <component glyphName="acute" x="227" y="145" flags="0x4"/>
    </TTGlyph>
    <TTGlyph name="Abreve" xMin="26" yMin="0" xMax="691" yMax="918">
      <component glyphName="A" x="0" y="0" flags="0x0"/>
      <component glyphName="breve" x="189" y="145" flags="0x4"/>
    </TTGlyph>
    <TTGlyph name="Acircumflex" xMin="26" yMin="0" xMax="691" yMax="921">
      <component glyphName="A" x="0" y="0" flags="0x0"/>
      <component glyphName="circumflex" x="200" y="145" flags="0x4"/>
    </TTGlyph>
    <TTGlyph name="Adieresis" xMin="26" yMin="0" xMax="691" yMax="898">
      <component glyphName="A" x="0" y="0" flags="0x0"/>
      <component glyphName="dieresis" x="189" y="145" flags="0x4"/>
    </TTGlyph>
    <TTGlyph name="Agrave" xMin="26" yMin="0" xMax="691" yMax="957">
      <component glyphName="A" x="0" y="0" flags="0x0"/>
      <component glyphName="grave" x="227" y="145" flags="0x4"/>
    </TTGlyph>
    <TTGlyph name="Amacron" xMin="26" yMin="0" xMax="691" yMax="877">
      <component glyphName="A" x="0" y="0" flags="0x0"/>
      <component glyphName="macron" x="157" y="145" flags="0x4"/>
    </TTGlyph>
    <TTGlyph name="Aogonek" xMin="26" yMin="-214" xMax="702" yMax="699">
      <contour>
        <pt x="665" y="-130" on="0"/>
        <pt x="702" y="-115" on="1"/>
        <pt x="702" y="-199" on="1"/>
        <pt x="660" y="-214" on="0"/>
        <pt x="613" y="-214" on="1"/>
        <pt x="554" y="-214" on="0"/>
        <pt x="473" y="-158" on="0"/>
        <pt x="473" y="-102" on="1"/>
        <pt x="473" y="-71" on="0"/>
        <pt x="504" y="-16" on="0"/>
        <pt x="540" y="10" on="1"/>
        <pt x="497" y="133" on="1"/>
        <pt x="219" y="133" on="1"/>
        <pt x="173" y="0" on="1"/>
        <pt x="26" y="0" on="1"/>
        <pt x="277" y="699" on="1"/>
        <pt x="440" y="699" on="1"/>
        <pt x="691" y="0" on="1"/>
        <pt x="643" y="-24" on="1"/>
        <pt x="609" y="-40" on="0"/>
        <pt x="582" y="-71" on="0"/>
        <pt x="582" y="-89" on="1"/>
        <pt x="582" y="-108" on="0"/>
        <pt x="609" y="-130" on="0"/>
        <pt x="632" y="-130" on="1"/>
      </contour>
      <contour>
        <pt x="459" y="245" on="1"/>
        <pt x="358" y="537" on="1"/>
        <pt x="257" y="245" on="1"/>
      </contour>
    </TTGlyph>
    <TTGlyph name="Aring" xMin="26" yMin="0" xMax="691" yMax="977">
      <component glyphName="A" x="0" y="0" flags="0x0"/>
      <component glyphName="ring" x="234" y="145" flags="0x4"/>
    </TTGlyph>
    <TTGlyph name="Atilde" xMin="26" yMin="0" xMax="691" yMax="883">
      <component glyphName="A" x="0" y="0" flags="0x0"/>
      <component glyphName="tilde" x="170" y="145" flags="0x4"/>
    </TTGlyph>
    <TTGlyph name="B" xMin="69" yMin="0" xMax="600" yMax="698">
      <contour>
        <pt x="524" y="347" on="0"/>
        <pt x="600" y="251" on="0"/>
        <pt x="600" y="189" on="1"/>
        <pt x="600" y="133" on="0"/>
        <pt x="545" y="48" on="0"/>
        <pt x="441" y="0" on="0"/>
        <pt x="370" y="0" on="1"/>
        <pt x="69" y="0" on="1"/>
        <pt x="69" y="698" on="1"/>
        <pt x="357" y="698" on="1"/>
        <pt x="428" y="698" on="0"/>
        <pt x="531" y="652" on="0"/>
        <pt x="584" y="570" on="0"/>
        <pt x="584" y="518" on="1"/>
        <pt x="584" y="457" on="0"/>
        <pt x="519" y="375" on="0"/>
        <pt x="465" y="358" on="1"/>
      </contour>
      <contour>
        <pt x="209" y="410" on="1"/>
        <pt x="337" y="410" on="1"/>
        <pt x="387" y="410" on="0"/>
        <pt x="441" y="455" on="0"/>
        <pt x="441" y="497" on="1"/>
        <pt x="441" y="539" on="0"/>
        <pt x="387" y="585" on="0"/>
        <pt x="337" y="585" on="1"/>
        <pt x="209" y="585" on="1"/>
      </contour>
      <contour>
        <pt x="401" y="114" on="0"/>
        <pt x="458" y="162" on="0"/>
        <pt x="458" y="206" on="1"/>
        <pt x="458" y="251" on="0"/>
        <pt x="398" y="302" on="0"/>
        <pt x="347" y="302" on="1"/>
        <pt x="209" y="302" on="1"/>
        <pt x="209" y="114" on="1"/>
        <pt x="350" y="114" on="1"/>
      </contour>
    </TTGlyph>
    <TTGlyph name="C" xMin="35" yMin="-6" xMax="717" yMax="707">
      <contour>
        <pt x="35" y="453" on="0"/>
        <pt x="128" y="616" on="0"/>
        <pt x="289" y="707" on="0"/>
        <pt x="389" y="707" on="1"/>
        <pt x="506" y="707" on="0"/>
        <pt x="682" y="587" on="0"/>
        <pt x="717" y="481" on="1"/>
        <pt x="556" y="481" on="1"/>
        <pt x="532" y="531" on="0"/>
        <pt x="445" y="581" on="0"/>
        <pt x="388" y="581" on="1"/>
        <pt x="327" y="581" on="0"/>
        <pt x="232" y="524" on="0"/>
        <pt x="179" y="420" on="0"/>
        <pt x="179" y="350" on="1"/>
        <pt x="179" y="281" on="0"/>
        <pt x="232" y="176" on="0"/>
        <pt x="327" y="119" on="0"/>
        <pt x="388" y="119" on="1"/>
        <pt x="445" y="119" on="0"/>
        <pt x="532" y="170" on="0"/>
        <pt x="556" y="220" on="1"/>
        <pt x="717" y="220" on="1"/>
        <pt x="682" y="113" on="0"/>
        <pt x="507" y="-6" on="0"/>
        <pt x="389" y="-6" on="1"/>
        <pt x="289" y="-6" on="0"/>
        <pt x="128" y="85" on="0"/>
        <pt x="35" y="247" on="0"/>
        <pt x="35" y="350" on="1"/>
      </contour>
    </TTGlyph>
    <TTGlyph name="Cacute" xMin="35" yMin="-6" xMax="717" yMax="964">
      <component glyphName="C" x="0" y="0" flags="0x0"/>
      <component glyphName="acute" x="257" y="152" flags="0x4"/>
    </TTGlyph>
    <TTGlyph name="Ccaron" xMin="35" yMin="-6" xMax="717" yMax="928">
      <component glyphName="C" x="0" y="0" flags="0x0"/>
      <component glyphName="caron" x="230" y="152" flags="0x4"/>
    </TTGlyph>
    <TTGlyph name="Ccedilla" xMin="35" yMin="-266" xMax="717" yMax="707">
      <contour>
        <pt x="445" y="119" on="0"/>
        <pt x="532" y="170" on="0"/>
        <pt x="556" y="220" on="1"/>
        <pt x="717" y="220" on="1"/>
        <pt x="686" y="124" on="0"/>
        <pt x="535" y="7" on="0"/>
        <pt x="433" y="-4" on="1"/>
        <pt x="433" y="-45" on="1"/>
        <pt x="488" y="-45" on="0"/>
        <pt x="563" y="-101" on="0"/>
        <pt x="563" y="-154" on="1"/>
        <pt x="563" y="-208" on="0"/>
        <pt x="486" y="-266" on="0"/>
        <pt x="430" y="-266" on="1"/>
        <pt x="288" y="-266" on="1"/>
        <pt x="288" y="-184" on="1"/>
        <pt x="407" y="-184" on="1"/>
        <pt x="431" y="-184" on="0"/>
        <pt x="456" y="-170" on="0"/>
        <pt x="456" y="-152" on="1"/>
        <pt x="456" y="-134" on="0"/>
        <pt x="431" y="-121" on="0"/>
        <pt x="407" y="-121" on="1"/>
        <pt x="345" y="-121" on="1"/>
        <pt x="345" y="-4" on="1"/>
        <pt x="256" y="6" on="0"/>
        <pt x="115" y="101" on="0"/>
        <pt x="35" y="255" on="0"/>
        <pt x="35" y="350" on="1"/>
        <pt x="35" y="453" on="0"/>
        <pt x="128" y="616" on="0"/>
        <pt x="289" y="707" on="0"/>
        <pt x="389" y="707" on="1"/>
        <pt x="506" y="707" on="0"/>
        <pt x="682" y="587" on="0"/>
        <pt x="717" y="481" on="1"/>
        <pt x="556" y="481" on="1"/>
        <pt x="532" y="531" on="0"/>
        <pt x="445" y="581" on="0"/>
        <pt x="388" y="581" on="1"/>
        <pt x="327" y="581" on="0"/>
        <pt x="232" y="524" on="0"/>
        <pt x="179" y="420" on="0"/>
        <pt x="179" y="350" on="1"/>
        <pt x="179" y="281" on="0"/>
        <pt x="232" y="176" on="0"/>
        <pt x="327" y="119" on="0"/>
        <pt x="388" y="119" on="1"/>
      </contour>
    </TTGlyph>
    <TTGlyph name="Cdotaccent" xMin="35" yMin="-6" xMax="717" yMax="905">
      <component glyphName="C" x="0" y="0" flags="0x0"/>
      <component glyphName="dotaccent" x="312" y="152" flags="0x4"/>
    </TTGlyph>
    <TTGlyph name="D" xMin="69" yMin="0" xMax="681" yMax="698">
      <contour>
        <pt x="423" y="698" on="0"/>
        <pt x="590" y="612" on="0"/>
        <pt x="681" y="453" on="0"/>
        <pt x="681" y="348" on="1"/>
        <pt x="681" y="243" on="0"/>
        <pt x="590" y="86" on="0"/>
        <pt x="423" y="0" on="0"/>
        <pt x="313" y="0" on="1"/>
        <pt x="69" y="0" on="1"/>
        <pt x="69" y="698" on="1"/>
        <pt x="313" y="698" on="1"/>
      </contour>
      <contour>
        <pt x="418" y="119" on="0"/>
        <pt x="538" y="239" on="0"/>
        <pt x="538" y="348" on="1"/>
        <pt x="538" y="457" on="0"/>
        <pt x="418" y="580" on="0"/>
        <pt x="308" y="580" on="1"/>
        <pt x="209" y="580" on="1"/>
        <pt x="209" y="119" on="1"/>
        <pt x="308" y="119" on="1"/>
      </contour>
    </TTGlyph>
    <TTGlyph name="Dcaron" xMin="69" yMin="0" xMax="681" yMax="921">
      <component glyphName="D" x="0" y="0" flags="0x0"/>
      <component glyphName="caron" x="197" y="145" flags="0x4"/>
    </TTGlyph>
    <TTGlyph name="Dcroat" xMin="7" yMin="0" xMax="690" yMax="698">
      <component glyphName="Eth" x="0" y="0" flags="0x0"/>
    </TTGlyph>
    <TTGlyph name="E" xMin="69" yMin="0" xMax="474" yMax="699">
      <contour>
        <pt x="209" y="585" on="1"/>
        <pt x="209" y="410" on="1"/>
        <pt x="444" y="410" on="1"/>
        <pt x="444" y="299" on="1"/>
        <pt x="209" y="299" on="1"/>
        <pt x="209" y="114" on="1"/>
        <pt x="474" y="114" on="1"/>
        <pt x="474" y="0" on="1"/>
        <pt x="69" y="0" on="1"/>
        <pt x="69" y="699" on="1"/>
        <pt x="474" y="699" on="1"/>
        <pt x="474" y="585" on="1"/>
      </contour>
    </TTGlyph>
    <TTGlyph name="Eacute" xMin="69" yMin="0" xMax="474" yMax="957">
      <component glyphName="E" x="0" y="0" flags="0x0"/>
      <component glyphName="acute" x="136" y="145" flags="0x4"/>
    </TTGlyph>
    <TTGlyph name="Ebreve" xMin="69" yMin="0" xMax="474" yMax="918">
      <component glyphName="E" x="0" y="0" flags="0x0"/>
      <component glyphName="breve" x="98" y="145" flags="0x4"/>
    </TTGlyph>
    <TTGlyph name="Ecaron" xMin="69" yMin="0" xMax="474" yMax="921">
      <component glyphName="E" x="0" y="0" flags="0x0"/>
      <component glyphName="caron" x="108" y="145" flags="0x4"/>
    </TTGlyph>
    <TTGlyph name="Ecircumflex" xMin="69" yMin="0" xMax="474" yMax="921">
      <component glyphName="E" x="0" y="0" flags="0x0"/>
      <component glyphName="circumflex" x="108" y="145" flags="0x4"/>
    </TTGlyph>
    <TTGlyph name="Edieresis" xMin="69" yMin="0" xMax="474" yMax="898">
      <component glyphName="E" x="0" y="0" flags="0x0"/>
      <component glyphName="dieresis" x="98" y="145" flags="0x4"/>
    </TTGlyph>
    <TTGlyph name="Edotaccent" xMin="69" yMin="0" xMax="474" yMax="898">
      <component glyphName="E" x="0" y="0" flags="0x0"/>
      <component glyphName="dotaccent" x="190" y="145" flags="0x4"/>
    </TTGlyph>
    <TTGlyph name="Egrave" xMin="69" yMin="0" xMax="474" yMax="957">
      <component glyphName="E" x="0" y="0" flags="0x0"/>
      <component glyphName="grave" x="136" y="145" flags="0x4"/>
    </TTGlyph>
    <TTGlyph name="Emacron" xMin="69" yMin="0" xMax="474" yMax="877">
      <component glyphName="E" x="0" y="0" flags="0x0"/>
      <component glyphName="macron" x="66" y="145" flags="0x4"/>
    </TTGlyph>
    <TTGlyph name="Eogonek" xMin="69" yMin="-214" xMax="486" yMax="699">
      <contour>
        <pt x="447" y="-130" on="0"/>
        <pt x="486" y="-115" on="1"/>
        <pt x="486" y="-199" on="1"/>
        <pt x="443" y="-214" on="0"/>
        <pt x="397" y="-214" on="1"/>
        <pt x="338" y="-214" on="0"/>
        <pt x="257" y="-159" on="0"/>
        <pt x="257" y="-103" on="1"/>
        <pt x="257" y="-45" on="0"/>
        <pt x="314" y="0" on="1"/>
        <pt x="69" y="0" on="1"/>
        <pt x="69" y="699" on="1"/>
        <pt x="474" y="699" on="1"/>
        <pt x="474" y="585" on="1"/>
        <pt x="209" y="585" on="1"/>
        <pt x="209" y="410" on="1"/>
        <pt x="444" y="410" on="1"/>
        <pt x="444" y="299" on="1"/>
        <pt x="209" y="299" on="1"/>
        <pt x="209" y="114" on="1"/>
        <pt x="474" y="114" on="1"/>
        <pt x="474" y="0" on="1"/>
        <pt x="427" y="-24" on="1"/>
        <pt x="393" y="-41" on="0"/>
        <pt x="365" y="-72" on="0"/>
        <pt x="365" y="-90" on="1"/>
        <pt x="365" y="-108" on="0"/>
        <pt x="392" y="-130" on="0"/>
        <pt x="415" y="-130" on="1"/>
      </contour>
    </TTGlyph>
    <TTGlyph name="Eth" xMin="7" yMin="0" xMax="690" yMax="698">
      <contour>
        <pt x="432" y="698" on="0"/>
        <pt x="599" y="612" on="0"/>
        <pt x="690" y="453" on="0"/>
        <pt x="690" y="348" on="1"/>
        <pt x="690" y="243" on="0"/>
        <pt x="599" y="86" on="0"/>
        <pt x="432" y="0" on="0"/>
        <pt x="322" y="0" on="1"/>
        <pt x="77" y="0" on="1"/>
        <pt x="77" y="287" on="1"/>
        <pt x="7" y="287" on="1"/>
        <pt x="7" y="409" on="1"/>
        <pt x="77" y="409" on="1"/>
        <pt x="77" y="698" on="1"/>
        <pt x="322" y="698" on="1"/>
      </contour>
      <contour>
        <pt x="426" y="114" on="0"/>
        <pt x="546" y="238" on="0"/>
        <pt x="546" y="348" on="1"/>
        <pt x="546" y="458" on="0"/>
        <pt x="426" y="581" on="0"/>
        <pt x="317" y="581" on="1"/>
        <pt x="218" y="581" on="1"/>
        <pt x="218" y="409" on="1"/>
        <pt x="385" y="409" on="1"/>
        <pt x="385" y="287" on="1"/>
        <pt x="218" y="287" on="1"/>
        <pt x="218" y="114" on="1"/>
        <pt x="317" y="114" on="1"/>
      </contour>
    </TTGlyph>
    <TTGlyph name="Euro" xMin="23" yMin="-6" xMax="771" yMax="707">
      <contour>
        <pt x="500" y="122" on="0"/>
        <pt x="586" y="172" on="0"/>
        <pt x="611" y="220" on="1"/>
        <pt x="771" y="220" on="1"/>
        <pt x="736" y="113" on="0"/>
        <pt x="561" y="-6" on="0"/>
        <pt x="444" y="-6" on="1"/>
        <pt x="324" y="-6" on="0"/>
        <pt x="143" y="123" on="0"/>
        <pt x="108" y="231" on="1"/>
        <pt x="23" y="231" on="1"/>
        <pt x="23" y="314" on="1"/>
        <pt x="92" y="314" on="1"/>
        <pt x="90" y="338" on="0"/>
        <pt x="90" y="350" on="1"/>
        <pt x="90" y="364" on="0"/>
        <pt x="92" y="388" on="1"/>
        <pt x="23" y="388" on="1"/>
        <pt x="23" y="471" on="1"/>
        <pt x="109" y="471" on="1"/>
        <pt x="144" y="579" on="0"/>
        <pt x="325" y="707" on="0"/>
        <pt x="444" y="707" on="1"/>
        <pt x="561" y="707" on="0"/>
        <pt x="736" y="587" on="0"/>
        <pt x="771" y="481" on="1"/>
        <pt x="611" y="481" on="1"/>
        <pt x="586" y="529" on="0"/>
        <pt x="500" y="578" on="0"/>
        <pt x="443" y="578" on="1"/>
        <pt x="382" y="578" on="0"/>
        <pt x="287" y="522" on="0"/>
        <pt x="261" y="471" on="1"/>
        <pt x="453" y="471" on="1"/>
        <pt x="453" y="388" on="1"/>
        <pt x="236" y="388" on="1"/>
        <pt x="234" y="364" on="0"/>
        <pt x="234" y="350" on="1"/>
        <pt x="234" y="338" on="0"/>
        <pt x="236" y="314" on="1"/>
        <pt x="453" y="314" on="1"/>
        <pt x="453" y="231" on="1"/>
        <pt x="260" y="231" on="1"/>
        <pt x="286" y="180" on="0"/>
        <pt x="382" y="122" on="0"/>
        <pt x="443" y="122" on="1"/>
      </contour>
    </TTGlyph>
    <TTGlyph name="F" xMin="69" yMin="0" xMax="500" yMax="698">
      <contour>
        <pt x="500" y="698" on="1"/>
        <pt x="500" y="585" on="1"/>
        <pt x="209" y="585" on="1"/>
        <pt x="209" y="406" on="1"/>
        <pt x="432" y="406" on="1"/>
        <pt x="432" y="295" on="1"/>
        <pt x="209" y="295" on="1"/>
        <pt x="209" y="0" on="1"/>
        <pt x="69" y="0" on="1"/>
        <pt x="69" y="698" on="1"/>
      </contour>
    </TTGlyph>
    <TTGlyph name="G" xMin="35" yMin="-6" xMax="733" yMax="707">
      <contour>
        <pt x="555" y="488" on="1"/>
        <pt x="531" y="532" on="0"/>
        <pt x="447" y="578" on="0"/>
        <pt x="391" y="578" on="1"/>
        <pt x="329" y="578" on="0"/>
        <pt x="233" y="522" on="0"/>
        <pt x="179" y="418" on="0"/>
        <pt x="179" y="350" on="1"/>
        <pt x="179" y="280" on="0"/>
        <pt x="234" y="176" on="0"/>
        <pt x="332" y="120" on="0"/>
        <pt x="397" y="120" on="1"/>
        <pt x="477" y="120" on="0"/>
        <pt x="579" y="205" on="0"/>
        <pt x="595" y="281" on="1"/>
        <pt x="355" y="281" on="1"/>
        <pt x="355" y="388" on="1"/>
        <pt x="733" y="388" on="1"/>
        <pt x="733" y="266" on="1"/>
        <pt x="719" y="193" on="0"/>
        <pt x="627" y="69" on="0"/>
        <pt x="482" y="-6" on="0"/>
        <pt x="392" y="-6" on="1"/>
        <pt x="291" y="-6" on="0"/>
        <pt x="128" y="85" on="0"/>
        <pt x="35" y="247" on="0"/>
        <pt x="35" y="350" on="1"/>
        <pt x="35" y="453" on="0"/>
        <pt x="128" y="616" on="0"/>
        <pt x="291" y="707" on="0"/>
        <pt x="391" y="707" on="1"/>
        <pt x="509" y="707" on="0"/>
        <pt x="683" y="592" on="0"/>
        <pt x="716" y="488" on="1"/>
      </contour>
    </TTGlyph>
    <TTGlyph name="Gbreve" xMin="35" yMin="-6" xMax="733" yMax="918">
      <component glyphName="G" x="0" y="0" flags="0x0"/>
      <component glyphName="breve" x="214" y="145" flags="0x4"/>
    </TTGlyph>
    <TTGlyph name="Gdotaccent" xMin="35" yMin="-6" xMax="733" yMax="898">
      <component glyphName="G" x="0" y="0" flags="0x0"/>
      <component glyphName="dotaccent" x="307" y="145" flags="0x4"/>
    </TTGlyph>
    <TTGlyph name="H" xMin="69" yMin="0" xMax="648" yMax="698">
      <contour>
        <pt x="648" y="698" on="1"/>
        <pt x="648" y="0" on="1"/>
        <pt x="508" y="0" on="1"/>
        <pt x="508" y="297" on="1"/>
        <pt x="209" y="297" on="1"/>
        <pt x="209" y="0" on="1"/>
        <pt x="69" y="0" on="1"/>
        <pt x="69" y="698" on="1"/>
        <pt x="209" y="698" on="1"/>
        <pt x="209" y="411" on="1"/>
        <pt x="508" y="411" on="1"/>
        <pt x="508" y="698" on="1"/>
      </contour>
    </TTGlyph>
    <TTGlyph name="I" xMin="69" yMin="0" xMax="209" yMax="698">
      <contour>
        <pt x="209" y="698" on="1"/>
        <pt x="209" y="0" on="1"/>
        <pt x="69" y="0" on="1"/>
        <pt x="69" y="698" on="1"/>
      </contour>
    </TTGlyph>
    <TTGlyph name="Iacute" xMin="18" yMin="0" xMax="248" yMax="957">
      <component glyphName="I" x="0" y="0" flags="0x0"/>
      <component glyphName="acute" x="8" y="145" flags="0x4"/>
    </TTGlyph>
    <TTGlyph name="Icircumflex" xMin="-9" yMin="0" xMax="288" yMax="921">
      <component glyphName="I" x="0" y="0" flags="0x0"/>
      <component glyphName="circumflex" x="-19" y="145" flags="0x4"/>
    </TTGlyph>
    <TTGlyph name="Idieresis" xMin="-20" yMin="0" xMax="298" yMax="898">
      <component glyphName="I" x="0" y="0" flags="0x0"/>
      <component glyphName="dieresis" x="-30" y="145" flags="0x4"/>
    </TTGlyph>
    <TTGlyph name="Idotaccent" xMin="69" yMin="0" xMax="209" yMax="898">
      <component glyphName="I" x="0" y="0" flags="0x0"/>
      <component glyphName="dotaccent" x="63" y="145" flags="0x4"/>
    </TTGlyph>
    <TTGlyph name="Igrave" xMin="18" yMin="0" xMax="248" yMax="957">
      <component glyphName="I" x="0" y="0" flags="0x0"/>
      <component glyphName="grave" x="8" y="145" flags="0x4"/>
    </TTGlyph>
    <TTGlyph name="Imacron" xMin="-51" yMin="0" xMax="331" yMax="877">
      <component glyphName="I" x="0" y="0" flags="0x0"/>
      <component glyphName="macron" x="-61" y="145" flags="0x4"/>
    </TTGlyph>
    <TTGlyph name="Iogonek" xMin="-8" yMin="-213" xMax="221" yMax="698">
      <contour>
        <pt x="182" y="-129" on="0"/>
        <pt x="221" y="-114" on="1"/>
        <pt x="221" y="-198" on="1"/>
        <pt x="178" y="-213" on="0"/>
        <pt x="132" y="-213" on="1"/>
        <pt x="73" y="-213" on="0"/>
        <pt x="-8" y="-158" on="0"/>
        <pt x="-8" y="-102" on="1"/>
        <pt x="-8" y="-69" on="0"/>
        <pt x="28" y="-12" on="0"/>
        <pt x="69" y="15" on="1"/>
        <pt x="69" y="698" on="1"/>
        <pt x="209" y="698" on="1"/>
        <pt x="209" y="0" on="1"/>
        <pt x="207" y="0" on="1"/>
        <pt x="162" y="-23" on="1"/>
        <pt x="128" y="-40" on="0"/>
        <pt x="100" y="-71" on="0"/>
        <pt x="100" y="-89" on="1"/>
        <pt x="100" y="-107" on="0"/>
        <pt x="127" y="-129" on="0"/>
        <pt x="150" y="-129" on="1"/>
      </contour>
    </TTGlyph>
    <TTGlyph name="Itilde" xMin="-41" yMin="0" xMax="324" yMax="883">
      <component glyphName="I" x="0" y="0" flags="0x0"/>
      <component glyphName="tilde" x="-49" y="145" flags="0x4"/>
    </TTGlyph>
    <TTGlyph name="J" xMin="36" yMin="-7" xMax="476" yMax="698">
      <contour>
        <pt x="476" y="698" on="1"/>
        <pt x="476" y="208" on="1"/>
        <pt x="476" y="106" on="0"/>
        <pt x="358" y="-7" on="0"/>
        <pt x="259" y="-7" on="1"/>
        <pt x="159" y="-7" on="0"/>
        <pt x="36" y="109" on="0"/>
        <pt x="36" y="213" on="1"/>
        <pt x="176" y="213" on="1"/>
        <pt x="177" y="168" on="0"/>
        <pt x="218" y="118" on="0"/>
        <pt x="257" y="118" on="1"/>
        <pt x="295" y="118" on="0"/>
        <pt x="335" y="166" on="0"/>
        <pt x="335" y="208" on="1"/>
        <pt x="335" y="698" on="1"/>
      </contour>
    </TTGlyph>
    <TTGlyph name="K" xMin="69" yMin="0" xMax="640" yMax="698">
      <contour>
        <pt x="463" y="0" on="1"/>
        <pt x="209" y="311" on="1"/>
        <pt x="209" y="0" on="1"/>
        <pt x="69" y="0" on="1"/>
        <pt x="69" y="698" on="1"/>
        <pt x="209" y="698" on="1"/>
        <pt x="209" y="385" on="1"/>
        <pt x="463" y="698" on="1"/>
        <pt x="632" y="698" on="1"/>
        <pt x="344" y="352" on="1"/>
        <pt x="640" y="0" on="1"/>
      </contour>
    </TTGlyph>
    <TTGlyph name="L" xMin="69" yMin="0" xMax="439" yMax="698">
      <contour>
        <pt x="209" y="111" on="1"/>
        <pt x="439" y="111" on="1"/>
        <pt x="439" y="0" on="1"/>
        <pt x="69" y="0" on="1"/>
        <pt x="69" y="698" on="1"/>
        <pt x="209" y="698" on="1"/>
      </contour>
    </TTGlyph>
    <TTGlyph name="Lacute" xMin="69" yMin="0" xMax="439" yMax="957">
      <component glyphName="L" x="0" y="0" flags="0x0"/>
      <component glyphName="acute" x="93" y="145" flags="0x4"/>
    </TTGlyph>
    <TTGlyph name="Lcaron" xMin="69" yMin="0" xMax="447" yMax="698">
      <contour>
        <pt x="209" y="111" on="1"/>
        <pt x="439" y="111" on="1"/>
        <pt x="439" y="0" on="1"/>
        <pt x="69" y="0" on="1"/>
        <pt x="69" y="698" on="1"/>
        <pt x="209" y="698" on="1"/>
      </contour>
      <contour>
        <pt x="447" y="646" on="0"/>
        <pt x="447" y="591" on="1"/>
        <pt x="447" y="525" on="0"/>
        <pt x="384" y="453" on="0"/>
        <pt x="323" y="453" on="1"/>
        <pt x="323" y="510" on="1"/>
        <pt x="372" y="510" on="0"/>
        <pt x="372" y="571" on="1"/>
        <pt x="372" y="590" on="1"/>
        <pt x="315" y="590" on="1"/>
        <pt x="315" y="698" on="1"/>
        <pt x="431" y="698" on="1"/>
      </contour>
    </TTGlyph>
    <TTGlyph name="Ldot" xMin="69" yMin="0" xMax="439" yMax="698">
      <contour>
        <pt x="69" y="698" on="1"/>
        <pt x="209" y="698" on="1"/>
        <pt x="209" y="111" on="1"/>
        <pt x="439" y="111" on="1"/>
        <pt x="439" y="0" on="1"/>
        <pt x="69" y="0" on="1"/>
      </contour>
      <contour>
        <pt x="339" y="318" on="0"/>
        <pt x="301" y="356" on="0"/>
        <pt x="301" y="384" on="1"/>
        <pt x="301" y="412" on="0"/>
        <pt x="339" y="451" on="0"/>
        <pt x="367" y="451" on="1"/>
        <pt x="395" y="451" on="0"/>
        <pt x="434" y="412" on="0"/>
        <pt x="434" y="384" on="1"/>
        <pt x="434" y="356" on="0"/>
        <pt x="395" y="318" on="0"/>
        <pt x="367" y="318" on="1"/>
      </contour>
    </TTGlyph>
    <TTGlyph name="Lslash" xMin="9" yMin="0" xMax="451" yMax="698">
      <contour>
        <pt x="451" y="107" on="1"/>
        <pt x="451" y="0" on="1"/>
        <pt x="81" y="0" on="1"/>
        <pt x="81" y="283" on="1"/>
        <pt x="9" y="261" on="1"/>
        <pt x="9" y="374" on="1"/>
        <pt x="81" y="396" on="1"/>
        <pt x="81" y="698" on="1"/>
        <pt x="222" y="698" on="1"/>
        <pt x="222" y="441" on="1"/>
        <pt x="310" y="468" on="1"/>
        <pt x="310" y="354" on="1"/>
        <pt x="222" y="327" on="1"/>
        <pt x="222" y="107" on="1"/>
      </contour>
    </TTGlyph>
    <TTGlyph name="M" xMin="69" yMin="0" xMax="830" yMax="698">
      <contour>
        <pt x="830" y="698" on="1"/>
        <pt x="830" y="0" on="1"/>
        <pt x="690" y="0" on="1"/>
        <pt x="690" y="454" on="1"/>
        <pt x="503" y="0" on="1"/>
        <pt x="397" y="0" on="1"/>
        <pt x="209" y="454" on="1"/>
        <pt x="209" y="0" on="1"/>
        <pt x="69" y="0" on="1"/>
        <pt x="69" y="698" on="1"/>
        <pt x="228" y="698" on="1"/>
        <pt x="450" y="179" on="1"/>
        <pt x="672" y="698" on="1"/>
      </contour>
    </TTGlyph>
    <TTGlyph name="N" xMin="69" yMin="0" xMax="666" yMax="699">
      <contour>
        <pt x="666" y="0" on="1"/>
        <pt x="526" y="0" on="1"/>
        <pt x="209" y="479" on="1"/>
        <pt x="209" y="0" on="1"/>
        <pt x="69" y="0" on="1"/>
        <pt x="69" y="699" on="1"/>
        <pt x="209" y="699" on="1"/>
        <pt x="526" y="219" on="1"/>
        <pt x="526" y="699" on="1"/>
        <pt x="666" y="699" on="1"/>
      </contour>
    </TTGlyph>
    <TTGlyph name="Nacute" xMin="69" yMin="0" xMax="666" yMax="957">
      <component glyphName="N" x="0" y="0" flags="0x0"/>
      <component glyphName="acute" x="237" y="145" flags="0x4"/>
    </TTGlyph>
    <TTGlyph name="Ncaron" xMin="69" yMin="0" xMax="666" yMax="921">
      <component glyphName="N" x="0" y="0" flags="0x0"/>
      <component glyphName="caron" x="209" y="145" flags="0x4"/>
    </TTGlyph>
    <TTGlyph name="Ntilde" xMin="69" yMin="0" xMax="666" yMax="883">
      <component glyphName="N" x="0" y="0" flags="0x0"/>
      <component glyphName="tilde" x="180" y="145" flags="0x4"/>
    </TTGlyph>
    <TTGlyph name="O" xMin="35" yMin="-7" xMax="750" yMax="708">
      <contour>
        <pt x="295" y="-7" on="0"/>
        <pt x="131" y="85" on="0"/>
        <pt x="35" y="248" on="0"/>
        <pt x="35" y="351" on="1"/>
        <pt x="35" y="453" on="0"/>
        <pt x="131" y="616" on="0"/>
        <pt x="295" y="708" on="0"/>
        <pt x="393" y="708" on="1"/>
        <pt x="492" y="708" on="0"/>
        <pt x="655" y="616" on="0"/>
        <pt x="750" y="453" on="0"/>
        <pt x="750" y="351" on="1"/>
        <pt x="750" y="248" on="0"/>
        <pt x="655" y="85" on="0"/>
        <pt x="491" y="-7" on="0"/>
        <pt x="393" y="-7" on="1"/>
      </contour>
      <contour>
        <pt x="456" y="118" on="0"/>
        <pt x="552" y="175" on="0"/>
        <pt x="606" y="281" on="0"/>
        <pt x="606" y="351" on="1"/>
        <pt x="606" y="421" on="0"/>
        <pt x="552" y="526" on="0"/>
        <pt x="456" y="582" on="0"/>
        <pt x="393" y="582" on="1"/>
        <pt x="330" y="582" on="0"/>
        <pt x="233" y="526" on="0"/>
        <pt x="179" y="421" on="0"/>
        <pt x="179" y="351" on="1"/>
        <pt x="179" y="281" on="0"/>
        <pt x="233" y="175" on="0"/>
        <pt x="330" y="118" on="0"/>
        <pt x="393" y="118" on="1"/>
      </contour>
    </TTGlyph>
    <TTGlyph name="OE" xMin="35" yMin="-8" xMax="1014" yMax="708">
      <contour>
        <pt x="749" y="407" on="1"/>
        <pt x="984" y="407" on="1"/>
        <pt x="984" y="300" on="1"/>
        <pt x="749" y="300" on="1"/>
        <pt x="749" y="111" on="1"/>
        <pt x="1014" y="111" on="1"/>
        <pt x="1014" y="0" on="1"/>
        <pt x="609" y="0" on="1"/>
        <pt x="609" y="93" on="1"/>
        <pt x="529" y="-6" on="0"/>
        <pt x="382" y="-8" on="1"/>
        <pt x="287" y="-8" on="0"/>
        <pt x="128" y="84" on="0"/>
        <pt x="35" y="247" on="0"/>
        <pt x="35" y="350" on="1"/>
        <pt x="35" y="453" on="0"/>
        <pt x="128" y="616" on="0"/>
        <pt x="287" y="708" on="0"/>
        <pt x="381" y="708" on="1"/>
        <pt x="452" y="708" on="0"/>
        <pt x="568" y="658" on="0"/>
        <pt x="609" y="609" on="1"/>
        <pt x="609" y="698" on="1"/>
        <pt x="1014" y="698" on="1"/>
        <pt x="1014" y="588" on="1"/>
        <pt x="749" y="588" on="1"/>
      </contour>
      <contour>
        <pt x="179" y="281" on="0"/>
        <pt x="233" y="177" on="0"/>
        <pt x="330" y="120" on="0"/>
        <pt x="393" y="120" on="1"/>
        <pt x="456" y="120" on="0"/>
        <pt x="552" y="177" on="0"/>
        <pt x="606" y="281" on="0"/>
        <pt x="606" y="350" on="1"/>
        <pt x="606" y="419" on="0"/>
        <pt x="552" y="523" on="0"/>
        <pt x="456" y="579" on="0"/>
        <pt x="393" y="579" on="1"/>
        <pt x="330" y="579" on="0"/>
        <pt x="233" y="523" on="0"/>
        <pt x="179" y="419" on="0"/>
        <pt x="179" y="350" on="1"/>
      </contour>
    </TTGlyph>
    <TTGlyph name="Oacute" xMin="35" yMin="-7" xMax="750" yMax="957">
      <component glyphName="O" x="0" y="0" flags="0x0"/>
      <component glyphName="acute" x="262" y="145" flags="0x4"/>
    </TTGlyph>
    <TTGlyph name="Ocircumflex" xMin="35" yMin="-7" xMax="750" yMax="921">
      <component glyphName="O" x="0" y="0" flags="0x0"/>
      <component glyphName="circumflex" x="234" y="145" flags="0x4"/>
    </TTGlyph>
    <TTGlyph name="Odieresis" xMin="35" yMin="-7" xMax="750" yMax="898">
      <component glyphName="O" x="0" y="0" flags="0x0"/>
      <component glyphName="dieresis" x="224" y="145" flags="0x4"/>
    </TTGlyph>
    <TTGlyph name="Ograve" xMin="35" yMin="-7" xMax="750" yMax="957">
      <component glyphName="O" x="0" y="0" flags="0x0"/>
      <component glyphName="grave" x="262" y="145" flags="0x4"/>
    </TTGlyph>
    <TTGlyph name="Ohungarumlaut" xMin="35" yMin="-7" xMax="750" yMax="934">
      <component glyphName="O" x="0" y="0" flags="0x0"/>
      <component glyphName="hungarumlaut" x="239" y="145" flags="0x4"/>
    </TTGlyph>
    <TTGlyph name="Omacron" xMin="35" yMin="-7" xMax="750" yMax="877">
      <component glyphName="O" x="0" y="0" flags="0x0"/>
      <component glyphName="macron" x="192" y="145" flags="0x4"/>
    </TTGlyph>
    <TTGlyph name="Oslash" xMin="24" yMin="-7" xMax="761" yMax="708">
      <contour>
        <pt x="662" y="591" on="1"/>
        <pt x="704" y="544" on="0"/>
        <pt x="750" y="422" on="0"/>
        <pt x="750" y="351" on="1"/>
        <pt x="750" y="248" on="0"/>
        <pt x="655" y="85" on="0"/>
        <pt x="491" y="-7" on="0"/>
        <pt x="393" y="-7" on="1"/>
        <pt x="333" y="-7" on="0"/>
        <pt x="222" y="29" on="0"/>
        <pt x="177" y="62" on="1"/>
        <pt x="121" y="0" on="1"/>
        <pt x="24" y="0" on="1"/>
        <pt x="124" y="110" on="1"/>
        <pt x="82" y="158" on="0"/>
        <pt x="35" y="281" on="0"/>
        <pt x="35" y="351" on="1"/>
        <pt x="35" y="453" on="0"/>
        <pt x="131" y="616" on="0"/>
        <pt x="295" y="708" on="0"/>
        <pt x="393" y="708" on="1"/>
        <pt x="453" y="708" on="0"/>
        <pt x="563" y="673" on="0"/>
        <pt x="609" y="640" on="1"/>
        <pt x="664" y="700" on="1"/>
        <pt x="761" y="700" on="1"/>
      </contour>
      <contour>
        <pt x="179" y="269" on="0"/>
        <pt x="216" y="210" on="1"/>
        <pt x="520" y="543" on="1"/>
        <pt x="467" y="582" on="0"/>
        <pt x="393" y="582" on="1"/>
        <pt x="330" y="582" on="0"/>
        <pt x="233" y="526" on="0"/>
        <pt x="179" y="421" on="0"/>
        <pt x="179" y="351" on="1"/>
      </contour>
      <contour>
        <pt x="606" y="433" on="0"/>
        <pt x="569" y="490" on="1"/>
        <pt x="265" y="157" on="1"/>
        <pt x="320" y="118" on="0"/>
        <pt x="393" y="118" on="1"/>
        <pt x="456" y="118" on="0"/>
        <pt x="552" y="175" on="0"/>
        <pt x="606" y="281" on="0"/>
        <pt x="606" y="351" on="1"/>
      </contour>
    </TTGlyph>
    <TTGlyph name="Otilde" xMin="35" yMin="-7" xMax="750" yMax="883">
      <component glyphName="O" x="0" y="0" flags="0x0"/>
      <component glyphName="tilde" x="205" y="145" flags="0x4"/>
    </TTGlyph>
    <TTGlyph name="P" xMin="69" yMin="0" xMax="578" yMax="698">
      <contour>
        <pt x="578" y="426" on="0"/>
        <pt x="525" y="328" on="0"/>
        <pt x="412" y="268" on="0"/>
        <pt x="326" y="268" on="1"/>
        <pt x="209" y="268" on="1"/>
        <pt x="209" y="0" on="1"/>
        <pt x="69" y="0" on="1"/>
        <pt x="69" y="698" on="1"/>
        <pt x="326" y="698" on="1"/>
        <pt x="407" y="698" on="0"/>
        <pt x="521" y="642" on="0"/>
        <pt x="578" y="544" on="0"/>
        <pt x="578" y="482" on="1"/>
      </contour>
      <contour>
        <pt x="378" y="381" on="0"/>
        <pt x="434" y="434" on="0"/>
        <pt x="434" y="482" on="1"/>
        <pt x="434" y="584" on="0"/>
        <pt x="320" y="584" on="1"/>
        <pt x="209" y="584" on="1"/>
        <pt x="209" y="381" on="1"/>
        <pt x="320" y="381" on="1"/>
      </contour>
    </TTGlyph>
    <TTGlyph name="Q" xMin="35" yMin="-123" xMax="763" yMax="708">
      <contour>
        <pt x="589" y="-123" on="1"/>
        <pt x="483" y="4" on="1"/>
        <pt x="439" y="-7" on="0"/>
        <pt x="393" y="-7" on="1"/>
        <pt x="295" y="-7" on="0"/>
        <pt x="131" y="85" on="0"/>
        <pt x="35" y="248" on="0"/>
        <pt x="35" y="351" on="1"/>
        <pt x="35" y="453" on="0"/>
        <pt x="131" y="616" on="0"/>
        <pt x="295" y="708" on="0"/>
        <pt x="393" y="708" on="1"/>
        <pt x="492" y="708" on="0"/>
        <pt x="655" y="616" on="0"/>
        <pt x="750" y="453" on="0"/>
        <pt x="750" y="351" on="1"/>
        <pt x="750" y="258" on="0"/>
        <pt x="671" y="105" on="0"/>
        <pt x="603" y="57" on="1"/>
        <pt x="763" y="-123" on="1"/>
      </contour>
      <contour>
        <pt x="179" y="281" on="0"/>
        <pt x="233" y="175" on="0"/>
        <pt x="330" y="118" on="0"/>
        <pt x="393" y="118" on="1"/>
        <pt x="456" y="118" on="0"/>
        <pt x="552" y="175" on="0"/>
        <pt x="606" y="281" on="0"/>
        <pt x="606" y="351" on="1"/>
        <pt x="606" y="421" on="0"/>
        <pt x="552" y="526" on="0"/>
        <pt x="456" y="582" on="0"/>
        <pt x="393" y="582" on="1"/>
        <pt x="330" y="582" on="0"/>
        <pt x="233" y="526" on="0"/>
        <pt x="179" y="421" on="0"/>
        <pt x="179" y="351" on="1"/>
      </contour>
    </TTGlyph>
    <TTGlyph name="R" xMin="69" yMin="0" xMax="591" yMax="698">
      <contour>
        <pt x="429" y="0" on="1"/>
        <pt x="275" y="272" on="1"/>
        <pt x="209" y="272" on="1"/>
        <pt x="209" y="0" on="1"/>
        <pt x="69" y="0" on="1"/>
        <pt x="69" y="698" on="1"/>
        <pt x="331" y="698" on="1"/>
        <pt x="412" y="698" on="0"/>
        <pt x="526" y="641" on="0"/>
        <pt x="583" y="544" on="0"/>
        <pt x="583" y="484" on="1"/>
        <pt x="583" y="415" on="0"/>
        <pt x="503" y="304" on="0"/>
        <pt x="424" y="283" on="1"/>
        <pt x="591" y="0" on="1"/>
      </contour>
      <contour>
        <pt x="209" y="377" on="1"/>
        <pt x="326" y="377" on="1"/>
        <pt x="383" y="377" on="0"/>
        <pt x="439" y="432" on="0"/>
        <pt x="439" y="481" on="1"/>
        <pt x="439" y="529" on="0"/>
        <pt x="383" y="582" on="0"/>
        <pt x="326" y="582" on="1"/>
        <pt x="209" y="582" on="1"/>
      </contour>
    </TTGlyph>
    <TTGlyph name="Racute" xMin="69" yMin="0" xMax="591" yMax="957">
      <component glyphName="R" x="0" y="0" flags="0x0"/>
      <component glyphName="acute" x="187" y="145" flags="0x4"/>
    </TTGlyph>
    <TTGlyph name="Rcaron" xMin="69" yMin="0" xMax="591" yMax="921">
      <component glyphName="R" x="0" y="0" flags="0x0"/>
      <component glyphName="caron" x="160" y="145" flags="0x4"/>
    </TTGlyph>
    <TTGlyph name="S" xMin="51" yMin="-7" xMax="557" yMax="708">
      <contour>
        <pt x="237" y="-7" on="0"/>
        <pt x="120" y="43" on="0"/>
        <pt x="52" y="137" on="0"/>
        <pt x="51" y="201" on="1"/>
        <pt x="201" y="201" on="1"/>
        <pt x="204" y="158" on="0"/>
        <pt x="259" y="108" on="0"/>
        <pt x="307" y="108" on="1"/>
        <pt x="356" y="108" on="0"/>
        <pt x="412" y="155" on="0"/>
        <pt x="412" y="193" on="1"/>
        <pt x="412" y="224" on="0"/>
        <pt x="374" y="264" on="0"/>
        <pt x="317" y="287" on="0"/>
        <pt x="267" y="301" on="1"/>
        <pt x="199" y="321" on="0"/>
        <pt x="114" y="360" on="0"/>
        <pt x="53" y="439" on="0"/>
        <pt x="53" y="505" on="1"/>
        <pt x="53" y="567" on="0"/>
        <pt x="115" y="659" on="0"/>
        <pt x="227" y="708" on="0"/>
        <pt x="299" y="708" on="1"/>
        <pt x="407" y="708" on="0"/>
        <pt x="542" y="603" on="0"/>
        <pt x="549" y="509" on="1"/>
        <pt x="395" y="509" on="1"/>
        <pt x="393" y="545" on="0"/>
        <pt x="336" y="592" on="0"/>
        <pt x="289" y="592" on="1"/>
        <pt x="248" y="592" on="0"/>
        <pt x="199" y="550" on="0"/>
        <pt x="199" y="510" on="1"/>
        <pt x="199" y="482" on="0"/>
        <pt x="236" y="445" on="0"/>
        <pt x="291" y="422" on="0"/>
        <pt x="341" y="407" on="1"/>
        <pt x="409" y="387" on="0"/>
        <pt x="495" y="347" on="0"/>
        <pt x="557" y="267" on="0"/>
        <pt x="557" y="202" on="1"/>
        <pt x="557" y="146" on="0"/>
        <pt x="499" y="50" on="0"/>
        <pt x="387" y="-7" on="0"/>
        <pt x="310" y="-7" on="1"/>
      </contour>
    </TTGlyph>
    <TTGlyph name="Sacute" xMin="51" yMin="-7" xMax="557" yMax="964">
      <component glyphName="S" x="0" y="0" flags="0x0"/>
      <component glyphName="acute" x="171" y="152" flags="0x4"/>
    </TTGlyph>
    <TTGlyph name="Scaron" xMin="51" yMin="-7" xMax="557" yMax="928">
      <component glyphName="S" x="0" y="0" flags="0x0"/>
      <component glyphName="caron" x="144" y="152" flags="0x4"/>
    </TTGlyph>
    <TTGlyph name="T" xMin="32" yMin="0" xMax="544" yMax="698">
      <contour>
        <pt x="544" y="698" on="1"/>
        <pt x="544" y="585" on="1"/>
        <pt x="358" y="585" on="1"/>
        <pt x="358" y="0" on="1"/>
        <pt x="218" y="0" on="1"/>
        <pt x="218" y="585" on="1"/>
        <pt x="32" y="585" on="1"/>
        <pt x="32" y="698" on="1"/>
      </contour>
    </TTGlyph>
    <TTGlyph name="Tcaron" xMin="32" yMin="0" xMax="544" yMax="921">
      <component glyphName="T" x="0" y="0" flags="0x0"/>
      <component glyphName="caron" x="129" y="145" flags="0x4"/>
    </TTGlyph>
    <TTGlyph name="Thorn" xMin="69" yMin="0" xMax="578" yMax="699">
      <contour>
        <pt x="578" y="294" on="0"/>
        <pt x="525" y="198" on="0"/>
        <pt x="412" y="138" on="0"/>
        <pt x="326" y="138" on="1"/>
        <pt x="209" y="138" on="1"/>
        <pt x="209" y="0" on="1"/>
        <pt x="69" y="0" on="1"/>
        <pt x="69" y="699" on="1"/>
        <pt x="208" y="699" on="1"/>
        <pt x="208" y="563" on="1"/>
        <pt x="326" y="563" on="1"/>
        <pt x="407" y="563" on="0"/>
        <pt x="521" y="507" on="0"/>
        <pt x="578" y="411" on="0"/>
        <pt x="578" y="350" on="1"/>
      </contour>
      <contour>
        <pt x="377" y="245" on="0"/>
        <pt x="434" y="301" on="0"/>
        <pt x="434" y="350" on="1"/>
        <pt x="434" y="399" on="0"/>
        <pt x="377" y="455" on="0"/>
        <pt x="320" y="455" on="1"/>
        <pt x="209" y="455" on="1"/>
        <pt x="209" y="245" on="1"/>
        <pt x="320" y="245" on="1"/>
      </contour>
    </TTGlyph>
    <TTGlyph name="U" xMin="67" yMin="-7" xMax="631" yMax="698">
      <contour>
        <pt x="207" y="698" on="1"/>
        <pt x="207" y="266" on="1"/>
        <pt x="207" y="195" on="0"/>
        <pt x="281" y="120" on="0"/>
        <pt x="348" y="120" on="1"/>
        <pt x="416" y="120" on="0"/>
        <pt x="490" y="195" on="0"/>
        <pt x="490" y="266" on="1"/>
        <pt x="490" y="698" on="1"/>
        <pt x="631" y="698" on="1"/>
        <pt x="631" y="267" on="1"/>
        <pt x="631" y="178" on="0"/>
        <pt x="554" y="55" on="0"/>
        <pt x="425" y="-7" on="0"/>
        <pt x="346" y="-7" on="1"/>
        <pt x="268" y="-7" on="0"/>
        <pt x="141" y="55" on="0"/>
        <pt x="67" y="178" on="0"/>
        <pt x="67" y="267" on="1"/>
        <pt x="67" y="698" on="1"/>
      </contour>
    </TTGlyph>
    <TTGlyph name="Uacute" xMin="67" yMin="-7" xMax="631" yMax="957">
      <component glyphName="U" x="0" y="0" flags="0x0"/>
      <component glyphName="acute" x="217" y="145" flags="0x4"/>
    </TTGlyph>
    <TTGlyph name="Ubreve" xMin="67" yMin="-7" xMax="631" yMax="918">
      <component glyphName="U" x="0" y="0" flags="0x0"/>
      <component glyphName="breve" x="179" y="145" flags="0x4"/>
    </TTGlyph>
    <TTGlyph name="Ucircumflex" xMin="67" yMin="-7" xMax="631" yMax="921">
      <component glyphName="U" x="0" y="0" flags="0x0"/>
      <component glyphName="circumflex" x="190" y="145" flags="0x4"/>
    </TTGlyph>
    <TTGlyph name="Udieresis" xMin="67" yMin="-7" xMax="631" yMax="898">
      <component glyphName="U" x="0" y="0" flags="0x0"/>
      <component glyphName="dieresis" x="180" y="145" flags="0x4"/>
    </TTGlyph>
    <TTGlyph name="Ugrave" xMin="67" yMin="-7" xMax="631" yMax="957">
      <component glyphName="U" x="0" y="0" flags="0x0"/>
      <component glyphName="grave" x="217" y="145" flags="0x4"/>
    </TTGlyph>
    <TTGlyph name="Uhungarumlaut" xMin="67" yMin="-7" xMax="631" yMax="934">
      <component glyphName="U" x="0" y="0" flags="0x0"/>
      <component glyphName="hungarumlaut" x="195" y="145" flags="0x4"/>
    </TTGlyph>
    <TTGlyph name="Umacron" xMin="67" yMin="-7" xMax="631" yMax="877">
      <component glyphName="U" x="0" y="0" flags="0x0"/>
      <component glyphName="macron" x="148" y="145" flags="0x4"/>
    </TTGlyph>
    <TTGlyph name="Uogonek" xMin="67" yMin="-213" xMax="631" yMax="698">
      <contour>
        <pt x="631" y="698" on="1"/>
        <pt x="631" y="267" on="1"/>
        <pt x="631" y="158" on="0"/>
        <pt x="517" y="23" on="0"/>
        <pt x="425" y="2" on="1"/>
        <pt x="425" y="1" on="1"/>
        <pt x="378" y="-23" on="1"/>
        <pt x="344" y="-40" on="0"/>
        <pt x="316" y="-71" on="0"/>
        <pt x="316" y="-89" on="1"/>
        <pt x="316" y="-107" on="0"/>
        <pt x="343" y="-129" on="0"/>
        <pt x="366" y="-129" on="1"/>
        <pt x="398" y="-129" on="0"/>
        <pt x="437" y="-114" on="1"/>
        <pt x="437" y="-198" on="1"/>
        <pt x="394" y="-213" on="0"/>
        <pt x="348" y="-213" on="1"/>
        <pt x="289" y="-213" on="0"/>
        <pt x="208" y="-158" on="0"/>
        <pt x="208" y="-102" on="1"/>
        <pt x="208" y="-43" on="0"/>
        <pt x="266" y="2" on="1"/>
        <pt x="176" y="23" on="0"/>
        <pt x="67" y="158" on="0"/>
        <pt x="67" y="267" on="1"/>
        <pt x="67" y="698" on="1"/>
        <pt x="207" y="698" on="1"/>
        <pt x="207" y="266" on="1"/>
        <pt x="207" y="195" on="0"/>
        <pt x="281" y="120" on="0"/>
        <pt x="348" y="120" on="1"/>
        <pt x="416" y="120" on="0"/>
        <pt x="490" y="195" on="0"/>
        <pt x="490" y="266" on="1"/>
        <pt x="490" y="698" on="1"/>
      </contour>
    </TTGlyph>
    <TTGlyph name="Uring" xMin="67" yMin="-7" xMax="631" yMax="977">
      <component glyphName="U" x="0" y="0" flags="0x0"/>
      <component glyphName="ring" x="224" y="145" flags="0x4"/>
    </TTGlyph>
    <TTGlyph name="Utilde" xMin="67" yMin="-7" xMax="631" yMax="883">
      <component glyphName="U" x="0" y="0" flags="0x0"/>
      <component glyphName="tilde" x="161" y="145" flags="0x4"/>
    </TTGlyph>
    <TTGlyph name="V" xMin="14" yMin="0" xMax="696" yMax="698">
      <contour>
        <pt x="696" y="698" on="1"/>
        <pt x="440" y="0" on="1"/>
        <pt x="270" y="0" on="1"/>
        <pt x="14" y="698" on="1"/>
        <pt x="164" y="698" on="1"/>
        <pt x="356" y="143" on="1"/>
        <pt x="547" y="698" on="1"/>
      </contour>
    </TTGlyph>
    <TTGlyph name="W" xMin="22" yMin="-1" xMax="1002" yMax="698">
      <contour>
        <pt x="1002" y="698" on="1"/>
        <pt x="807" y="0" on="1"/>
        <pt x="642" y="0" on="1"/>
        <pt x="511" y="497" on="1"/>
        <pt x="374" y="0" on="1"/>
        <pt x="210" y="-1" on="1"/>
        <pt x="22" y="698" on="1"/>
        <pt x="172" y="698" on="1"/>
        <pt x="295" y="156" on="1"/>
        <pt x="437" y="698" on="1"/>
        <pt x="593" y="698" on="1"/>
        <pt x="727" y="159" on="1"/>
        <pt x="851" y="698" on="1"/>
      </contour>
    </TTGlyph>
    <TTGlyph name="Wacute" xMin="22" yMin="-1" xMax="1002" yMax="961">
      <component glyphName="W" x="0" y="0" flags="0x0"/>
      <component glyphName="acute" x="425" y="149" flags="0x4"/>
    </TTGlyph>
    <TTGlyph name="Wcircumflex" xMin="22" yMin="-1" xMax="1002" yMax="925">
      <component glyphName="W" x="0" y="0" flags="0x0"/>
      <component glyphName="circumflex" x="350" y="149" flags="0x4"/>
    </TTGlyph>
    <TTGlyph name="Wdieresis" xMin="22" yMin="-1" xMax="1002" yMax="899">
      <component glyphName="W" x="0" y="0" flags="0x0"/>
      <component glyphName="dieresis" x="340" y="146" flags="0x4"/>
    </TTGlyph>
    <TTGlyph name="Wgrave" xMin="22" yMin="-1" xMax="1002" yMax="957">
      <component glyphName="W" x="0" y="0" flags="0x0"/>
      <component glyphName="grave" x="357" y="145" flags="0x4"/>
    </TTGlyph>
    <TTGlyph name="X" xMin="38" yMin="0" xMax="648" yMax="698">
      <contour>
        <pt x="487" y="0" on="1"/>
        <pt x="336" y="235" on="1"/>
        <pt x="199" y="0" on="1"/>
        <pt x="41" y="0" on="1"/>
        <pt x="261" y="352" on="1"/>
        <pt x="38" y="698" on="1"/>
        <pt x="199" y="698" on="1"/>
        <pt x="350" y="464" on="1"/>
        <pt x="486" y="698" on="1"/>
        <pt x="644" y="698" on="1"/>
        <pt x="425" y="347" on="1"/>
        <pt x="648" y="0" on="1"/>
      </contour>
    </TTGlyph>
    <TTGlyph name="Y" xMin="11" yMin="0" xMax="624" yMax="698">
      <contour>
        <pt x="624" y="698" on="1"/>
        <pt x="388" y="243" on="1"/>
        <pt x="388" y="0" on="1"/>
        <pt x="248" y="0" on="1"/>
        <pt x="248" y="243" on="1"/>
        <pt x="11" y="698" on="1"/>
        <pt x="169" y="698" on="1"/>
        <pt x="319" y="379" on="1"/>
        <pt x="468" y="698" on="1"/>
      </contour>
    </TTGlyph>
    <TTGlyph name="Yacute" xMin="11" yMin="0" xMax="624" yMax="957">
      <component glyphName="Y" x="0" y="0" flags="0x0"/>
      <component glyphName="acute" x="187" y="145" flags="0x4"/>
    </TTGlyph>
    <TTGlyph name="Ycircumflex" xMin="11" yMin="0" xMax="624" yMax="921">
      <component glyphName="Y" x="0" y="0" flags="0x0"/>
      <component glyphName="circumflex" x="160" y="145" flags="0x4"/>
    </TTGlyph>
    <TTGlyph name="Ydieresis" xMin="11" yMin="0" xMax="624" yMax="898">
      <component glyphName="Y" x="0" y="0" flags="0x0"/>
      <component glyphName="dieresis" x="149" y="145" flags="0x4"/>
    </TTGlyph>
    <TTGlyph name="Ygrave" xMin="11" yMin="0" xMax="624" yMax="957">
      <component glyphName="Y" x="0" y="0" flags="0x0"/>
      <component glyphName="grave" x="187" y="145" flags="0x4"/>
    </TTGlyph>
    <TTGlyph name="Z" xMin="50" yMin="0" xMax="526" yMax="698">
      <contour>
        <pt x="212" y="118" on="1"/>
        <pt x="526" y="118" on="1"/>
        <pt x="526" y="0" on="1"/>
        <pt x="50" y="0" on="1"/>
        <pt x="50" y="108" on="1"/>
        <pt x="362" y="580" on="1"/>
        <pt x="50" y="580" on="1"/>
        <pt x="50" y="698" on="1"/>
        <pt x="526" y="698" on="1"/>
        <pt x="526" y="590" on="1"/>
      </contour>
    </TTGlyph>
    <TTGlyph name="Zacute" xMin="50" yMin="0" xMax="526" yMax="957">
      <component glyphName="Z" x="0" y="0" flags="0x0"/>
      <component glyphName="acute" x="157" y="145" flags="0x4"/>
    </TTGlyph>
    <TTGlyph name="Zcaron" xMin="50" yMin="0" xMax="526" yMax="921">
      <component glyphName="Z" x="0" y="0" flags="0x0"/>
      <component glyphName="caron" x="129" y="145" flags="0x4"/>
    </TTGlyph>
    <TTGlyph name="Zdotaccent" xMin="50" yMin="0" xMax="526" yMax="898">
      <component glyphName="Z" x="0" y="0" flags="0x0"/>
      <component glyphName="dotaccent" x="211" y="145" flags="0x4"/>
    </TTGlyph>
    <TTGlyph name="a" xMin="33" yMin="-9" xMax="610" yMax="563">
      <contour>
        <pt x="33" y="363" on="0"/>
        <pt x="100" y="493" on="0"/>
        <pt x="215" y="563" on="0"/>
        <pt x="286" y="563" on="1"/>
        <pt x="348" y="563" on="0"/>
        <pt x="441" y="513" on="0"/>
        <pt x="469" y="475" on="1"/>
        <pt x="469" y="554" on="1"/>
        <pt x="610" y="554" on="1"/>
        <pt x="610" y="0" on="1"/>
        <pt x="469" y="0" on="1"/>
        <pt x="469" y="81" on="1"/>
        <pt x="442" y="42" on="0"/>
        <pt x="347" y="-9" on="0"/>
        <pt x="285" y="-9" on="1"/>
        <pt x="215" y="-9" on="0"/>
        <pt x="100" y="63" on="0"/>
        <pt x="33" y="194" on="0"/>
        <pt x="33" y="279" on="1"/>
      </contour>
      <contour>
        <pt x="469" y="328" on="0"/>
        <pt x="429" y="401" on="0"/>
        <pt x="361" y="440" on="0"/>
        <pt x="322" y="440" on="1"/>
        <pt x="283" y="440" on="0"/>
        <pt x="217" y="402" on="0"/>
        <pt x="176" y="329" on="0"/>
        <pt x="176" y="279" on="1"/>
        <pt x="176" y="229" on="0"/>
        <pt x="217" y="154" on="0"/>
        <pt x="284" y="114" on="0"/>
        <pt x="322" y="114" on="1"/>
        <pt x="361" y="114" on="0"/>
        <pt x="429" y="153" on="0"/>
        <pt x="469" y="226" on="0"/>
        <pt x="469" y="277" on="1"/>
      </contour>
    </TTGlyph>
    <TTGlyph name="a.ss02" xMin="33" yMin="-10" xMax="546" yMax="564">
      <contour>
        <pt x="381" y="41" on="0"/>
        <pt x="277" y="-10" on="0"/>
        <pt x="217" y="-10" on="1"/>
        <pt x="165" y="-10" on="0"/>
        <pt x="81" y="32" on="0"/>
        <pt x="33" y="106" on="0"/>
        <pt x="33" y="154" on="1"/>
        <pt x="33" y="231" on="0"/>
        <pt x="148" y="329" on="0"/>
        <pt x="263" y="329" on="1"/>
        <pt x="404" y="329" on="1"/>
        <pt x="402" y="382" on="0"/>
        <pt x="345" y="445" on="0"/>
        <pt x="295" y="445" on="1"/>
        <pt x="251" y="445" on="0"/>
        <pt x="193" y="398" on="0"/>
        <pt x="185" y="356" on="1"/>
        <pt x="45" y="356" on="1"/>
        <pt x="55" y="416" on="0"/>
        <pt x="122" y="511" on="0"/>
        <pt x="231" y="564" on="0"/>
        <pt x="299" y="564" on="1"/>
        <pt x="369" y="564" on="0"/>
        <pt x="482" y="506" on="0"/>
        <pt x="546" y="398" on="0"/>
        <pt x="546" y="325" on="1"/>
        <pt x="546" y="0" on="1"/>
        <pt x="404" y="0" on="1"/>
        <pt x="404" y="79" on="1"/>
      </contour>
      <contour>
        <pt x="293" y="103" on="0"/>
        <pt x="360" y="133" on="0"/>
        <pt x="404" y="193" on="0"/>
        <pt x="404" y="234" on="1"/>
        <pt x="404" y="238" on="1"/>
        <pt x="271" y="238" on="1"/>
        <pt x="223" y="238" on="0"/>
        <pt x="176" y="200" on="0"/>
        <pt x="176" y="169" on="1"/>
        <pt x="176" y="139" on="0"/>
        <pt x="219" y="103" on="0"/>
        <pt x="258" y="103" on="1"/>
      </contour>
    </TTGlyph>
    <TTGlyph name="aacute" xMin="33" yMin="-9" xMax="610" yMax="812">
      <component glyphName="a" x="0" y="0" flags="0x0"/>
      <component glyphName="acute" x="210" y="0" flags="0x0"/>
    </TTGlyph>
    <TTGlyph name="aacute.ss02" xMin="33" yMin="-10" xMax="546" yMax="812">
      <component glyphName="acute" x="210" y="0" flags="0x0"/>
      <component glyphName="a.ss02" x="0" y="0" flags="0x0"/>
    </TTGlyph>
    <TTGlyph name="abreve" xMin="33" yMin="-9" xMax="610" yMax="773">
      <component glyphName="a" x="0" y="0" flags="0x0"/>
      <component glyphName="breve" x="172" y="0" flags="0x0"/>
    </TTGlyph>
    <TTGlyph name="abreve.ss02" xMin="33" yMin="-10" xMax="546" yMax="773">
      <component glyphName="breve" x="172" y="0" flags="0x0"/>
      <component glyphName="a.ss02" x="0" y="0" flags="0x0"/>
    </TTGlyph>
    <TTGlyph name="acircumflex" xMin="33" yMin="-9" xMax="610" yMax="776">
      <component glyphName="a" x="0" y="0" flags="0x0"/>
      <component glyphName="circumflex" x="182" y="0" flags="0x0"/>
    </TTGlyph>
    <TTGlyph name="acircumflex.ss02" xMin="33" yMin="-10" xMax="546" yMax="776">
      <component glyphName="circumflex" x="182" y="0" flags="0x0"/>
      <component glyphName="a.ss02" x="0" y="0" flags="0x0"/>
    </TTGlyph>
    <TTGlyph name="acute" xMin="10" yMin="593" xMax="240" yMax="812">
      <contour>
        <pt x="240" y="698" on="1"/>
        <pt x="10" y="593" on="1"/>
        <pt x="10" y="693" on="1"/>
        <pt x="240" y="812" on="1"/>
      </contour>
    </TTGlyph>
    <TTGlyph name="adieresis" xMin="33" yMin="-9" xMax="610" yMax="753">
      <component glyphName="a" x="0" y="0" flags="0x0"/>
      <component glyphName="dieresis" x="172" y="0" flags="0x0"/>
    </TTGlyph>
    <TTGlyph name="adieresis.ss02" xMin="33" yMin="-10" xMax="546" yMax="753">
      <component glyphName="dieresis" x="172" y="0" flags="0x0"/>
      <component glyphName="a.ss02" x="0" y="0" flags="0x0"/>
    </TTGlyph>
    <TTGlyph name="ae" xMin="33" yMin="-9" xMax="1045" yMax="563">
      <contour>
        <pt x="1045" y="268" on="0"/>
        <pt x="1040" y="238" on="1"/>
        <pt x="613" y="238" on="1"/>
        <pt x="621" y="175" on="0"/>
        <pt x="704" y="107" on="0"/>
        <pt x="756" y="107" on="1"/>
        <pt x="804" y="107" on="0"/>
        <pt x="866" y="143" on="0"/>
        <pt x="879" y="174" on="1"/>
        <pt x="1030" y="174" on="1"/>
        <pt x="1007" y="94" on="0"/>
        <pt x="881" y="-9" on="0"/>
        <pt x="791" y="-9" on="1"/>
        <pt x="730" y="-9" on="0"/>
        <pt x="629" y="41" on="0"/>
        <pt x="600" y="82" on="1"/>
        <pt x="600" y="0" on="1"/>
        <pt x="472" y="0" on="1"/>
        <pt x="472" y="82" on="1"/>
        <pt x="441" y="41" on="0"/>
        <pt x="345" y="-9" on="0"/>
        <pt x="286" y="-9" on="1"/>
        <pt x="216" y="-9" on="0"/>
        <pt x="100" y="63" on="0"/>
        <pt x="33" y="194" on="0"/>
        <pt x="33" y="279" on="1"/>
        <pt x="33" y="364" on="0"/>
        <pt x="100" y="493" on="0"/>
        <pt x="218" y="563" on="0"/>
        <pt x="291" y="563" on="1"/>
        <pt x="407" y="563" on="0"/>
        <pt x="474" y="476" on="1"/>
        <pt x="474" y="554" on="1"/>
        <pt x="600" y="554" on="1"/>
        <pt x="600" y="476" on="1"/>
        <pt x="636" y="521" on="0"/>
        <pt x="730" y="563" on="0"/>
        <pt x="791" y="563" on="1"/>
        <pt x="865" y="563" on="0"/>
        <pt x="980" y="494" on="0"/>
        <pt x="1045" y="369" on="0"/>
        <pt x="1045" y="290" on="1"/>
      </contour>
      <contour>
        <pt x="900" y="323" on="1"/>
        <pt x="899" y="380" on="0"/>
        <pt x="819" y="448" on="0"/>
        <pt x="759" y="448" on="1"/>
        <pt x="704" y="448" on="0"/>
        <pt x="623" y="381" on="0"/>
        <pt x="613" y="323" on="1"/>
      </contour>
      <contour>
        <pt x="361" y="114" on="0"/>
        <pt x="429" y="153" on="0"/>
        <pt x="469" y="226" on="0"/>
        <pt x="469" y="277" on="1"/>
        <pt x="469" y="328" on="0"/>
        <pt x="429" y="401" on="0"/>
        <pt x="361" y="440" on="0"/>
        <pt x="322" y="440" on="1"/>
        <pt x="283" y="440" on="0"/>
        <pt x="217" y="402" on="0"/>
        <pt x="176" y="329" on="0"/>
        <pt x="176" y="279" on="1"/>
        <pt x="176" y="229" on="0"/>
        <pt x="217" y="154" on="0"/>
        <pt x="284" y="114" on="0"/>
        <pt x="322" y="114" on="1"/>
      </contour>
    </TTGlyph>
    <TTGlyph name="agrave" xMin="33" yMin="-9" xMax="610" yMax="812">
      <component glyphName="a" x="0" y="0" flags="0x0"/>
      <component glyphName="grave" x="210" y="0" flags="0x0"/>
    </TTGlyph>
    <TTGlyph name="agrave.ss02" xMin="33" yMin="-10" xMax="546" yMax="812">
      <component glyphName="grave" x="210" y="0" flags="0x0"/>
      <component glyphName="a.ss02" x="0" y="0" flags="0x0"/>
    </TTGlyph>
    <TTGlyph name="amacron" xMin="33" yMin="-9" xMax="610" yMax="732">
      <component glyphName="a" x="0" y="0" flags="0x0"/>
      <component glyphName="macron" x="140" y="0" flags="0x0"/>
    </TTGlyph>
    <TTGlyph name="amacron.ss02" xMin="33" yMin="-10" xMax="546" yMax="732">
      <component glyphName="macron" x="140" y="0" flags="0x0"/>
      <component glyphName="a.ss02" x="0" y="0" flags="0x0"/>
    </TTGlyph>
    <TTGlyph name="ampersand" xMin="35" yMin="-12" xMax="778" yMax="713">
      <contour>
        <pt x="606" y="0" on="1"/>
        <pt x="530" y="75" on="1"/>
        <pt x="433" y="-12" on="0"/>
        <pt x="293" y="-12" on="1"/>
        <pt x="216" y="-12" on="0"/>
        <pt x="99" y="41" on="0"/>
        <pt x="35" y="138" on="0"/>
        <pt x="35" y="202" on="1"/>
        <pt x="35" y="271" on="0"/>
        <pt x="113" y="381" on="0"/>
        <pt x="189" y="415" on="1"/>
        <pt x="162" y="448" on="0"/>
        <pt x="138" y="509" on="0"/>
        <pt x="138" y="544" on="1"/>
        <pt x="138" y="592" on="0"/>
        <pt x="188" y="669" on="0"/>
        <pt x="281" y="713" on="0"/>
        <pt x="343" y="713" on="1"/>
        <pt x="406" y="713" on="0"/>
        <pt x="496" y="665" on="0"/>
        <pt x="540" y="585" on="0"/>
        <pt x="537" y="536" on="1"/>
        <pt x="401" y="536" on="1"/>
        <pt x="402" y="569" on="0"/>
        <pt x="368" y="604" on="0"/>
        <pt x="339" y="604" on="1"/>
        <pt x="311" y="604" on="0"/>
        <pt x="274" y="571" on="0"/>
        <pt x="274" y="545" on="1"/>
        <pt x="274" y="520" on="0"/>
        <pt x="304" y="471" on="0"/>
        <pt x="338" y="435" on="1"/>
        <pt x="514" y="261" on="1"/>
        <pt x="516" y="263" on="0"/>
        <pt x="518" y="267" on="0"/>
        <pt x="519" y="269" on="1"/>
        <pt x="576" y="364" on="1"/>
        <pt x="722" y="364" on="1"/>
        <pt x="652" y="241" on="1"/>
        <pt x="632" y="202" on="0"/>
        <pt x="609" y="167" on="1"/>
        <pt x="778" y="0" on="1"/>
      </contour>
      <contour>
        <pt x="379" y="104" on="0"/>
        <pt x="442" y="162" on="1"/>
        <pt x="270" y="332" on="1"/>
        <pt x="173" y="289" on="0"/>
        <pt x="173" y="210" on="1"/>
        <pt x="173" y="165" on="0"/>
        <pt x="241" y="104" on="0"/>
        <pt x="297" y="104" on="1"/>
      </contour>
    </TTGlyph>
    <TTGlyph name="ampersand.ss03" xMin="33" yMin="-8" xMax="674" yMax="734">
      <contour>
        <pt x="517" y="0" on="1"/>
        <pt x="441" y="104" on="1"/>
        <pt x="415" y="54" on="0"/>
        <pt x="314" y="-8" on="0"/>
        <pt x="250" y="-8" on="1"/>
        <pt x="188" y="-8" on="0"/>
        <pt x="89" y="48" on="0"/>
        <pt x="33" y="146" on="0"/>
        <pt x="33" y="207" on="1"/>
        <pt x="33" y="263" on="0"/>
        <pt x="79" y="354" on="0"/>
        <pt x="159" y="409" on="0"/>
        <pt x="208" y="415" on="1"/>
        <pt x="176" y="455" on="0"/>
        <pt x="146" y="526" on="0"/>
        <pt x="146" y="564" on="1"/>
        <pt x="146" y="609" on="0"/>
        <pt x="192" y="687" on="0"/>
        <pt x="281" y="734" on="0"/>
        <pt x="342" y="734" on="1"/>
        <pt x="401" y="734" on="0"/>
        <pt x="488" y="692" on="0"/>
        <pt x="535" y="622" on="0"/>
        <pt x="539" y="582" on="1"/>
        <pt x="541" y="566" on="0"/>
        <pt x="541" y="556" on="1"/>
        <pt x="541" y="536" on="0"/>
        <pt x="536" y="514" on="1"/>
        <pt x="401" y="514" on="1"/>
        <pt x="408" y="534" on="0"/>
        <pt x="406" y="554" on="1"/>
        <pt x="405" y="582" on="0"/>
        <pt x="371" y="617" on="0"/>
        <pt x="343" y="617" on="1"/>
        <pt x="317" y="617" on="0"/>
        <pt x="283" y="582" on="0"/>
        <pt x="283" y="557" on="1"/>
        <pt x="283" y="539" on="0"/>
        <pt x="298" y="504" on="0"/>
        <pt x="317" y="479" on="1"/>
        <pt x="674" y="0" on="1"/>
      </contour>
      <contour>
        <pt x="292" y="108" on="0"/>
        <pt x="348" y="166" on="0"/>
        <pt x="348" y="209" on="1"/>
        <pt x="348" y="251" on="0"/>
        <pt x="292" y="308" on="0"/>
        <pt x="252" y="308" on="1"/>
        <pt x="211" y="308" on="0"/>
        <pt x="156" y="252" on="0"/>
        <pt x="156" y="209" on="1"/>
        <pt x="156" y="166" on="0"/>
        <pt x="211" y="108" on="0"/>
        <pt x="252" y="108" on="1"/>
      </contour>
    </TTGlyph>
    <TTGlyph name="aogonek" xMin="33" yMin="-214" xMax="621" yMax="563">
      <contour>
        <pt x="582" y="-130" on="0"/>
        <pt x="621" y="-115" on="1"/>
        <pt x="621" y="-199" on="1"/>
        <pt x="578" y="-214" on="0"/>
        <pt x="532" y="-214" on="1"/>
        <pt x="473" y="-214" on="0"/>
        <pt x="392" y="-159" on="0"/>
        <pt x="392" y="-103" on="1"/>
        <pt x="392" y="-70" on="0"/>
        <pt x="428" y="-13" on="0"/>
        <pt x="469" y="14" on="1"/>
        <pt x="469" y="81" on="1"/>
        <pt x="442" y="42" on="0"/>
        <pt x="347" y="-9" on="0"/>
        <pt x="285" y="-9" on="1"/>
        <pt x="215" y="-9" on="0"/>
        <pt x="100" y="63" on="0"/>
        <pt x="33" y="194" on="0"/>
        <pt x="33" y="279" on="1"/>
        <pt x="33" y="363" on="0"/>
        <pt x="100" y="493" on="0"/>
        <pt x="215" y="563" on="0"/>
        <pt x="286" y="563" on="1"/>
        <pt x="348" y="563" on="0"/>
        <pt x="441" y="513" on="0"/>
        <pt x="469" y="475" on="1"/>
        <pt x="469" y="554" on="1"/>
        <pt x="610" y="554" on="1"/>
        <pt x="610" y="0" on="1"/>
        <pt x="609" y="0" on="1"/>
        <pt x="562" y="-24" on="1"/>
        <pt x="528" y="-41" on="0"/>
        <pt x="500" y="-72" on="0"/>
        <pt x="500" y="-90" on="1"/>
        <pt x="500" y="-108" on="0"/>
        <pt x="527" y="-130" on="0"/>
        <pt x="550" y="-130" on="1"/>
      </contour>
      <contour>
        <pt x="361" y="114" on="0"/>
        <pt x="429" y="153" on="0"/>
        <pt x="469" y="226" on="0"/>
        <pt x="469" y="277" on="1"/>
        <pt x="469" y="328" on="0"/>
        <pt x="429" y="401" on="0"/>
        <pt x="361" y="440" on="0"/>
        <pt x="322" y="440" on="1"/>
        <pt x="283" y="440" on="0"/>
        <pt x="217" y="402" on="0"/>
        <pt x="176" y="329" on="0"/>
        <pt x="176" y="279" on="1"/>
        <pt x="176" y="229" on="0"/>
        <pt x="217" y="154" on="0"/>
        <pt x="284" y="114" on="0"/>
        <pt x="322" y="114" on="1"/>
      </contour>
    </TTGlyph>
    <TTGlyph name="aogonek.ss02" xMin="33" yMin="-214" xMax="558" yMax="564">
      <contour>
        <pt x="519" y="-130" on="0"/>
        <pt x="558" y="-115" on="1"/>
        <pt x="558" y="-199" on="1"/>
        <pt x="515" y="-214" on="0"/>
        <pt x="469" y="-214" on="1"/>
        <pt x="410" y="-214" on="0"/>
        <pt x="329" y="-159" on="0"/>
        <pt x="329" y="-103" on="1"/>
        <pt x="329" y="-71" on="0"/>
        <pt x="364" y="-14" on="0"/>
        <pt x="404" y="13" on="1"/>
        <pt x="404" y="79" on="1"/>
        <pt x="381" y="41" on="0"/>
        <pt x="277" y="-10" on="0"/>
        <pt x="217" y="-10" on="1"/>
        <pt x="165" y="-10" on="0"/>
        <pt x="81" y="32" on="0"/>
        <pt x="33" y="106" on="0"/>
        <pt x="33" y="154" on="1"/>
        <pt x="33" y="231" on="0"/>
        <pt x="148" y="329" on="0"/>
        <pt x="263" y="329" on="1"/>
        <pt x="404" y="329" on="1"/>
        <pt x="402" y="382" on="0"/>
        <pt x="345" y="445" on="0"/>
        <pt x="295" y="445" on="1"/>
        <pt x="251" y="445" on="0"/>
        <pt x="193" y="398" on="0"/>
        <pt x="185" y="356" on="1"/>
        <pt x="45" y="356" on="1"/>
        <pt x="55" y="416" on="0"/>
        <pt x="122" y="511" on="0"/>
        <pt x="231" y="564" on="0"/>
        <pt x="299" y="564" on="1"/>
        <pt x="369" y="564" on="0"/>
        <pt x="482" y="506" on="0"/>
        <pt x="546" y="398" on="0"/>
        <pt x="546" y="325" on="1"/>
        <pt x="546" y="0" on="1"/>
        <pt x="499" y="-24" on="1"/>
        <pt x="465" y="-41" on="0"/>
        <pt x="437" y="-72" on="0"/>
        <pt x="437" y="-90" on="1"/>
        <pt x="437" y="-108" on="0"/>
        <pt x="464" y="-130" on="0"/>
        <pt x="487" y="-130" on="1"/>
      </contour>
      <contour>
        <pt x="293" y="103" on="0"/>
        <pt x="360" y="133" on="0"/>
        <pt x="404" y="193" on="0"/>
        <pt x="404" y="234" on="1"/>
        <pt x="404" y="238" on="1"/>
        <pt x="271" y="238" on="1"/>
        <pt x="223" y="238" on="0"/>
        <pt x="176" y="200" on="0"/>
        <pt x="176" y="169" on="1"/>
        <pt x="176" y="139" on="0"/>
        <pt x="219" y="103" on="0"/>
        <pt x="258" y="103" on="1"/>
      </contour>
    </TTGlyph>
    <TTGlyph name="apostrophemod.ss01" xMin="34" yMin="573" xMax="167" yMax="819">
      <component glyphName="quoteright.ss01" x="0" y="0" flags="0x0"/>
    </TTGlyph>
    <TTGlyph name="approxequal" xMin="32" yMin="152" xMax="560" yMax="577">
      <component glyphName="asciitilde" x="0" y="-71" flags="0x4"/>
      <component glyphName="asciitilde" x="0" y="164" flags="0x4"/>
    </TTGlyph>
    <TTGlyph name="aring" xMin="33" yMin="-9" xMax="610" yMax="832">
      <component glyphName="a" x="0" y="0" flags="0x0"/>
      <component glyphName="ring" x="216" y="0" flags="0x0"/>
    </TTGlyph>
    <TTGlyph name="aring.ss02" xMin="33" yMin="-10" xMax="546" yMax="832">
      <component glyphName="ring" x="216" y="0" flags="0x0"/>
      <component glyphName="a.ss02" x="0" y="0" flags="0x0"/>
    </TTGlyph>
    <TTGlyph name="asciicircum" xMin="33" yMin="167" xMax="647" yMax="700">
      <contour>
        <pt x="176" y="167" on="1"/>
        <pt x="33" y="167" on="1"/>
        <pt x="273" y="700" on="1"/>
        <pt x="407" y="700" on="1"/>
        <pt x="647" y="167" on="1"/>
        <pt x="503" y="167" on="1"/>
        <pt x="341" y="534" on="1"/>
      </contour>
    </TTGlyph>
    <TTGlyph name="asciitilde" xMin="32" yMin="223" xMax="560" yMax="413">
      <contour>
        <pt x="49" y="321" on="0"/>
        <pt x="141" y="413" on="0"/>
        <pt x="210" y="413" on="1"/>
        <pt x="240" y="413" on="0"/>
        <pt x="289" y="394" on="0"/>
        <pt x="317" y="376" on="1"/>
        <pt x="340" y="362" on="0"/>
        <pt x="373" y="348" on="0"/>
        <pt x="391" y="348" on="1"/>
        <pt x="417" y="348" on="0"/>
        <pt x="452" y="380" on="0"/>
        <pt x="456" y="412" on="1"/>
        <pt x="560" y="412" on="1"/>
        <pt x="543" y="315" on="0"/>
        <pt x="450" y="223" on="0"/>
        <pt x="381" y="223" on="1"/>
        <pt x="351" y="223" on="0"/>
        <pt x="304" y="242" on="0"/>
        <pt x="275" y="260" on="1"/>
        <pt x="250" y="274" on="0"/>
        <pt x="219" y="288" on="0"/>
        <pt x="201" y="288" on="1"/>
        <pt x="175" y="288" on="0"/>
        <pt x="139" y="255" on="0"/>
        <pt x="134" y="224" on="1"/>
        <pt x="32" y="224" on="1"/>
      </contour>
    </TTGlyph>
    <TTGlyph name="asterisk" xMin="68" yMin="360" xMax="449" yMax="738">
      <contour>
        <pt x="399" y="686" on="1"/>
        <pt x="449" y="596" on="1"/>
        <pt x="319" y="549" on="1"/>
        <pt x="449" y="502" on="1"/>
        <pt x="397" y="409" on="1"/>
        <pt x="289" y="498" on="1"/>
        <pt x="312" y="360" on="1"/>
        <pt x="208" y="360" on="1"/>
        <pt x="230" y="498" on="1"/>
        <pt x="123" y="407" on="1"/>
        <pt x="68" y="503" on="1"/>
        <pt x="198" y="550" on="1"/>
        <pt x="69" y="595" on="1"/>
        <pt x="120" y="687" on="1"/>
        <pt x="231" y="599" on="1"/>
        <pt x="208" y="738" on="1"/>
        <pt x="313" y="738" on="1"/>
        <pt x="289" y="599" on="1"/>
      </contour>
    </TTGlyph>
    <TTGlyph name="at" xMin="71" yMin="-213" xMax="979" yMax="656">
      <contour>
        <pt x="718" y="656" on="0"/>
        <pt x="888" y="570" on="0"/>
        <pt x="979" y="414" on="0"/>
        <pt x="979" y="312" on="1"/>
        <pt x="979" y="230" on="0"/>
        <pt x="922" y="84" on="0"/>
        <pt x="814" y="-6" on="0"/>
        <pt x="740" y="-6" on="1"/>
        <pt x="688" y="-6" on="0"/>
        <pt x="624" y="37" on="0"/>
        <pt x="615" y="77" on="1"/>
        <pt x="586" y="38" on="0"/>
        <pt x="494" y="-7" on="0"/>
        <pt x="443" y="-7" on="1"/>
        <pt x="367" y="-7" on="0"/>
        <pt x="281" y="84" on="0"/>
        <pt x="281" y="163" on="1"/>
        <pt x="281" y="238" on="0"/>
        <pt x="343" y="368" on="0"/>
        <pt x="453" y="447" on="0"/>
        <pt x="522" y="447" on="1"/>
        <pt x="608" y="447" on="0"/>
        <pt x="640" y="387" on="1"/>
        <pt x="649" y="439" on="1"/>
        <pt x="766" y="439" on="1"/>
        <pt x="719" y="169" on="1"/>
        <pt x="716" y="150" on="0"/>
        <pt x="716" y="134" on="1"/>
        <pt x="716" y="110" on="0"/>
        <pt x="736" y="86" on="0"/>
        <pt x="760" y="86" on="1"/>
        <pt x="796" y="86" on="0"/>
        <pt x="845" y="154" on="0"/>
        <pt x="870" y="256" on="0"/>
        <pt x="870" y="307" on="1"/>
        <pt x="870" y="428" on="0"/>
        <pt x="722" y="561" on="0"/>
        <pt x="587" y="561" on="1"/>
        <pt x="472" y="561" on="0"/>
        <pt x="286" y="450" on="0"/>
        <pt x="181" y="259" on="0"/>
        <pt x="181" y="142" on="1"/>
        <pt x="181" y="18" on="0"/>
        <pt x="328" y="-116" on="0"/>
        <pt x="463" y="-116" on="1"/>
        <pt x="560" y="-116" on="0"/>
        <pt x="634" y="-81" on="1"/>
        <pt x="654" y="-173" on="1"/>
        <pt x="559" y="-213" on="0"/>
        <pt x="443" y="-213" on="1"/>
        <pt x="331" y="-213" on="0"/>
        <pt x="163" y="-128" on="0"/>
        <pt x="71" y="28" on="0"/>
        <pt x="71" y="131" on="1"/>
        <pt x="71" y="278" on="0"/>
        <pt x="208" y="518" on="0"/>
        <pt x="451" y="656" on="0"/>
        <pt x="602" y="656" on="1"/>
      </contour>
      <contour>
        <pt x="523" y="97" on="0"/>
        <pt x="583" y="139" on="0"/>
        <pt x="618" y="209" on="0"/>
        <pt x="618" y="249" on="1"/>
        <pt x="618" y="291" on="0"/>
        <pt x="572" y="343" on="0"/>
        <pt x="531" y="343" on="1"/>
        <pt x="494" y="343" on="0"/>
        <pt x="438" y="298" on="0"/>
        <pt x="407" y="226" on="0"/>
        <pt x="407" y="186" on="1"/>
        <pt x="407" y="145" on="0"/>
        <pt x="447" y="97" on="0"/>
        <pt x="487" y="97" on="1"/>
      </contour>
    </TTGlyph>
    <TTGlyph name="atilde" xMin="33" yMin="-9" xMax="610" yMax="738">
      <component glyphName="a" x="0" y="0" flags="0x0"/>
      <component glyphName="tilde" x="153" y="0" flags="0x0"/>
    </TTGlyph>
    <TTGlyph name="atilde.ss02" xMin="33" yMin="-10" xMax="546" yMax="738">
      <component glyphName="tilde" x="153" y="0" flags="0x0"/>
      <component glyphName="a.ss02" x="0" y="0" flags="0x0"/>
    </TTGlyph>
    <TTGlyph name="b" xMin="69" yMin="-9" xMax="645" yMax="740">
      <contour>
        <pt x="236" y="513" on="0"/>
        <pt x="331" y="563" on="0"/>
        <pt x="392" y="563" on="1"/>
        <pt x="463" y="563" on="0"/>
        <pt x="578" y="493" on="0"/>
        <pt x="645" y="364" on="0"/>
        <pt x="645" y="279" on="1"/>
        <pt x="645" y="194" on="0"/>
        <pt x="578" y="63" on="0"/>
        <pt x="463" y="-9" on="0"/>
        <pt x="392" y="-9" on="1"/>
        <pt x="330" y="-9" on="0"/>
        <pt x="237" y="40" on="0"/>
        <pt x="209" y="79" on="1"/>
        <pt x="209" y="0" on="1"/>
        <pt x="69" y="0" on="1"/>
        <pt x="69" y="740" on="1"/>
        <pt x="209" y="740" on="1"/>
        <pt x="209" y="473" on="1"/>
      </contour>
      <contour>
        <pt x="502" y="329" on="0"/>
        <pt x="461" y="402" on="0"/>
        <pt x="394" y="440" on="0"/>
        <pt x="355" y="440" on="1"/>
        <pt x="317" y="440" on="0"/>
        <pt x="250" y="401" on="0"/>
        <pt x="209" y="327" on="0"/>
        <pt x="209" y="277" on="1"/>
        <pt x="209" y="227" on="0"/>
        <pt x="250" y="153" on="0"/>
        <pt x="317" y="114" on="0"/>
        <pt x="355" y="114" on="1"/>
        <pt x="394" y="114" on="0"/>
        <pt x="461" y="154" on="0"/>
        <pt x="502" y="228" on="0"/>
        <pt x="502" y="279" on="1"/>
      </contour>
    </TTGlyph>
    <TTGlyph name="backslash" xMin="173" yMin="-181" xMax="595" yMax="947">
      <contour>
        <pt x="458" y="-181" on="1"/>
        <pt x="173" y="947" on="1"/>
        <pt x="309" y="947" on="1"/>
        <pt x="595" y="-181" on="1"/>
      </contour>
    </TTGlyph>
    <TTGlyph name="bar" xMin="84" yMin="-121" xMax="225" yMax="808">
      <contour>
        <pt x="225" y="-121" on="1"/>
        <pt x="84" y="-121" on="1"/>
        <pt x="84" y="808" on="1"/>
        <pt x="225" y="808" on="1"/>
      </contour>
    </TTGlyph>
    <TTGlyph name="braceleft" xMin="110" yMin="-199" xMax="427" yMax="926">
      <contour>
        <pt x="110" y="418" on="1"/>
        <pt x="158" y="422" on="0"/>
        <pt x="207" y="466" on="0"/>
        <pt x="207" y="503" on="1"/>
        <pt x="207" y="545" on="0"/>
        <pt x="198" y="624" on="1"/>
        <pt x="188" y="718" on="0"/>
        <pt x="188" y="761" on="1"/>
        <pt x="188" y="839" on="0"/>
        <pt x="281" y="926" on="0"/>
        <pt x="358" y="926" on="1"/>
        <pt x="427" y="926" on="1"/>
        <pt x="427" y="808" on="1"/>
        <pt x="385" y="808" on="1"/>
        <pt x="323" y="808" on="0"/>
        <pt x="323" y="749" on="1"/>
        <pt x="323" y="721" on="0"/>
        <pt x="331" y="637" on="1"/>
        <pt x="332" y="627" on="0"/>
        <pt x="340" y="534" on="0"/>
        <pt x="340" y="498" on="1"/>
        <pt x="340" y="445" on="0"/>
        <pt x="288" y="375" on="0"/>
        <pt x="235" y="365" on="1"/>
        <pt x="235" y="363" on="1"/>
        <pt x="288" y="352" on="0"/>
        <pt x="340" y="283" on="0"/>
        <pt x="340" y="229" on="1"/>
        <pt x="340" y="195" on="0"/>
        <pt x="332" y="102" on="0"/>
        <pt x="331" y="90" on="1"/>
        <pt x="323" y="6" on="0"/>
        <pt x="323" y="-21" on="1"/>
        <pt x="323" y="-52" on="0"/>
        <pt x="353" y="-80" on="0"/>
        <pt x="385" y="-80" on="1"/>
        <pt x="427" y="-80" on="1"/>
        <pt x="427" y="-199" on="1"/>
        <pt x="358" y="-199" on="1"/>
        <pt x="281" y="-199" on="0"/>
        <pt x="188" y="-112" on="0"/>
        <pt x="188" y="-34" on="1"/>
        <pt x="188" y="10" on="0"/>
        <pt x="198" y="104" on="1"/>
        <pt x="207" y="183" on="0"/>
        <pt x="207" y="224" on="1"/>
        <pt x="207" y="261" on="0"/>
        <pt x="158" y="305" on="0"/>
        <pt x="110" y="309" on="1"/>
      </contour>
    </TTGlyph>
    <TTGlyph name="braceright" xMin="81" yMin="-199" xMax="398" yMax="926">
      <contour>
        <pt x="350" y="305" on="0"/>
        <pt x="301" y="261" on="0"/>
        <pt x="301" y="224" on="1"/>
        <pt x="301" y="183" on="0"/>
        <pt x="310" y="104" on="1"/>
        <pt x="320" y="10" on="0"/>
        <pt x="320" y="-34" on="1"/>
        <pt x="320" y="-112" on="0"/>
        <pt x="227" y="-199" on="0"/>
        <pt x="150" y="-199" on="1"/>
        <pt x="81" y="-199" on="1"/>
        <pt x="81" y="-80" on="1"/>
        <pt x="123" y="-80" on="1"/>
        <pt x="155" y="-80" on="0"/>
        <pt x="185" y="-52" on="0"/>
        <pt x="185" y="-21" on="1"/>
        <pt x="185" y="6" on="0"/>
        <pt x="177" y="90" on="1"/>
        <pt x="176" y="102" on="0"/>
        <pt x="168" y="195" on="0"/>
        <pt x="168" y="229" on="1"/>
        <pt x="168" y="283" on="0"/>
        <pt x="220" y="352" on="0"/>
        <pt x="273" y="363" on="1"/>
        <pt x="273" y="365" on="1"/>
        <pt x="220" y="375" on="0"/>
        <pt x="168" y="445" on="0"/>
        <pt x="168" y="498" on="1"/>
        <pt x="168" y="534" on="0"/>
        <pt x="176" y="627" on="0"/>
        <pt x="177" y="637" on="1"/>
        <pt x="185" y="721" on="0"/>
        <pt x="185" y="749" on="1"/>
        <pt x="185" y="808" on="0"/>
        <pt x="123" y="808" on="1"/>
        <pt x="81" y="808" on="1"/>
        <pt x="81" y="926" on="1"/>
        <pt x="150" y="926" on="1"/>
        <pt x="227" y="926" on="0"/>
        <pt x="320" y="839" on="0"/>
        <pt x="320" y="761" on="1"/>
        <pt x="320" y="718" on="0"/>
        <pt x="310" y="624" on="1"/>
        <pt x="301" y="545" on="0"/>
        <pt x="301" y="503" on="1"/>
        <pt x="301" y="466" on="0"/>
        <pt x="350" y="422" on="0"/>
        <pt x="398" y="418" on="1"/>
        <pt x="398" y="309" on="1"/>
      </contour>
    </TTGlyph>
    <TTGlyph name="bracketleft" xMin="135" yMin="-197" xMax="386" yMax="924">
      <contour>
        <pt x="386" y="924" on="1"/>
        <pt x="386" y="810" on="1"/>
        <pt x="267" y="810" on="1"/>
        <pt x="267" y="-81" on="1"/>
        <pt x="386" y="-81" on="1"/>
        <pt x="386" y="-197" on="1"/>
        <pt x="135" y="-197" on="1"/>
        <pt x="135" y="924" on="1"/>
      </contour>
    </TTGlyph>
    <TTGlyph name="bracketright" xMin="110" yMin="-197" xMax="361" yMax="924">
      <contour>
        <pt x="361" y="-197" on="1"/>
        <pt x="110" y="-197" on="1"/>
        <pt x="110" y="-81" on="1"/>
        <pt x="229" y="-81" on="1"/>
        <pt x="229" y="810" on="1"/>
        <pt x="110" y="810" on="1"/>
        <pt x="110" y="924" on="1"/>
        <pt x="361" y="924" on="1"/>
      </contour>
    </TTGlyph>
    <TTGlyph name="breve" xMin="10" yMin="598" xMax="329" yMax="773">
      <contour>
        <pt x="329" y="680" on="0"/>
        <pt x="243" y="598" on="0"/>
        <pt x="169" y="598" on="1"/>
        <pt x="97" y="598" on="0"/>
        <pt x="10" y="681" on="0"/>
        <pt x="10" y="753" on="1"/>
        <pt x="10" y="773" on="1"/>
        <pt x="84" y="773" on="1"/>
        <pt x="84" y="739" on="0"/>
        <pt x="122" y="704" on="0"/>
        <pt x="169" y="704" on="1"/>
        <pt x="216" y="704" on="0"/>
        <pt x="254" y="739" on="0"/>
        <pt x="254" y="773" on="1"/>
        <pt x="329" y="773" on="1"/>
        <pt x="329" y="752" on="1"/>
      </contour>
    </TTGlyph>
    <TTGlyph name="brokenbar" xMin="105" yMin="-121" xMax="245" yMax="808">
      <contour>
        <pt x="105" y="808" on="1"/>
        <pt x="245" y="808" on="1"/>
        <pt x="245" y="409" on="1"/>
        <pt x="105" y="409" on="1"/>
      </contour>
      <contour>
        <pt x="245" y="-121" on="1"/>
        <pt x="105" y="-121" on="1"/>
        <pt x="105" y="278" on="1"/>
        <pt x="245" y="278" on="1"/>
      </contour>
    </TTGlyph>
    <TTGlyph name="bullet" xMin="100" yMin="194" xMax="380" yMax="473">
      <contour>
        <pt x="201" y="194" on="0"/>
        <pt x="137" y="231" on="0"/>
        <pt x="100" y="295" on="0"/>
        <pt x="100" y="333" on="1"/>
        <pt x="100" y="372" on="0"/>
        <pt x="137" y="436" on="0"/>
        <pt x="201" y="473" on="0"/>
        <pt x="239" y="473" on="1"/>
        <pt x="278" y="473" on="0"/>
        <pt x="343" y="436" on="0"/>
        <pt x="380" y="372" on="0"/>
        <pt x="380" y="333" on="1"/>
        <pt x="380" y="295" on="0"/>
        <pt x="343" y="231" on="0"/>
        <pt x="278" y="194" on="0"/>
        <pt x="239" y="194" on="1"/>
      </contour>
    </TTGlyph>
    <TTGlyph name="c" xMin="33" yMin="-9" xMax="568" yMax="563">
      <contour>
        <pt x="33" y="363" on="0"/>
        <pt x="103" y="492" on="0"/>
        <pt x="227" y="563" on="0"/>
        <pt x="307" y="563" on="1"/>
        <pt x="410" y="563" on="0"/>
        <pt x="545" y="460" on="0"/>
        <pt x="568" y="367" on="1"/>
        <pt x="417" y="367" on="1"/>
        <pt x="405" y="403" on="0"/>
        <pt x="348" y="444" on="0"/>
        <pt x="306" y="444" on="1"/>
        <pt x="246" y="444" on="0"/>
        <pt x="176" y="357" on="0"/>
        <pt x="176" y="277" on="1"/>
        <pt x="176" y="198" on="0"/>
        <pt x="246" y="111" on="0"/>
        <pt x="306" y="111" on="1"/>
        <pt x="391" y="111" on="0"/>
        <pt x="417" y="187" on="1"/>
        <pt x="568" y="187" on="1"/>
        <pt x="545" y="97" on="0"/>
        <pt x="409" y="-9" on="0"/>
        <pt x="307" y="-9" on="1"/>
        <pt x="227" y="-9" on="0"/>
        <pt x="103" y="62" on="0"/>
        <pt x="33" y="191" on="0"/>
        <pt x="33" y="277" on="1"/>
      </contour>
    </TTGlyph>
    <TTGlyph name="cacute" xMin="33" yMin="-9" xMax="568" yMax="812">
      <component glyphName="c" x="0" y="0" flags="0x0"/>
      <component glyphName="acute" x="169" y="0" flags="0x0"/>
    </TTGlyph>
    <TTGlyph name="caron" xMin="10" yMin="593" xMax="307" yMax="776">
      <contour>
        <pt x="307" y="674" on="1"/>
        <pt x="159" y="593" on="1"/>
        <pt x="10" y="674" on="1"/>
        <pt x="10" y="776" on="1"/>
        <pt x="159" y="690" on="1"/>
        <pt x="307" y="776" on="1"/>
      </contour>
    </TTGlyph>
    <TTGlyph name="ccaron" xMin="33" yMin="-9" xMax="568" yMax="776">
      <component glyphName="c" x="0" y="0" flags="0x0"/>
      <component glyphName="caron" x="141" y="0" flags="0x0"/>
    </TTGlyph>
    <TTGlyph name="ccedilla" xMin="33" yMin="-266" xMax="568" yMax="563">
      <contour>
        <pt x="391" y="111" on="0"/>
        <pt x="417" y="187" on="1"/>
        <pt x="568" y="187" on="1"/>
        <pt x="547" y="106" on="0"/>
        <pt x="434" y="4" on="0"/>
        <pt x="349" y="-6" on="1"/>
        <pt x="349" y="-45" on="1"/>
        <pt x="404" y="-45" on="0"/>
        <pt x="479" y="-101" on="0"/>
        <pt x="479" y="-154" on="1"/>
        <pt x="479" y="-208" on="0"/>
        <pt x="402" y="-266" on="0"/>
        <pt x="346" y="-266" on="1"/>
        <pt x="204" y="-266" on="1"/>
        <pt x="204" y="-184" on="1"/>
        <pt x="323" y="-184" on="1"/>
        <pt x="347" y="-184" on="0"/>
        <pt x="372" y="-170" on="0"/>
        <pt x="372" y="-152" on="1"/>
        <pt x="372" y="-134" on="0"/>
        <pt x="347" y="-121" on="0"/>
        <pt x="323" y="-121" on="1"/>
        <pt x="261" y="-121" on="1"/>
        <pt x="261" y="-6" on="1"/>
        <pt x="193" y="4" on="0"/>
        <pt x="90" y="79" on="0"/>
        <pt x="33" y="200" on="0"/>
        <pt x="33" y="277" on="1"/>
        <pt x="33" y="363" on="0"/>
        <pt x="103" y="492" on="0"/>
        <pt x="227" y="563" on="0"/>
        <pt x="307" y="563" on="1"/>
        <pt x="410" y="563" on="0"/>
        <pt x="545" y="460" on="0"/>
        <pt x="568" y="367" on="1"/>
        <pt x="417" y="367" on="1"/>
        <pt x="405" y="403" on="0"/>
        <pt x="348" y="444" on="0"/>
        <pt x="306" y="444" on="1"/>
        <pt x="246" y="444" on="0"/>
        <pt x="176" y="357" on="0"/>
        <pt x="176" y="277" on="1"/>
        <pt x="176" y="198" on="0"/>
        <pt x="246" y="111" on="0"/>
        <pt x="306" y="111" on="1"/>
      </contour>
    </TTGlyph>
    <TTGlyph name="cdotaccent" xMin="33" yMin="-9" xMax="568" yMax="753">
      <component glyphName="c" x="0" y="0" flags="0x0"/>
      <component glyphName="dotaccent" x="223" y="0" flags="0x0"/>
    </TTGlyph>
    <TTGlyph name="cedilla" xMin="10" yMin="-264" xMax="285" yMax="7">
      <contour>
        <pt x="210" y="-43" on="0"/>
        <pt x="285" y="-99" on="0"/>
        <pt x="285" y="-152" on="1"/>
        <pt x="285" y="-206" on="0"/>
        <pt x="208" y="-264" on="0"/>
        <pt x="152" y="-264" on="1"/>
        <pt x="10" y="-264" on="1"/>
        <pt x="10" y="-182" on="1"/>
        <pt x="129" y="-182" on="1"/>
        <pt x="153" y="-182" on="0"/>
        <pt x="178" y="-168" on="0"/>
        <pt x="178" y="-150" on="1"/>
        <pt x="178" y="-132" on="0"/>
        <pt x="153" y="-119" on="0"/>
        <pt x="129" y="-119" on="1"/>
        <pt x="67" y="-119" on="1"/>
        <pt x="67" y="7" on="1"/>
        <pt x="155" y="7" on="1"/>
        <pt x="155" y="-43" on="1"/>
      </contour>
    </TTGlyph>
    <TTGlyph name="cent" xMin="55" yMin="-87" xMax="564" yMax="603">
      <contour>
        <pt x="367" y="111" on="0"/>
        <pt x="424" y="148" on="0"/>
        <pt x="434" y="182" on="1"/>
        <pt x="564" y="182" on="1"/>
        <pt x="557" y="106" on="0"/>
        <pt x="440" y="6" on="0"/>
        <pt x="352" y="-2" on="1"/>
        <pt x="352" y="-87" on="1"/>
        <pt x="288" y="-87" on="1"/>
        <pt x="288" y="-2" on="1"/>
        <pt x="177" y="8" on="0"/>
        <pt x="55" y="150" on="0"/>
        <pt x="55" y="258" on="1"/>
        <pt x="55" y="366" on="0"/>
        <pt x="177" y="508" on="0"/>
        <pt x="288" y="518" on="1"/>
        <pt x="288" y="603" on="1"/>
        <pt x="352" y="603" on="1"/>
        <pt x="352" y="518" on="1"/>
        <pt x="440" y="510" on="0"/>
        <pt x="557" y="410" on="0"/>
        <pt x="564" y="334" on="1"/>
        <pt x="434" y="334" on="1"/>
        <pt x="411" y="405" on="0"/>
        <pt x="322" y="405" on="1"/>
        <pt x="260" y="405" on="0"/>
        <pt x="188" y="327" on="0"/>
        <pt x="188" y="258" on="1"/>
        <pt x="188" y="189" on="0"/>
        <pt x="260" y="111" on="0"/>
        <pt x="322" y="111" on="1"/>
      </contour>
    </TTGlyph>
    <TTGlyph name="circumflex" xMin="10" yMin="593" xMax="307" yMax="776">
      <contour>
        <pt x="159" y="677" on="1"/>
        <pt x="10" y="593" on="1"/>
        <pt x="10" y="695" on="1"/>
        <pt x="159" y="776" on="1"/>
        <pt x="307" y="695" on="1"/>
        <pt x="307" y="593" on="1"/>
      </contour>
    </TTGlyph>
    <TTGlyph name="colon" xMin="44" yMin="-7" xMax="216" yMax="571">
      <component glyphName="period" x="0" y="0" flags="0x0"/>
      <component glyphName="period" x="0" y="414" flags="0x4"/>
    </TTGlyph>
    <TTGlyph name="colon.ss01" xMin="68" yMin="0" xMax="219" yMax="564">
      <contour>
        <pt x="219" y="564" on="1"/>
        <pt x="219" y="412" on="1"/>
        <pt x="68" y="412" on="1"/>
        <pt x="68" y="564" on="1"/>
      </contour>
      <contour>
        <pt x="219" y="152" on="1"/>
        <pt x="219" y="0" on="1"/>
        <pt x="68" y="0" on="1"/>
        <pt x="68" y="152" on="1"/>
      </contour>
    </TTGlyph>
    <TTGlyph name="comma" xMin="15" yMin="-134" xMax="222" yMax="147">
      <contour>
        <pt x="222" y="147" on="1"/>
        <pt x="105" y="-134" on="1"/>
        <pt x="15" y="-134" on="1"/>
        <pt x="80" y="147" on="1"/>
      </contour>
    </TTGlyph>
    <TTGlyph name="comma.ss01" xMin="30" yMin="-156" xMax="183" yMax="118">
      <contour>
        <pt x="183" y="47" on="0"/>
        <pt x="183" y="-4" on="1"/>
        <pt x="183" y="-77" on="0"/>
        <pt x="113" y="-156" on="0"/>
        <pt x="43" y="-156" on="1"/>
        <pt x="43" y="-95" on="1"/>
        <pt x="71" y="-95" on="0"/>
        <pt x="98" y="-65" on="0"/>
        <pt x="98" y="-31" on="1"/>
        <pt x="98" y="-11" on="1"/>
        <pt x="30" y="-11" on="1"/>
        <pt x="30" y="118" on="1"/>
        <pt x="161" y="118" on="1"/>
      </contour>
    </TTGlyph>
    <TTGlyph name="copyright" xMin="42" yMin="-8" xMax="743" yMax="708">
      <contour>
        <pt x="495" y="708" on="0"/>
        <pt x="654" y="617" on="0"/>
        <pt x="743" y="454" on="0"/>
        <pt x="743" y="350" on="1"/>
        <pt x="743" y="246" on="0"/>
        <pt x="654" y="83" on="0"/>
        <pt x="495" y="-8" on="0"/>
        <pt x="393" y="-8" on="1"/>
        <pt x="290" y="-8" on="0"/>
        <pt x="131" y="83" on="0"/>
        <pt x="42" y="246" on="0"/>
        <pt x="42" y="350" on="1"/>
        <pt x="42" y="454" on="0"/>
        <pt x="131" y="617" on="0"/>
        <pt x="290" y="708" on="0"/>
        <pt x="393" y="708" on="1"/>
      </contour>
      <contour>
        <pt x="303" y="657" on="0"/>
        <pt x="169" y="582" on="0"/>
        <pt x="97" y="443" on="0"/>
        <pt x="97" y="350" on="1"/>
        <pt x="97" y="258" on="0"/>
        <pt x="169" y="119" on="0"/>
        <pt x="303" y="42" on="0"/>
        <pt x="393" y="42" on="1"/>
        <pt x="482" y="42" on="0"/>
        <pt x="616" y="119" on="0"/>
        <pt x="688" y="258" on="0"/>
        <pt x="688" y="350" on="1"/>
        <pt x="688" y="443" on="0"/>
        <pt x="616" y="582" on="0"/>
        <pt x="483" y="657" on="0"/>
        <pt x="393" y="657" on="1"/>
      </contour>
      <contour>
        <pt x="329" y="578" on="0"/>
        <pt x="229" y="522" on="0"/>
        <pt x="172" y="419" on="0"/>
        <pt x="172" y="351" on="1"/>
        <pt x="172" y="283" on="0"/>
        <pt x="229" y="179" on="0"/>
        <pt x="329" y="123" on="0"/>
        <pt x="392" y="123" on="1"/>
        <pt x="469" y="123" on="0"/>
        <pt x="581" y="208" on="0"/>
        <pt x="598" y="278" on="1"/>
        <pt x="475" y="278" on="1"/>
        <pt x="464" y="250" on="0"/>
        <pt x="423" y="220" on="0"/>
        <pt x="389" y="220" on="1"/>
        <pt x="343" y="220" on="0"/>
        <pt x="290" y="287" on="0"/>
        <pt x="290" y="351" on="1"/>
        <pt x="290" y="415" on="0"/>
        <pt x="343" y="481" on="0"/>
        <pt x="389" y="481" on="1"/>
        <pt x="421" y="481" on="0"/>
        <pt x="466" y="451" on="0"/>
        <pt x="475" y="423" on="1"/>
        <pt x="598" y="423" on="1"/>
        <pt x="581" y="495" on="0"/>
        <pt x="470" y="578" on="0"/>
        <pt x="392" y="578" on="1"/>
      </contour>
    </TTGlyph>
    <TTGlyph name="currency" xMin="60" yMin="158" xMax="501" yMax="599">
      <contour>
        <pt x="478" y="318" on="0"/>
        <pt x="445" y="272" on="1"/>
        <pt x="501" y="216" on="1"/>
        <pt x="444" y="158" on="1"/>
        <pt x="381" y="220" on="1"/>
        <pt x="335" y="198" on="0"/>
        <pt x="280" y="198" on="1"/>
        <pt x="224" y="198" on="0"/>
        <pt x="180" y="220" on="1"/>
        <pt x="118" y="158" on="1"/>
        <pt x="60" y="216" on="1"/>
        <pt x="117" y="273" on="1"/>
        <pt x="86" y="316" on="0"/>
        <pt x="86" y="377" on="1"/>
        <pt x="86" y="438" on="0"/>
        <pt x="118" y="483" on="1"/>
        <pt x="60" y="541" on="1"/>
        <pt x="118" y="599" on="1"/>
        <pt x="182" y="535" on="1"/>
        <pt x="224" y="556" on="0"/>
        <pt x="281" y="556" on="1"/>
        <pt x="338" y="556" on="0"/>
        <pt x="380" y="535" on="1"/>
        <pt x="444" y="599" on="1"/>
        <pt x="501" y="541" on="1"/>
        <pt x="445" y="484" on="1"/>
        <pt x="478" y="440" on="0"/>
        <pt x="478" y="377" on="1"/>
      </contour>
      <contour>
        <pt x="315" y="282" on="0"/>
        <pt x="364" y="332" on="0"/>
        <pt x="364" y="377" on="1"/>
        <pt x="364" y="423" on="0"/>
        <pt x="316" y="473" on="0"/>
        <pt x="281" y="473" on="1"/>
        <pt x="246" y="473" on="0"/>
        <pt x="198" y="423" on="0"/>
        <pt x="198" y="377" on="1"/>
        <pt x="198" y="331" on="0"/>
        <pt x="245" y="282" on="0"/>
        <pt x="280" y="282" on="1"/>
      </contour>
    </TTGlyph>
    <TTGlyph name="d" xMin="33" yMin="-9" xMax="610" yMax="740">
      <contour>
        <pt x="33" y="363" on="0"/>
        <pt x="100" y="493" on="0"/>
        <pt x="216" y="563" on="0"/>
        <pt x="287" y="563" on="1"/>
        <pt x="341" y="563" on="0"/>
        <pt x="439" y="516" on="0"/>
        <pt x="468" y="477" on="1"/>
        <pt x="468" y="740" on="1"/>
        <pt x="610" y="740" on="1"/>
        <pt x="610" y="0" on="1"/>
        <pt x="468" y="0" on="1"/>
        <pt x="468" y="82" on="1"/>
        <pt x="442" y="41" on="0"/>
        <pt x="348" y="-9" on="0"/>
        <pt x="286" y="-9" on="1"/>
        <pt x="216" y="-9" on="0"/>
        <pt x="100" y="63" on="0"/>
        <pt x="33" y="194" on="0"/>
        <pt x="33" y="279" on="1"/>
      </contour>
      <contour>
        <pt x="469" y="328" on="0"/>
        <pt x="429" y="401" on="0"/>
        <pt x="361" y="440" on="0"/>
        <pt x="322" y="440" on="1"/>
        <pt x="283" y="440" on="0"/>
        <pt x="217" y="402" on="0"/>
        <pt x="176" y="329" on="0"/>
        <pt x="176" y="279" on="1"/>
        <pt x="176" y="229" on="0"/>
        <pt x="217" y="154" on="0"/>
        <pt x="284" y="114" on="0"/>
        <pt x="322" y="114" on="1"/>
        <pt x="361" y="114" on="0"/>
        <pt x="429" y="153" on="0"/>
        <pt x="469" y="226" on="0"/>
        <pt x="469" y="277" on="1"/>
      </contour>
    </TTGlyph>
    <TTGlyph name="dagger" xMin="49" yMin="-264" xMax="567" yMax="786">
      <contour>
        <pt x="567" y="446" on="1"/>
        <pt x="364" y="458" on="1"/>
        <pt x="378" y="-264" on="1"/>
        <pt x="238" y="-264" on="1"/>
        <pt x="252" y="458" on="1"/>
        <pt x="49" y="446" on="1"/>
        <pt x="49" y="554" on="1"/>
        <pt x="252" y="543" on="1"/>
        <pt x="238" y="786" on="1"/>
        <pt x="378" y="786" on="1"/>
        <pt x="364" y="543" on="1"/>
        <pt x="567" y="554" on="1"/>
      </contour>
    </TTGlyph>
    <TTGlyph name="daggerdbl" xMin="50" yMin="-264" xMax="567" yMax="786">
      <contour>
        <pt x="364" y="458" on="1"/>
        <pt x="364" y="65" on="1"/>
        <pt x="567" y="76" on="1"/>
        <pt x="567" y="-32" on="1"/>
        <pt x="364" y="-20" on="1"/>
        <pt x="378" y="-264" on="1"/>
        <pt x="238" y="-264" on="1"/>
        <pt x="252" y="-20" on="1"/>
        <pt x="50" y="-32" on="1"/>
        <pt x="50" y="76" on="1"/>
        <pt x="252" y="65" on="1"/>
        <pt x="252" y="458" on="1"/>
        <pt x="50" y="446" on="1"/>
        <pt x="50" y="554" on="1"/>
        <pt x="252" y="543" on="1"/>
        <pt x="238" y="786" on="1"/>
        <pt x="378" y="786" on="1"/>
        <pt x="364" y="543" on="1"/>
        <pt x="567" y="554" on="1"/>
        <pt x="567" y="446" on="1"/>
      </contour>
    </TTGlyph>
    <TTGlyph name="danda" xMin="151" yMin="0" xMax="279" yMax="741">
      <contour>
        <pt x="279" y="741" on="1"/>
        <pt x="279" y="0" on="1"/>
        <pt x="151" y="0" on="1"/>
        <pt x="151" y="741" on="1"/>
      </contour>
    </TTGlyph>
    <TTGlyph name="dcaron" xMin="33" yMin="-9" xMax="796" yMax="740">
      <contour>
        <pt x="33" y="363" on="0"/>
        <pt x="100" y="493" on="0"/>
        <pt x="216" y="563" on="0"/>
        <pt x="287" y="563" on="1"/>
        <pt x="341" y="563" on="0"/>
        <pt x="439" y="516" on="0"/>
        <pt x="468" y="477" on="1"/>
        <pt x="468" y="740" on="1"/>
        <pt x="610" y="740" on="1"/>
        <pt x="610" y="0" on="1"/>
        <pt x="468" y="0" on="1"/>
        <pt x="468" y="82" on="1"/>
        <pt x="442" y="41" on="0"/>
        <pt x="348" y="-9" on="0"/>
        <pt x="286" y="-9" on="1"/>
        <pt x="216" y="-9" on="0"/>
        <pt x="100" y="63" on="0"/>
        <pt x="33" y="194" on="0"/>
        <pt x="33" y="279" on="1"/>
      </contour>
      <contour>
        <pt x="796" y="680" on="0"/>
        <pt x="796" y="632" on="1"/>
        <pt x="796" y="566" on="0"/>
        <pt x="733" y="495" on="0"/>
        <pt x="670" y="495" on="1"/>
        <pt x="670" y="552" on="1"/>
        <pt x="720" y="552" on="0"/>
        <pt x="720" y="612" on="1"/>
        <pt x="720" y="631" on="1"/>
        <pt x="663" y="631" on="1"/>
        <pt x="663" y="740" on="1"/>
        <pt x="779" y="740" on="1"/>
      </contour>
      <contour>
        <pt x="469" y="328" on="0"/>
        <pt x="429" y="401" on="0"/>
        <pt x="361" y="440" on="0"/>
        <pt x="322" y="440" on="1"/>
        <pt x="283" y="440" on="0"/>
        <pt x="217" y="402" on="0"/>
        <pt x="176" y="329" on="0"/>
        <pt x="176" y="279" on="1"/>
        <pt x="176" y="229" on="0"/>
        <pt x="217" y="154" on="0"/>
        <pt x="284" y="114" on="0"/>
        <pt x="322" y="114" on="1"/>
        <pt x="361" y="114" on="0"/>
        <pt x="429" y="153" on="0"/>
        <pt x="469" y="226" on="0"/>
        <pt x="469" y="277" on="1"/>
      </contour>
    </TTGlyph>
    <TTGlyph name="dcroat" xMin="33" yMin="-9" xMax="670" yMax="740">
      <contour>
        <pt x="670" y="590" on="1"/>
        <pt x="610" y="590" on="1"/>
        <pt x="610" y="0" on="1"/>
        <pt x="468" y="0" on="1"/>
        <pt x="468" y="82" on="1"/>
        <pt x="442" y="41" on="0"/>
        <pt x="348" y="-9" on="0"/>
        <pt x="286" y="-9" on="1"/>
        <pt x="216" y="-9" on="0"/>
        <pt x="100" y="63" on="0"/>
        <pt x="33" y="194" on="0"/>
        <pt x="33" y="279" on="1"/>
        <pt x="33" y="363" on="0"/>
        <pt x="100" y="493" on="0"/>
        <pt x="216" y="563" on="0"/>
        <pt x="287" y="563" on="1"/>
        <pt x="341" y="563" on="0"/>
        <pt x="439" y="516" on="0"/>
        <pt x="468" y="477" on="1"/>
        <pt x="468" y="590" on="1"/>
        <pt x="392" y="590" on="1"/>
        <pt x="392" y="664" on="1"/>
        <pt x="468" y="664" on="1"/>
        <pt x="468" y="740" on="1"/>
        <pt x="610" y="740" on="1"/>
        <pt x="610" y="664" on="1"/>
        <pt x="670" y="664" on="1"/>
      </contour>
      <contour>
        <pt x="361" y="114" on="0"/>
        <pt x="429" y="153" on="0"/>
        <pt x="469" y="226" on="0"/>
        <pt x="469" y="277" on="1"/>
        <pt x="469" y="328" on="0"/>
        <pt x="429" y="401" on="0"/>
        <pt x="361" y="440" on="0"/>
        <pt x="322" y="440" on="1"/>
        <pt x="283" y="440" on="0"/>
        <pt x="217" y="402" on="0"/>
        <pt x="176" y="329" on="0"/>
        <pt x="176" y="279" on="1"/>
        <pt x="176" y="229" on="0"/>
        <pt x="217" y="154" on="0"/>
        <pt x="284" y="114" on="0"/>
        <pt x="322" y="114" on="1"/>
      </contour>
    </TTGlyph>
    <TTGlyph name="degree" xMin="27" yMin="347" xMax="417" yMax="705">
      <contour>
        <pt x="27" y="609" on="0"/>
        <pt x="136" y="705" on="0"/>
        <pt x="223" y="705" on="1"/>
        <pt x="309" y="705" on="0"/>
        <pt x="417" y="608" on="0"/>
        <pt x="417" y="527" on="1"/>
        <pt x="417" y="445" on="0"/>
        <pt x="308" y="347" on="0"/>
        <pt x="221" y="347" on="1"/>
        <pt x="135" y="347" on="0"/>
        <pt x="27" y="445" on="0"/>
        <pt x="27" y="527" on="1"/>
      </contour>
      <contour>
        <pt x="307" y="575" on="0"/>
        <pt x="257" y="628" on="0"/>
        <pt x="221" y="628" on="1"/>
        <pt x="186" y="628" on="0"/>
        <pt x="136" y="575" on="0"/>
        <pt x="136" y="526" on="1"/>
        <pt x="136" y="478" on="0"/>
        <pt x="185" y="426" on="0"/>
        <pt x="221" y="426" on="1"/>
        <pt x="256" y="426" on="0"/>
        <pt x="307" y="478" on="0"/>
        <pt x="307" y="526" on="1"/>
      </contour>
    </TTGlyph>
    <TTGlyph name="dieresis" xMin="10" yMin="620" xMax="328" yMax="753">
      <contour>
        <pt x="48" y="620" on="0"/>
        <pt x="10" y="658" on="0"/>
        <pt x="10" y="686" on="1"/>
        <pt x="10" y="714" on="0"/>
        <pt x="48" y="753" on="0"/>
        <pt x="76" y="753" on="1"/>
        <pt x="104" y="753" on="0"/>
        <pt x="143" y="714" on="0"/>
        <pt x="143" y="686" on="1"/>
        <pt x="143" y="658" on="0"/>
        <pt x="104" y="620" on="0"/>
        <pt x="76" y="620" on="1"/>
      </contour>
      <contour>
        <pt x="233" y="620" on="0"/>
        <pt x="195" y="658" on="0"/>
        <pt x="195" y="686" on="1"/>
        <pt x="195" y="714" on="0"/>
        <pt x="233" y="753" on="0"/>
        <pt x="261" y="753" on="1"/>
        <pt x="289" y="753" on="0"/>
        <pt x="328" y="714" on="0"/>
        <pt x="328" y="686" on="1"/>
        <pt x="328" y="658" on="0"/>
        <pt x="289" y="620" on="0"/>
        <pt x="261" y="620" on="1"/>
      </contour>
    </TTGlyph>
    <TTGlyph name="divide" xMin="73" yMin="55" xMax="583" yMax="660">
      <contour>
        <pt x="293" y="496" on="0"/>
        <pt x="244" y="543" on="0"/>
        <pt x="244" y="578" on="1"/>
        <pt x="244" y="613" on="0"/>
        <pt x="293" y="660" on="0"/>
        <pt x="331" y="660" on="1"/>
        <pt x="368" y="660" on="0"/>
        <pt x="416" y="613" on="0"/>
        <pt x="416" y="578" on="1"/>
        <pt x="416" y="543" on="0"/>
        <pt x="368" y="496" on="0"/>
        <pt x="331" y="496" on="1"/>
      </contour>
      <contour>
        <pt x="583" y="418" on="1"/>
        <pt x="583" y="296" on="1"/>
        <pt x="73" y="296" on="1"/>
        <pt x="73" y="418" on="1"/>
      </contour>
      <contour>
        <pt x="293" y="55" on="0"/>
        <pt x="244" y="102" on="0"/>
        <pt x="244" y="137" on="1"/>
        <pt x="244" y="172" on="0"/>
        <pt x="293" y="219" on="0"/>
        <pt x="331" y="219" on="1"/>
        <pt x="368" y="219" on="0"/>
        <pt x="416" y="172" on="0"/>
        <pt x="416" y="137" on="1"/>
        <pt x="416" y="102" on="0"/>
        <pt x="368" y="55" on="0"/>
        <pt x="331" y="55" on="1"/>
      </contour>
    </TTGlyph>
    <TTGlyph name="divide.ss01" xMin="73" yMin="62" xMax="583" yMax="650">
      <contour>
        <pt x="404" y="650" on="1"/>
        <pt x="404" y="498" on="1"/>
        <pt x="252" y="498" on="1"/>
        <pt x="252" y="650" on="1"/>
      </contour>
      <contour>
        <pt x="583" y="419" on="1"/>
        <pt x="583" y="294" on="1"/>
        <pt x="73" y="294" on="1"/>
        <pt x="73" y="419" on="1"/>
      </contour>
      <contour>
        <pt x="404" y="214" on="1"/>
        <pt x="404" y="62" on="1"/>
        <pt x="252" y="62" on="1"/>
        <pt x="252" y="214" on="1"/>
      </contour>
    </TTGlyph>
    <TTGlyph name="dollar" xMin="53" yMin="-87" xMax="567" yMax="788">
      <contour>
        <pt x="567" y="149" on="0"/>
        <pt x="514" y="58" on="0"/>
        <pt x="411" y="-1" on="0"/>
        <pt x="341" y="-6" on="1"/>
        <pt x="341" y="-87" on="1"/>
        <pt x="277" y="-87" on="1"/>
        <pt x="277" y="-5" on="1"/>
        <pt x="177" y="4" on="0"/>
        <pt x="55" y="107" on="0"/>
        <pt x="53" y="195" on="1"/>
        <pt x="203" y="195" on="1"/>
        <pt x="209" y="123" on="0"/>
        <pt x="277" y="108" on="1"/>
        <pt x="277" y="299" on="1"/>
        <pt x="205" y="317" on="0"/>
        <pt x="117" y="353" on="0"/>
        <pt x="53" y="433" on="0"/>
        <pt x="53" y="502" on="1"/>
        <pt x="53" y="589" on="0"/>
        <pt x="178" y="699" on="0"/>
        <pt x="277" y="707" on="1"/>
        <pt x="277" y="788" on="1"/>
        <pt x="341" y="788" on="1"/>
        <pt x="341" y="707" on="1"/>
        <pt x="437" y="699" on="0"/>
        <pt x="552" y="599" on="0"/>
        <pt x="559" y="511" on="1"/>
        <pt x="408" y="511" on="1"/>
        <pt x="405" y="540" on="0"/>
        <pt x="370" y="583" on="0"/>
        <pt x="341" y="592" on="1"/>
        <pt x="341" y="403" on="1"/>
        <pt x="416" y="384" on="0"/>
        <pt x="503" y="349" on="0"/>
        <pt x="567" y="270" on="0"/>
        <pt x="567" y="201" on="1"/>
      </contour>
      <contour>
        <pt x="199" y="476" on="0"/>
        <pt x="239" y="435" on="0"/>
        <pt x="277" y="422" on="1"/>
        <pt x="277" y="595" on="1"/>
        <pt x="241" y="590" on="0"/>
        <pt x="199" y="546" on="0"/>
        <pt x="199" y="509" on="1"/>
      </contour>
      <contour>
        <pt x="379" y="113" on="0"/>
        <pt x="422" y="161" on="0"/>
        <pt x="422" y="195" on="1"/>
        <pt x="422" y="228" on="0"/>
        <pt x="380" y="268" on="0"/>
        <pt x="341" y="281" on="1"/>
        <pt x="341" y="106" on="1"/>
      </contour>
    </TTGlyph>
    <TTGlyph name="dotaccent" xMin="10" yMin="620" xMax="143" yMax="753">
      <contour>
        <pt x="48" y="620" on="0"/>
        <pt x="10" y="658" on="0"/>
        <pt x="10" y="686" on="1"/>
        <pt x="10" y="714" on="0"/>
        <pt x="48" y="753" on="0"/>
        <pt x="76" y="753" on="1"/>
        <pt x="104" y="753" on="0"/>
        <pt x="143" y="714" on="0"/>
        <pt x="143" y="686" on="1"/>
        <pt x="143" y="658" on="0"/>
        <pt x="104" y="620" on="0"/>
        <pt x="76" y="620" on="1"/>
      </contour>
    </TTGlyph>
    <TTGlyph name="dotlessi" xMin="75" yMin="0" xMax="215" yMax="554">
      <contour>
        <pt x="215" y="554" on="1"/>
        <pt x="215" y="0" on="1"/>
        <pt x="75" y="0" on="1"/>
        <pt x="75" y="554" on="1"/>
      </contour>
    </TTGlyph>
    <TTGlyph name="dottedcircle" xMin="50" yMin="-9" xMax="601" yMax="540">
      <contour>
        <pt x="344" y="479" on="0"/>
        <pt x="320" y="456" on="0"/>
        <pt x="301" y="456" on="1"/>
        <pt x="282" y="456" on="0"/>
        <pt x="258" y="479" on="0"/>
        <pt x="258" y="498" on="1"/>
        <pt x="258" y="517" on="0"/>
        <pt x="282" y="540" on="0"/>
        <pt x="301" y="540" on="1"/>
        <pt x="320" y="540" on="0"/>
        <pt x="344" y="517" on="0"/>
        <pt x="344" y="498" on="1"/>
      </contour>
      <contour>
        <pt x="465" y="464" on="0"/>
        <pt x="441" y="441" on="0"/>
        <pt x="422" y="441" on="1"/>
        <pt x="403" y="441" on="0"/>
        <pt x="379" y="464" on="0"/>
        <pt x="379" y="483" on="1"/>
        <pt x="379" y="502" on="0"/>
        <pt x="403" y="525" on="0"/>
        <pt x="422" y="525" on="1"/>
        <pt x="441" y="525" on="0"/>
        <pt x="465" y="502" on="0"/>
        <pt x="465" y="483" on="1"/>
      </contour>
      <contour>
        <pt x="227" y="437" on="0"/>
        <pt x="203" y="414" on="0"/>
        <pt x="184" y="414" on="1"/>
        <pt x="165" y="414" on="0"/>
        <pt x="141" y="437" on="0"/>
        <pt x="141" y="456" on="1"/>
        <pt x="141" y="475" on="0"/>
        <pt x="165" y="498" on="0"/>
        <pt x="184" y="498" on="1"/>
        <pt x="203" y="498" on="0"/>
        <pt x="227" y="475" on="0"/>
        <pt x="227" y="456" on="1"/>
      </contour>
      <contour>
        <pt x="557" y="390" on="0"/>
        <pt x="533" y="367" on="0"/>
        <pt x="514" y="367" on="1"/>
        <pt x="495" y="367" on="0"/>
        <pt x="471" y="390" on="0"/>
        <pt x="471" y="409" on="1"/>
        <pt x="471" y="428" on="0"/>
        <pt x="495" y="451" on="0"/>
        <pt x="514" y="451" on="1"/>
        <pt x="533" y="451" on="0"/>
        <pt x="557" y="428" on="0"/>
        <pt x="557" y="409" on="1"/>
      </contour>
      <contour>
        <pt x="151" y="338" on="0"/>
        <pt x="127" y="315" on="0"/>
        <pt x="108" y="315" on="1"/>
        <pt x="89" y="315" on="0"/>
        <pt x="65" y="338" on="0"/>
        <pt x="65" y="357" on="1"/>
        <pt x="65" y="376" on="0"/>
        <pt x="89" y="399" on="0"/>
        <pt x="108" y="399" on="1"/>
        <pt x="127" y="399" on="0"/>
        <pt x="151" y="376" on="0"/>
        <pt x="151" y="357" on="1"/>
      </contour>
      <contour>
        <pt x="601" y="276" on="0"/>
        <pt x="577" y="253" on="0"/>
        <pt x="558" y="253" on="1"/>
        <pt x="539" y="253" on="0"/>
        <pt x="515" y="276" on="0"/>
        <pt x="515" y="295" on="1"/>
        <pt x="515" y="314" on="0"/>
        <pt x="539" y="337" on="0"/>
        <pt x="558" y="337" on="1"/>
        <pt x="577" y="337" on="0"/>
        <pt x="601" y="314" on="0"/>
        <pt x="601" y="295" on="1"/>
      </contour>
      <contour>
        <pt x="136" y="217" on="0"/>
        <pt x="112" y="194" on="0"/>
        <pt x="93" y="194" on="1"/>
        <pt x="74" y="194" on="0"/>
        <pt x="50" y="217" on="0"/>
        <pt x="50" y="236" on="1"/>
        <pt x="50" y="255" on="0"/>
        <pt x="74" y="278" on="0"/>
        <pt x="93" y="278" on="1"/>
        <pt x="112" y="278" on="0"/>
        <pt x="136" y="255" on="0"/>
        <pt x="136" y="236" on="1"/>
      </contour>
      <contour>
        <pt x="591" y="156" on="0"/>
        <pt x="567" y="133" on="0"/>
        <pt x="548" y="133" on="1"/>
        <pt x="529" y="133" on="0"/>
        <pt x="505" y="156" on="0"/>
        <pt x="505" y="175" on="1"/>
        <pt x="505" y="194" on="0"/>
        <pt x="529" y="217" on="0"/>
        <pt x="548" y="217" on="1"/>
        <pt x="567" y="217" on="0"/>
        <pt x="591" y="194" on="0"/>
        <pt x="591" y="175" on="1"/>
      </contour>
      <contour>
        <pt x="181" y="104" on="0"/>
        <pt x="157" y="81" on="0"/>
        <pt x="138" y="81" on="1"/>
        <pt x="119" y="81" on="0"/>
        <pt x="95" y="104" on="0"/>
        <pt x="95" y="123" on="1"/>
        <pt x="95" y="142" on="0"/>
        <pt x="119" y="165" on="0"/>
        <pt x="138" y="165" on="1"/>
        <pt x="157" y="165" on="0"/>
        <pt x="181" y="142" on="0"/>
        <pt x="181" y="123" on="1"/>
      </contour>
      <contour>
        <pt x="518" y="60" on="0"/>
        <pt x="494" y="37" on="0"/>
        <pt x="475" y="37" on="1"/>
        <pt x="456" y="37" on="0"/>
        <pt x="432" y="60" on="0"/>
        <pt x="432" y="79" on="1"/>
        <pt x="432" y="98" on="0"/>
        <pt x="456" y="121" on="0"/>
        <pt x="475" y="121" on="1"/>
        <pt x="494" y="121" on="0"/>
        <pt x="518" y="98" on="0"/>
        <pt x="518" y="79" on="1"/>
      </contour>
      <contour>
        <pt x="279" y="28" on="0"/>
        <pt x="255" y="5" on="0"/>
        <pt x="236" y="5" on="1"/>
        <pt x="217" y="5" on="0"/>
        <pt x="193" y="28" on="0"/>
        <pt x="193" y="47" on="1"/>
        <pt x="193" y="66" on="0"/>
        <pt x="217" y="89" on="0"/>
        <pt x="236" y="89" on="1"/>
        <pt x="255" y="89" on="0"/>
        <pt x="279" y="66" on="0"/>
        <pt x="279" y="47" on="1"/>
      </contour>
      <contour>
        <pt x="403" y="14" on="0"/>
        <pt x="379" y="-9" on="0"/>
        <pt x="360" y="-9" on="1"/>
        <pt x="341" y="-9" on="0"/>
        <pt x="317" y="14" on="0"/>
        <pt x="317" y="33" on="1"/>
        <pt x="317" y="52" on="0"/>
        <pt x="341" y="75" on="0"/>
        <pt x="360" y="75" on="1"/>
        <pt x="379" y="75" on="0"/>
        <pt x="403" y="52" on="0"/>
        <pt x="403" y="33" on="1"/>
      </contour>
    </TTGlyph>
    <TTGlyph name="doubledanda" xMin="151" yMin="0" xMax="527" yMax="741">
      <contour>
        <pt x="279" y="741" on="1"/>
        <pt x="279" y="0" on="1"/>
        <pt x="151" y="0" on="1"/>
        <pt x="151" y="741" on="1"/>
      </contour>
      <contour>
        <pt x="527" y="741" on="1"/>
        <pt x="527" y="0" on="1"/>
        <pt x="399" y="0" on="1"/>
        <pt x="399" y="741" on="1"/>
      </contour>
    </TTGlyph>
    <TTGlyph name="dvA" xMin="65" yMin="0" xMax="855" yMax="749">
      <contour>
        <pt x="855" y="740" on="1"/>
        <pt x="855" y="632" on="1"/>
        <pt x="744" y="632" on="1"/>
        <pt x="744" y="0" on="1"/>
        <pt x="615" y="0" on="1"/>
        <pt x="615" y="287" on="1"/>
        <pt x="498" y="288" on="1"/>
        <pt x="501" y="269" on="0"/>
        <pt x="501" y="251" on="1"/>
        <pt x="501" y="163" on="0"/>
        <pt x="389" y="57" on="0"/>
        <pt x="296" y="57" on="1"/>
        <pt x="228" y="57" on="0"/>
        <pt x="123" y="109" on="0"/>
        <pt x="65" y="204" on="0"/>
        <pt x="65" y="265" on="1"/>
        <pt x="186" y="265" on="1"/>
        <pt x="186" y="223" on="0"/>
        <pt x="242" y="168" on="0"/>
        <pt x="287" y="168" on="1"/>
        <pt x="332" y="168" on="0"/>
        <pt x="384" y="221" on="0"/>
        <pt x="384" y="263" on="1"/>
        <pt x="384" y="304" on="0"/>
        <pt x="328" y="361" on="0"/>
        <pt x="273" y="361" on="1"/>
        <pt x="230" y="361" on="1"/>
        <pt x="230" y="465" on="1"/>
        <pt x="273" y="465" on="1"/>
        <pt x="321" y="465" on="0"/>
        <pt x="375" y="515" on="0"/>
        <pt x="375" y="551" on="1"/>
        <pt x="375" y="591" on="0"/>
        <pt x="324" y="640" on="0"/>
        <pt x="286" y="640" on="1"/>
        <pt x="245" y="640" on="0"/>
        <pt x="191" y="592" on="0"/>
        <pt x="191" y="554" on="1"/>
        <pt x="72" y="554" on="1"/>
        <pt x="72" y="612" on="0"/>
        <pt x="126" y="701" on="0"/>
        <pt x="223" y="749" on="0"/>
        <pt x="286" y="749" on="1"/>
        <pt x="378" y="749" on="0"/>
        <pt x="490" y="651" on="0"/>
        <pt x="490" y="569" on="1"/>
        <pt x="490" y="514" on="0"/>
        <pt x="432" y="433" on="0"/>
        <pt x="379" y="417" on="1"/>
        <pt x="379" y="415" on="1"/>
        <pt x="405" y="410" on="0"/>
        <pt x="429" y="394" on="1"/>
        <pt x="615" y="394" on="1"/>
        <pt x="615" y="740" on="1"/>
      </contour>
    </TTGlyph>
    <TTGlyph name="dvAA" xMin="65" yMin="0" xMax="1165" yMax="749">
      <contour>
        <pt x="1165" y="632" on="1"/>
        <pt x="1054" y="632" on="1"/>
        <pt x="1054" y="0" on="1"/>
        <pt x="925" y="0" on="1"/>
        <pt x="925" y="632" on="1"/>
        <pt x="744" y="632" on="1"/>
        <pt x="744" y="0" on="1"/>
        <pt x="615" y="0" on="1"/>
        <pt x="615" y="287" on="1"/>
        <pt x="498" y="288" on="1"/>
        <pt x="501" y="269" on="0"/>
        <pt x="501" y="251" on="1"/>
        <pt x="501" y="163" on="0"/>
        <pt x="389" y="57" on="0"/>
        <pt x="296" y="57" on="1"/>
        <pt x="228" y="57" on="0"/>
        <pt x="123" y="109" on="0"/>
        <pt x="65" y="204" on="0"/>
        <pt x="65" y="265" on="1"/>
        <pt x="186" y="265" on="1"/>
        <pt x="186" y="223" on="0"/>
        <pt x="242" y="168" on="0"/>
        <pt x="287" y="168" on="1"/>
        <pt x="332" y="168" on="0"/>
        <pt x="384" y="221" on="0"/>
        <pt x="384" y="263" on="1"/>
        <pt x="384" y="304" on="0"/>
        <pt x="328" y="361" on="0"/>
        <pt x="273" y="361" on="1"/>
        <pt x="230" y="361" on="1"/>
        <pt x="230" y="465" on="1"/>
        <pt x="273" y="465" on="1"/>
        <pt x="321" y="465" on="0"/>
        <pt x="375" y="515" on="0"/>
        <pt x="375" y="551" on="1"/>
        <pt x="375" y="591" on="0"/>
        <pt x="324" y="640" on="0"/>
        <pt x="286" y="640" on="1"/>
        <pt x="245" y="640" on="0"/>
        <pt x="191" y="592" on="0"/>
        <pt x="191" y="554" on="1"/>
        <pt x="72" y="554" on="1"/>
        <pt x="72" y="612" on="0"/>
        <pt x="126" y="701" on="0"/>
        <pt x="223" y="749" on="0"/>
        <pt x="286" y="749" on="1"/>
        <pt x="378" y="749" on="0"/>
        <pt x="490" y="651" on="0"/>
        <pt x="490" y="569" on="1"/>
        <pt x="490" y="514" on="0"/>
        <pt x="432" y="433" on="0"/>
        <pt x="379" y="417" on="1"/>
        <pt x="379" y="415" on="1"/>
        <pt x="405" y="410" on="0"/>
        <pt x="429" y="394" on="1"/>
        <pt x="615" y="394" on="1"/>
        <pt x="615" y="740" on="1"/>
        <pt x="1165" y="740" on="1"/>
      </contour>
    </TTGlyph>
    <TTGlyph name="dvAI" xMin="-21" yMin="19" xMax="673" yMax="993">
      <contour>
        <pt x="673" y="632" on="1"/>
        <pt x="576" y="632" on="1"/>
        <pt x="576" y="539" on="1"/>
        <pt x="576" y="435" on="0"/>
        <pt x="494" y="329" on="0"/>
        <pt x="400" y="329" on="1"/>
        <pt x="377" y="329" on="0"/>
        <pt x="351" y="332" on="1"/>
        <pt x="351" y="448" on="1"/>
        <pt x="358" y="447" on="0"/>
        <pt x="372" y="447" on="1"/>
        <pt x="413" y="447" on="0"/>
        <pt x="451" y="494" on="0"/>
        <pt x="451" y="543" on="1"/>
        <pt x="451" y="632" on="1"/>
        <pt x="219" y="632" on="1"/>
        <pt x="219" y="266" on="1"/>
        <pt x="219" y="200" on="0"/>
        <pt x="281" y="129" on="0"/>
        <pt x="337" y="129" on="1"/>
        <pt x="390" y="129" on="0"/>
        <pt x="450" y="191" on="0"/>
        <pt x="450" y="246" on="1"/>
        <pt x="576" y="246" on="1"/>
        <pt x="576" y="139" on="0"/>
        <pt x="449" y="19" on="0"/>
        <pt x="340" y="19" on="1"/>
        <pt x="217" y="19" on="0"/>
        <pt x="90" y="155" on="0"/>
        <pt x="90" y="271" on="1"/>
        <pt x="89" y="632" on="1"/>
        <pt x="-21" y="632" on="1"/>
        <pt x="-21" y="740" on="1"/>
        <pt x="447" y="740" on="1"/>
        <pt x="403" y="808" on="0"/>
        <pt x="348" y="869" on="0"/>
        <pt x="292" y="888" on="0"/>
        <pt x="243" y="888" on="1"/>
        <pt x="194" y="888" on="1"/>
        <pt x="194" y="993" on="1"/>
        <pt x="240" y="993" on="1"/>
        <pt x="320" y="992" on="0"/>
        <pt x="413" y="960" on="0"/>
        <pt x="504" y="855" on="0"/>
        <pt x="570" y="740" on="1"/>
        <pt x="673" y="740" on="1"/>
      </contour>
    </TTGlyph>
    <TTGlyph name="dvAU" xMin="65" yMin="0" xMax="1165" yMax="1060">
      <contour>
        <pt x="1165" y="740" on="1"/>
        <pt x="1165" y="632" on="1"/>
        <pt x="1054" y="632" on="1"/>
        <pt x="1054" y="0" on="1"/>
        <pt x="925" y="0" on="1"/>
        <pt x="925" y="632" on="1"/>
        <pt x="744" y="632" on="1"/>
        <pt x="744" y="0" on="1"/>
        <pt x="615" y="0" on="1"/>
        <pt x="615" y="287" on="1"/>
        <pt x="498" y="288" on="1"/>
        <pt x="501" y="269" on="0"/>
        <pt x="501" y="251" on="1"/>
        <pt x="501" y="163" on="0"/>
        <pt x="389" y="57" on="0"/>
        <pt x="296" y="57" on="1"/>
        <pt x="228" y="57" on="0"/>
        <pt x="123" y="109" on="0"/>
        <pt x="65" y="204" on="0"/>
        <pt x="65" y="265" on="1"/>
        <pt x="186" y="265" on="1"/>
        <pt x="186" y="223" on="0"/>
        <pt x="242" y="168" on="0"/>
        <pt x="287" y="168" on="1"/>
        <pt x="332" y="168" on="0"/>
        <pt x="384" y="221" on="0"/>
        <pt x="384" y="263" on="1"/>
        <pt x="384" y="304" on="0"/>
        <pt x="328" y="361" on="0"/>
        <pt x="273" y="361" on="1"/>
        <pt x="230" y="361" on="1"/>
        <pt x="230" y="465" on="1"/>
        <pt x="273" y="465" on="1"/>
        <pt x="321" y="465" on="0"/>
        <pt x="375" y="515" on="0"/>
        <pt x="375" y="551" on="1"/>
        <pt x="375" y="591" on="0"/>
        <pt x="324" y="640" on="0"/>
        <pt x="286" y="640" on="1"/>
        <pt x="245" y="640" on="0"/>
        <pt x="191" y="592" on="0"/>
        <pt x="191" y="554" on="1"/>
        <pt x="72" y="554" on="1"/>
        <pt x="72" y="612" on="0"/>
        <pt x="126" y="701" on="0"/>
        <pt x="223" y="749" on="0"/>
        <pt x="286" y="749" on="1"/>
        <pt x="378" y="749" on="0"/>
        <pt x="490" y="651" on="0"/>
        <pt x="490" y="569" on="1"/>
        <pt x="490" y="514" on="0"/>
        <pt x="432" y="433" on="0"/>
        <pt x="379" y="417" on="1"/>
        <pt x="379" y="415" on="1"/>
        <pt x="405" y="410" on="0"/>
        <pt x="429" y="394" on="1"/>
        <pt x="615" y="394" on="1"/>
        <pt x="615" y="740" on="1"/>
        <pt x="933" y="740" on="1"/>
        <pt x="873" y="781" on="0"/>
        <pt x="820" y="810" on="0"/>
        <pt x="768" y="818" on="0"/>
        <pt x="710" y="818" on="1"/>
        <pt x="660" y="818" on="1"/>
        <pt x="660" y="899" on="1"/>
        <pt x="707" y="899" on="1"/>
        <pt x="763" y="899" on="0"/>
        <pt x="817" y="892" on="0"/>
        <pt x="872" y="865" on="0"/>
        <pt x="913" y="833" on="1"/>
        <pt x="875" y="901" on="0"/>
        <pt x="813" y="963" on="0"/>
        <pt x="758" y="978" on="0"/>
        <pt x="712" y="978" on="1"/>
        <pt x="660" y="978" on="1"/>
        <pt x="660" y="1060" on="1"/>
        <pt x="710" y="1060" on="1"/>
        <pt x="790" y="1060" on="0"/>
        <pt x="873" y="1025" on="0"/>
        <pt x="965" y="896" on="0"/>
        <pt x="1045" y="740" on="1"/>
      </contour>
    </TTGlyph>
    <TTGlyph name="dvAbbreviationsign" xMin="72" yMin="176" xMax="411" yMax="506">
      <contour>
        <pt x="317" y="506" on="0"/>
        <pt x="411" y="413" on="0"/>
        <pt x="411" y="340" on="1"/>
        <pt x="411" y="268" on="0"/>
        <pt x="317" y="176" on="0"/>
        <pt x="243" y="176" on="1"/>
        <pt x="194" y="176" on="0"/>
        <pt x="116" y="218" on="0"/>
        <pt x="72" y="294" on="0"/>
        <pt x="72" y="341" on="1"/>
        <pt x="72" y="414" on="0"/>
        <pt x="168" y="506" on="0"/>
        <pt x="243" y="506" on="1"/>
      </contour>
      <contour>
        <pt x="203" y="429" on="0"/>
        <pt x="151" y="379" on="0"/>
        <pt x="151" y="341" on="1"/>
        <pt x="151" y="302" on="0"/>
        <pt x="203" y="253" on="0"/>
        <pt x="243" y="253" on="1"/>
        <pt x="281" y="253" on="0"/>
        <pt x="331" y="302" on="0"/>
        <pt x="331" y="340" on="1"/>
        <pt x="331" y="378" on="0"/>
        <pt x="281" y="429" on="0"/>
        <pt x="243" y="429" on="1"/>
      </contour>
    </TTGlyph>
    <TTGlyph name="dvAcandra" xMin="65" yMin="0" xMax="913" yMax="1027">
      <component glyphName="dvA" x="0" y="0" flags="0x0"/>
      <component glyphName="dvmEcandra" x="849" y="16" flags="0x4"/>
    </TTGlyph>
    <TTGlyph name="dvAnusvara" xMin="-234" yMin="822" xMax="-78" yMax="977">
      <contour>
        <pt x="-78" y="867" on="0"/>
        <pt x="-123" y="822" on="0"/>
        <pt x="-156" y="822" on="1"/>
        <pt x="-189" y="822" on="0"/>
        <pt x="-234" y="867" on="0"/>
        <pt x="-234" y="899" on="1"/>
        <pt x="-234" y="932" on="0"/>
        <pt x="-189" y="977" on="0"/>
        <pt x="-156" y="977" on="1"/>
        <pt x="-123" y="977" on="0"/>
        <pt x="-78" y="932" on="0"/>
        <pt x="-78" y="899" on="1"/>
      </contour>
    </TTGlyph>
    <TTGlyph name="dvAnusvara.amI" xMin="51" yMin="822" xMax="207" yMax="977">
      <component glyphName="dvAnusvara" x="285" y="0" flags="0x0"/>
    </TTGlyph>
    <TTGlyph name="dvAvagraha" xMin="64" yMin="52" xMax="505" yMax="672">
      <contour>
        <pt x="64" y="52" on="1"/>
        <pt x="64" y="161" on="1"/>
        <pt x="299" y="161" on="1"/>
        <pt x="330" y="161" on="0"/>
        <pt x="364" y="187" on="0"/>
        <pt x="364" y="209" on="1"/>
        <pt x="364" y="235" on="0"/>
        <pt x="320" y="283" on="0"/>
        <pt x="273" y="320" on="1"/>
        <pt x="227" y="357" on="0"/>
        <pt x="167" y="414" on="0"/>
        <pt x="125" y="492" on="0"/>
        <pt x="125" y="538" on="1"/>
        <pt x="125" y="605" on="0"/>
        <pt x="214" y="672" on="0"/>
        <pt x="287" y="672" on="1"/>
        <pt x="505" y="672" on="1"/>
        <pt x="505" y="563" on="1"/>
        <pt x="319" y="563" on="1"/>
        <pt x="291" y="563" on="0"/>
        <pt x="257" y="544" on="0"/>
        <pt x="257" y="518" on="1"/>
        <pt x="257" y="492" on="0"/>
        <pt x="301" y="444" on="0"/>
        <pt x="348" y="407" on="1"/>
        <pt x="394" y="370" on="0"/>
        <pt x="453" y="313" on="0"/>
        <pt x="495" y="235" on="0"/>
        <pt x="495" y="190" on="1"/>
        <pt x="495" y="127" on="0"/>
        <pt x="406" y="52" on="0"/>
        <pt x="331" y="52" on="1"/>
      </contour>
    </TTGlyph>
    <TTGlyph name="dvB" xMin="-21" yMin="70" xMax="580" yMax="740">
      <contour>
        <pt x="580" y="740" on="1"/>
        <pt x="580" y="632" on="1"/>
        <pt x="-21" y="632" on="1"/>
        <pt x="-21" y="740" on="1"/>
      </contour>
      <contour>
        <pt x="403" y="553" on="0"/>
        <pt x="520" y="486" on="0"/>
        <pt x="577" y="377" on="0"/>
        <pt x="577" y="315" on="1"/>
        <pt x="577" y="248" on="0"/>
        <pt x="518" y="136" on="0"/>
        <pt x="402" y="70" on="0"/>
        <pt x="320" y="70" on="1"/>
        <pt x="241" y="70" on="0"/>
        <pt x="123" y="133" on="0"/>
        <pt x="59" y="244" on="0"/>
        <pt x="59" y="314" on="1"/>
        <pt x="59" y="383" on="0"/>
        <pt x="123" y="492" on="0"/>
        <pt x="241" y="553" on="0"/>
        <pt x="319" y="553" on="1"/>
      </contour>
      <contour>
        <pt x="265" y="464" on="0"/>
        <pt x="220" y="429" on="1"/>
        <pt x="458" y="238" on="1"/>
        <pt x="476" y="273" on="0"/>
        <pt x="476" y="311" on="1"/>
        <pt x="476" y="351" on="0"/>
        <pt x="440" y="421" on="0"/>
        <pt x="371" y="464" on="0"/>
        <pt x="323" y="464" on="1"/>
      </contour>
      <contour>
        <pt x="167" y="265" on="0"/>
        <pt x="210" y="196" on="0"/>
        <pt x="281" y="160" on="0"/>
        <pt x="323" y="160" on="1"/>
        <pt x="382" y="160" on="0"/>
        <pt x="424" y="195" on="1"/>
        <pt x="185" y="386" on="1"/>
        <pt x="167" y="352" on="0"/>
        <pt x="167" y="311" on="1"/>
      </contour>
    </TTGlyph>
    <TTGlyph name="dvBA" xMin="-21" yMin="0" xMax="709" yMax="740">
      <contour>
        <pt x="709" y="740" on="1"/>
        <pt x="709" y="632" on="1"/>
        <pt x="599" y="632" on="1"/>
        <pt x="599" y="0" on="1"/>
        <pt x="474" y="0" on="1"/>
        <pt x="474" y="151" on="1"/>
        <pt x="449" y="114" on="0"/>
        <pt x="361" y="71" on="0"/>
        <pt x="303" y="71" on="1"/>
        <pt x="234" y="71" on="0"/>
        <pt x="123" y="132" on="0"/>
        <pt x="59" y="243" on="0"/>
        <pt x="59" y="314" on="1"/>
        <pt x="59" y="384" on="0"/>
        <pt x="122" y="492" on="0"/>
        <pt x="232" y="552" on="0"/>
        <pt x="301" y="552" on="1"/>
        <pt x="358" y="552" on="0"/>
        <pt x="445" y="510" on="0"/>
        <pt x="474" y="474" on="1"/>
        <pt x="474" y="632" on="1"/>
        <pt x="-21" y="632" on="1"/>
        <pt x="-21" y="740" on="1"/>
      </contour>
      <contour>
        <pt x="269" y="467" on="0"/>
        <pt x="227" y="433" on="1"/>
        <pt x="464" y="242" on="1"/>
        <pt x="481" y="278" on="0"/>
        <pt x="481" y="315" on="1"/>
        <pt x="481" y="355" on="0"/>
        <pt x="445" y="425" on="0"/>
        <pt x="376" y="467" on="0"/>
        <pt x="328" y="467" on="1"/>
      </contour>
      <contour>
        <pt x="172" y="268" on="0"/>
        <pt x="214" y="200" on="0"/>
        <pt x="286" y="164" on="0"/>
        <pt x="328" y="164" on="1"/>
        <pt x="388" y="164" on="0"/>
        <pt x="430" y="199" on="1"/>
        <pt x="191" y="390" on="1"/>
        <pt x="172" y="355" on="0"/>
        <pt x="172" y="314" on="1"/>
      </contour>
    </TTGlyph>
    <TTGlyph name="dvBH" xMin="63" yMin="76" xMax="672" yMax="749">
      <contour>
        <pt x="672" y="355" on="1"/>
        <pt x="472" y="355" on="1"/>
        <pt x="472" y="296" on="1"/>
        <pt x="472" y="192" on="0"/>
        <pt x="367" y="76" on="0"/>
        <pt x="270" y="76" on="1"/>
        <pt x="209" y="76" on="0"/>
        <pt x="115" y="124" on="0"/>
        <pt x="63" y="212" on="0"/>
        <pt x="63" y="269" on="1"/>
        <pt x="63" y="361" on="0"/>
        <pt x="183" y="460" on="0"/>
        <pt x="277" y="460" on="1"/>
        <pt x="351" y="460" on="1"/>
        <pt x="351" y="543" on="1"/>
        <pt x="351" y="588" on="0"/>
        <pt x="318" y="639" on="0"/>
        <pt x="283" y="639" on="1"/>
        <pt x="252" y="639" on="0"/>
        <pt x="214" y="595" on="0"/>
        <pt x="214" y="559" on="1"/>
        <pt x="214" y="541" on="0"/>
        <pt x="218" y="525" on="1"/>
        <pt x="88" y="525" on="1"/>
        <pt x="84" y="547" on="0"/>
        <pt x="84" y="564" on="1"/>
        <pt x="84" y="647" on="0"/>
        <pt x="185" y="749" on="0"/>
        <pt x="278" y="749" on="1"/>
        <pt x="380" y="749" on="0"/>
        <pt x="472" y="625" on="0"/>
        <pt x="472" y="520" on="1"/>
        <pt x="472" y="460" on="1"/>
        <pt x="672" y="460" on="1"/>
      </contour>
      <contour>
        <pt x="351" y="355" on="1"/>
        <pt x="280" y="355" on="1"/>
        <pt x="236" y="355" on="0"/>
        <pt x="183" y="310" on="0"/>
        <pt x="183" y="270" on="1"/>
        <pt x="183" y="231" on="0"/>
        <pt x="231" y="185" on="0"/>
        <pt x="268" y="185" on="1"/>
        <pt x="308" y="185" on="0"/>
        <pt x="351" y="241" on="0"/>
        <pt x="351" y="289" on="1"/>
      </contour>
    </TTGlyph>
    <TTGlyph name="dvBHA" xMin="63" yMin="0" xMax="852" yMax="749">
      <contour>
        <pt x="852" y="740" on="1"/>
        <pt x="852" y="632" on="1"/>
        <pt x="740" y="632" on="1"/>
        <pt x="740" y="0" on="1"/>
        <pt x="611" y="0" on="1"/>
        <pt x="611" y="355" on="1"/>
        <pt x="472" y="355" on="1"/>
        <pt x="472" y="296" on="1"/>
        <pt x="472" y="192" on="0"/>
        <pt x="367" y="76" on="0"/>
        <pt x="270" y="76" on="1"/>
        <pt x="209" y="76" on="0"/>
        <pt x="115" y="124" on="0"/>
        <pt x="63" y="212" on="0"/>
        <pt x="63" y="269" on="1"/>
        <pt x="63" y="361" on="0"/>
        <pt x="183" y="460" on="0"/>
        <pt x="277" y="460" on="1"/>
        <pt x="351" y="460" on="1"/>
        <pt x="351" y="543" on="1"/>
        <pt x="351" y="588" on="0"/>
        <pt x="318" y="639" on="0"/>
        <pt x="283" y="639" on="1"/>
        <pt x="252" y="639" on="0"/>
        <pt x="214" y="595" on="0"/>
        <pt x="214" y="559" on="1"/>
        <pt x="214" y="541" on="0"/>
        <pt x="218" y="525" on="1"/>
        <pt x="88" y="525" on="1"/>
        <pt x="84" y="547" on="0"/>
        <pt x="84" y="564" on="1"/>
        <pt x="84" y="647" on="0"/>
        <pt x="185" y="749" on="0"/>
        <pt x="278" y="749" on="1"/>
        <pt x="380" y="749" on="0"/>
        <pt x="472" y="625" on="0"/>
        <pt x="472" y="520" on="1"/>
        <pt x="472" y="460" on="1"/>
        <pt x="611" y="460" on="1"/>
        <pt x="611" y="740" on="1"/>
      </contour>
      <contour>
        <pt x="351" y="355" on="1"/>
        <pt x="280" y="355" on="1"/>
        <pt x="236" y="355" on="0"/>
        <pt x="183" y="310" on="0"/>
        <pt x="183" y="270" on="1"/>
        <pt x="183" y="231" on="0"/>
        <pt x="231" y="185" on="0"/>
        <pt x="268" y="185" on="1"/>
        <pt x="308" y="185" on="0"/>
        <pt x="351" y="241" on="0"/>
        <pt x="351" y="289" on="1"/>
      </contour>
    </TTGlyph>
    <TTGlyph name="dvBH_LA" xMin="63" yMin="44" xMax="1461" yMax="749">
      <contour>
        <pt x="1247" y="632" on="1"/>
        <pt x="1247" y="517" on="1"/>
        <pt x="1308" y="494" on="0"/>
        <pt x="1381" y="379" on="0"/>
        <pt x="1381" y="295" on="1"/>
        <pt x="1381" y="222" on="0"/>
        <pt x="1323" y="108" on="0"/>
        <pt x="1210" y="44" on="0"/>
        <pt x="1130" y="44" on="1"/>
        <pt x="1096" y="46" on="1"/>
        <pt x="1096" y="159" on="1"/>
        <pt x="1124" y="157" on="1"/>
        <pt x="1183" y="157" on="0"/>
        <pt x="1250" y="231" on="0"/>
        <pt x="1250" y="293" on="1"/>
        <pt x="1250" y="348" on="0"/>
        <pt x="1196" y="418" on="0"/>
        <pt x="1146" y="418" on="1"/>
        <pt x="1092" y="418" on="0"/>
        <pt x="1039" y="339" on="0"/>
        <pt x="1039" y="275" on="1"/>
        <pt x="1039" y="254" on="1"/>
        <pt x="932" y="254" on="1"/>
        <pt x="932" y="275" on="1"/>
        <pt x="932" y="338" on="0"/>
        <pt x="880" y="418" on="0"/>
        <pt x="829" y="418" on="1"/>
        <pt x="777" y="418" on="0"/>
        <pt x="721" y="349" on="0"/>
        <pt x="721" y="293" on="1"/>
        <pt x="721" y="231" on="0"/>
        <pt x="788" y="157" on="0"/>
        <pt x="847" y="157" on="1"/>
        <pt x="875" y="159" on="1"/>
        <pt x="875" y="46" on="1"/>
        <pt x="847" y="44" on="0"/>
        <pt x="841" y="44" on="1"/>
        <pt x="761" y="44" on="0"/>
        <pt x="647" y="108" on="0"/>
        <pt x="589" y="222" on="0"/>
        <pt x="589" y="295" on="1"/>
        <pt x="589" y="327" on="0"/>
        <pt x="595" y="355" on="1"/>
        <pt x="472" y="355" on="1"/>
        <pt x="472" y="296" on="1"/>
        <pt x="472" y="192" on="0"/>
        <pt x="367" y="76" on="0"/>
        <pt x="270" y="76" on="1"/>
        <pt x="209" y="76" on="0"/>
        <pt x="115" y="124" on="0"/>
        <pt x="63" y="212" on="0"/>
        <pt x="63" y="269" on="1"/>
        <pt x="63" y="361" on="0"/>
        <pt x="183" y="460" on="0"/>
        <pt x="277" y="460" on="1"/>
        <pt x="351" y="460" on="1"/>
        <pt x="351" y="543" on="1"/>
        <pt x="351" y="588" on="0"/>
        <pt x="318" y="639" on="0"/>
        <pt x="283" y="639" on="1"/>
        <pt x="252" y="639" on="0"/>
        <pt x="214" y="595" on="0"/>
        <pt x="214" y="559" on="1"/>
        <pt x="214" y="541" on="0"/>
        <pt x="218" y="525" on="1"/>
        <pt x="88" y="525" on="1"/>
        <pt x="84" y="547" on="0"/>
        <pt x="84" y="564" on="1"/>
        <pt x="84" y="647" on="0"/>
        <pt x="185" y="749" on="0"/>
        <pt x="278" y="749" on="1"/>
        <pt x="380" y="749" on="0"/>
        <pt x="472" y="625" on="0"/>
        <pt x="472" y="520" on="1"/>
        <pt x="472" y="460" on="1"/>
        <pt x="644" y="460" on="1"/>
        <pt x="674" y="495" on="0"/>
        <pt x="760" y="531" on="0"/>
        <pt x="810" y="531" on="1"/>
        <pt x="879" y="531" on="0"/>
        <pt x="965" y="460" on="0"/>
        <pt x="984" y="406" on="1"/>
        <pt x="988" y="406" on="1"/>
        <pt x="1004" y="452" on="0"/>
        <pt x="1069" y="516" on="0"/>
        <pt x="1121" y="527" on="1"/>
        <pt x="1121" y="632" on="1"/>
        <pt x="575" y="632" on="1"/>
        <pt x="575" y="740" on="1"/>
        <pt x="1461" y="740" on="1"/>
        <pt x="1461" y="632" on="1"/>
      </contour>
      <contour>
        <pt x="351" y="355" on="1"/>
        <pt x="280" y="355" on="1"/>
        <pt x="236" y="355" on="0"/>
        <pt x="183" y="310" on="0"/>
        <pt x="183" y="270" on="1"/>
        <pt x="183" y="231" on="0"/>
        <pt x="231" y="185" on="0"/>
        <pt x="268" y="185" on="1"/>
        <pt x="308" y="185" on="0"/>
        <pt x="351" y="241" on="0"/>
        <pt x="351" y="289" on="1"/>
      </contour>
    </TTGlyph>
    <TTGlyph name="dvBH_NA" xMin="63" yMin="0" xMax="1365" yMax="749">
      <contour>
        <pt x="1365" y="632" on="1"/>
        <pt x="1254" y="632" on="1"/>
        <pt x="1254" y="0" on="1"/>
        <pt x="1125" y="0" on="1"/>
        <pt x="1125" y="391" on="1"/>
        <pt x="974" y="391" on="1"/>
        <pt x="1009" y="343" on="0"/>
        <pt x="1009" y="276" on="1"/>
        <pt x="1009" y="217" on="0"/>
        <pt x="955" y="131" on="0"/>
        <pt x="863" y="87" on="0"/>
        <pt x="806" y="87" on="1"/>
        <pt x="746" y="87" on="0"/>
        <pt x="647" y="137" on="0"/>
        <pt x="589" y="230" on="0"/>
        <pt x="589" y="293" on="1"/>
        <pt x="589" y="325" on="0"/>
        <pt x="597" y="355" on="1"/>
        <pt x="472" y="355" on="1"/>
        <pt x="472" y="296" on="1"/>
        <pt x="472" y="192" on="0"/>
        <pt x="367" y="76" on="0"/>
        <pt x="270" y="76" on="1"/>
        <pt x="209" y="76" on="0"/>
        <pt x="115" y="124" on="0"/>
        <pt x="63" y="212" on="0"/>
        <pt x="63" y="269" on="1"/>
        <pt x="63" y="361" on="0"/>
        <pt x="183" y="460" on="0"/>
        <pt x="277" y="460" on="1"/>
        <pt x="351" y="460" on="1"/>
        <pt x="351" y="543" on="1"/>
        <pt x="351" y="588" on="0"/>
        <pt x="318" y="639" on="0"/>
        <pt x="283" y="639" on="1"/>
        <pt x="252" y="639" on="0"/>
        <pt x="214" y="595" on="0"/>
        <pt x="214" y="559" on="1"/>
        <pt x="214" y="541" on="0"/>
        <pt x="218" y="525" on="1"/>
        <pt x="88" y="525" on="1"/>
        <pt x="84" y="547" on="0"/>
        <pt x="84" y="564" on="1"/>
        <pt x="84" y="647" on="0"/>
        <pt x="185" y="749" on="0"/>
        <pt x="278" y="749" on="1"/>
        <pt x="380" y="749" on="0"/>
        <pt x="472" y="625" on="0"/>
        <pt x="472" y="520" on="1"/>
        <pt x="472" y="460" on="1"/>
        <pt x="673" y="460" on="1"/>
        <pt x="732" y="499" on="0"/>
        <pt x="816" y="499" on="1"/>
        <pt x="1125" y="499" on="1"/>
        <pt x="1125" y="632" on="1"/>
        <pt x="589" y="632" on="1"/>
        <pt x="589" y="740" on="1"/>
        <pt x="1365" y="740" on="1"/>
      </contour>
      <contour>
        <pt x="851" y="196" on="0"/>
        <pt x="907" y="251" on="0"/>
        <pt x="907" y="294" on="1"/>
        <pt x="907" y="336" on="0"/>
        <pt x="851" y="391" on="0"/>
        <pt x="808" y="391" on="1"/>
        <pt x="763" y="391" on="0"/>
        <pt x="706" y="336" on="0"/>
        <pt x="706" y="293" on="1"/>
        <pt x="706" y="250" on="0"/>
        <pt x="762" y="196" on="0"/>
        <pt x="808" y="196" on="1"/>
      </contour>
      <contour>
        <pt x="351" y="355" on="1"/>
        <pt x="280" y="355" on="1"/>
        <pt x="236" y="355" on="0"/>
        <pt x="183" y="310" on="0"/>
        <pt x="183" y="270" on="1"/>
        <pt x="183" y="231" on="0"/>
        <pt x="231" y="185" on="0"/>
        <pt x="268" y="185" on="1"/>
        <pt x="308" y="185" on="0"/>
        <pt x="351" y="241" on="0"/>
        <pt x="351" y="289" on="1"/>
      </contour>
    </TTGlyph>
    <TTGlyph name="dvBH_R" xMin="63" yMin="-83" xMax="673" yMax="749">
      <contour>
        <pt x="673" y="465" on="1"/>
        <pt x="673" y="362" on="1"/>
        <pt x="469" y="362" on="1"/>
        <pt x="469" y="316" on="1"/>
        <pt x="469" y="216" on="0"/>
        <pt x="364" y="97" on="0"/>
        <pt x="269" y="97" on="1"/>
        <pt x="177" y="97" on="0"/>
        <pt x="63" y="198" on="0"/>
        <pt x="63" y="281" on="1"/>
        <pt x="63" y="370" on="0"/>
        <pt x="183" y="465" on="0"/>
        <pt x="277" y="465" on="1"/>
        <pt x="353" y="465" on="1"/>
        <pt x="353" y="543" on="1"/>
        <pt x="353" y="639" on="0"/>
        <pt x="280" y="639" on="1"/>
        <pt x="249" y="639" on="0"/>
        <pt x="211" y="596" on="0"/>
        <pt x="211" y="560" on="1"/>
        <pt x="211" y="547" on="0"/>
        <pt x="214" y="527" on="1"/>
        <pt x="88" y="527" on="1"/>
        <pt x="84" y="553" on="0"/>
        <pt x="84" y="567" on="1"/>
        <pt x="84" y="648" on="0"/>
        <pt x="185" y="749" on="0"/>
        <pt x="278" y="749" on="1"/>
        <pt x="378" y="749" on="0"/>
        <pt x="469" y="625" on="0"/>
        <pt x="469" y="520" on="1"/>
        <pt x="469" y="465" on="1"/>
      </contour>
      <contour>
        <pt x="353" y="362" on="1"/>
        <pt x="278" y="362" on="1"/>
        <pt x="236" y="362" on="0"/>
        <pt x="182" y="318" on="0"/>
        <pt x="182" y="281" on="1"/>
        <pt x="182" y="246" on="0"/>
        <pt x="230" y="204" on="0"/>
        <pt x="268" y="204" on="1"/>
        <pt x="310" y="204" on="0"/>
        <pt x="353" y="259" on="0"/>
        <pt x="353" y="308" on="1"/>
      </contour>
      <contour>
        <pt x="271" y="-83" on="1"/>
        <pt x="673" y="296" on="1"/>
        <pt x="673" y="179" on="1"/>
        <pt x="413" y="-83" on="1"/>
      </contour>
    </TTGlyph>
    <TTGlyph name="dvBH_RA" xMin="63" yMin="-83" xMax="872" yMax="749">
      <contour>
        <pt x="872" y="740" on="1"/>
        <pt x="872" y="632" on="1"/>
        <pt x="760" y="632" on="1"/>
        <pt x="760" y="0" on="1"/>
        <pt x="643" y="0" on="1"/>
        <pt x="643" y="148" on="1"/>
        <pt x="413" y="-83" on="1"/>
        <pt x="271" y="-83" on="1"/>
        <pt x="637" y="264" on="1"/>
        <pt x="637" y="362" on="1"/>
        <pt x="469" y="362" on="1"/>
        <pt x="469" y="316" on="1"/>
        <pt x="469" y="216" on="0"/>
        <pt x="364" y="97" on="0"/>
        <pt x="269" y="97" on="1"/>
        <pt x="177" y="97" on="0"/>
        <pt x="63" y="198" on="0"/>
        <pt x="63" y="281" on="1"/>
        <pt x="63" y="370" on="0"/>
        <pt x="183" y="465" on="0"/>
        <pt x="277" y="465" on="1"/>
        <pt x="353" y="465" on="1"/>
        <pt x="353" y="543" on="1"/>
        <pt x="353" y="639" on="0"/>
        <pt x="280" y="639" on="1"/>
        <pt x="249" y="639" on="0"/>
        <pt x="211" y="596" on="0"/>
        <pt x="211" y="560" on="1"/>
        <pt x="211" y="547" on="0"/>
        <pt x="214" y="527" on="1"/>
        <pt x="88" y="527" on="1"/>
        <pt x="84" y="553" on="0"/>
        <pt x="84" y="567" on="1"/>
        <pt x="84" y="648" on="0"/>
        <pt x="185" y="749" on="0"/>
        <pt x="278" y="749" on="1"/>
        <pt x="378" y="749" on="0"/>
        <pt x="469" y="625" on="0"/>
        <pt x="469" y="520" on="1"/>
        <pt x="469" y="465" on="1"/>
        <pt x="637" y="465" on="1"/>
        <pt x="637" y="740" on="1"/>
      </contour>
      <contour>
        <pt x="353" y="362" on="1"/>
        <pt x="278" y="362" on="1"/>
        <pt x="236" y="362" on="0"/>
        <pt x="182" y="318" on="0"/>
        <pt x="182" y="281" on="1"/>
        <pt x="182" y="246" on="0"/>
        <pt x="230" y="204" on="0"/>
        <pt x="268" y="204" on="1"/>
        <pt x="310" y="204" on="0"/>
        <pt x="353" y="259" on="0"/>
        <pt x="353" y="308" on="1"/>
      </contour>
    </TTGlyph>
    <TTGlyph name="dvBH_R_YA" xMin="63" yMin="-83" xMax="1288" yMax="749">
      <contour>
        <pt x="1288" y="632" on="1"/>
        <pt x="1176" y="632" on="1"/>
        <pt x="1176" y="0" on="1"/>
        <pt x="1047" y="0" on="1"/>
        <pt x="1047" y="179" on="1"/>
        <pt x="1016" y="139" on="0"/>
        <pt x="914" y="93" on="0"/>
        <pt x="845" y="93" on="1"/>
        <pt x="729" y="93" on="0"/>
        <pt x="658" y="159" on="1"/>
        <pt x="413" y="-83" on="1"/>
        <pt x="271" y="-83" on="1"/>
        <pt x="605" y="233" on="1"/>
        <pt x="580" y="287" on="0"/>
        <pt x="577" y="362" on="1"/>
        <pt x="469" y="362" on="1"/>
        <pt x="469" y="316" on="1"/>
        <pt x="469" y="216" on="0"/>
        <pt x="364" y="97" on="0"/>
        <pt x="269" y="97" on="1"/>
        <pt x="177" y="97" on="0"/>
        <pt x="63" y="198" on="0"/>
        <pt x="63" y="281" on="1"/>
        <pt x="63" y="367" on="0"/>
        <pt x="183" y="460" on="0"/>
        <pt x="277" y="460" on="1"/>
        <pt x="353" y="460" on="1"/>
        <pt x="353" y="543" on="1"/>
        <pt x="353" y="639" on="0"/>
        <pt x="280" y="639" on="1"/>
        <pt x="249" y="639" on="0"/>
        <pt x="211" y="596" on="0"/>
        <pt x="211" y="560" on="1"/>
        <pt x="211" y="547" on="0"/>
        <pt x="214" y="527" on="1"/>
        <pt x="88" y="527" on="1"/>
        <pt x="84" y="553" on="0"/>
        <pt x="84" y="567" on="1"/>
        <pt x="84" y="648" on="0"/>
        <pt x="185" y="749" on="0"/>
        <pt x="278" y="749" on="1"/>
        <pt x="378" y="749" on="0"/>
        <pt x="469" y="625" on="0"/>
        <pt x="469" y="520" on="1"/>
        <pt x="469" y="460" on="1"/>
        <pt x="621" y="460" on="1"/>
        <pt x="689" y="460" on="0"/>
        <pt x="753" y="511" on="0"/>
        <pt x="753" y="578" on="1"/>
        <pt x="753" y="632" on="1"/>
        <pt x="577" y="632" on="1"/>
        <pt x="577" y="740" on="1"/>
        <pt x="1288" y="740" on="1"/>
      </contour>
      <contour>
        <pt x="1047" y="632" on="1"/>
        <pt x="880" y="632" on="1"/>
        <pt x="880" y="555" on="1"/>
        <pt x="880" y="376" on="0"/>
        <pt x="705" y="362" on="1"/>
        <pt x="705" y="289" on="0"/>
        <pt x="794" y="201" on="0"/>
        <pt x="874" y="201" on="1"/>
        <pt x="951" y="201" on="0"/>
        <pt x="1047" y="297" on="0"/>
        <pt x="1047" y="372" on="1"/>
      </contour>
      <contour>
        <pt x="353" y="362" on="1"/>
        <pt x="278" y="362" on="1"/>
        <pt x="236" y="362" on="0"/>
        <pt x="182" y="318" on="0"/>
        <pt x="182" y="281" on="1"/>
        <pt x="182" y="246" on="0"/>
        <pt x="230" y="204" on="0"/>
        <pt x="268" y="204" on="1"/>
        <pt x="310" y="204" on="0"/>
        <pt x="353" y="259" on="0"/>
        <pt x="353" y="308" on="1"/>
      </contour>
    </TTGlyph>
    <TTGlyph name="dvBH_VA" xMin="63" yMin="0" xMax="1218" yMax="749">
      <contour>
        <pt x="1218" y="740" on="1"/>
        <pt x="1218" y="632" on="1"/>
        <pt x="1108" y="632" on="1"/>
        <pt x="1108" y="0" on="1"/>
        <pt x="981" y="0" on="1"/>
        <pt x="981" y="158" on="1"/>
        <pt x="955" y="119" on="0"/>
        <pt x="869" y="75" on="0"/>
        <pt x="813" y="75" on="1"/>
        <pt x="745" y="75" on="0"/>
        <pt x="642" y="136" on="0"/>
        <pt x="587" y="244" on="0"/>
        <pt x="587" y="314" on="1"/>
        <pt x="587" y="336" on="0"/>
        <pt x="590" y="355" on="1"/>
        <pt x="472" y="355" on="1"/>
        <pt x="472" y="296" on="1"/>
        <pt x="472" y="192" on="0"/>
        <pt x="367" y="76" on="0"/>
        <pt x="270" y="76" on="1"/>
        <pt x="209" y="76" on="0"/>
        <pt x="115" y="124" on="0"/>
        <pt x="63" y="212" on="0"/>
        <pt x="63" y="269" on="1"/>
        <pt x="63" y="361" on="0"/>
        <pt x="183" y="460" on="0"/>
        <pt x="277" y="460" on="1"/>
        <pt x="351" y="460" on="1"/>
        <pt x="351" y="543" on="1"/>
        <pt x="351" y="588" on="0"/>
        <pt x="318" y="639" on="0"/>
        <pt x="283" y="639" on="1"/>
        <pt x="252" y="639" on="0"/>
        <pt x="214" y="595" on="0"/>
        <pt x="214" y="559" on="1"/>
        <pt x="214" y="541" on="0"/>
        <pt x="218" y="525" on="1"/>
        <pt x="88" y="525" on="1"/>
        <pt x="84" y="547" on="0"/>
        <pt x="84" y="564" on="1"/>
        <pt x="84" y="647" on="0"/>
        <pt x="185" y="749" on="0"/>
        <pt x="278" y="749" on="1"/>
        <pt x="380" y="749" on="0"/>
        <pt x="472" y="625" on="0"/>
        <pt x="472" y="520" on="1"/>
        <pt x="472" y="460" on="1"/>
        <pt x="631" y="460" on="1"/>
        <pt x="661" y="501" on="0"/>
        <pt x="754" y="546" on="0"/>
        <pt x="813" y="546" on="1"/>
        <pt x="869" y="546" on="0"/>
        <pt x="955" y="503" on="0"/>
        <pt x="981" y="464" on="1"/>
        <pt x="981" y="632" on="1"/>
        <pt x="579" y="632" on="1"/>
        <pt x="579" y="740" on="1"/>
      </contour>
      <contour>
        <pt x="890" y="178" on="0"/>
        <pt x="951" y="216" on="0"/>
        <pt x="981" y="276" on="0"/>
        <pt x="981" y="309" on="1"/>
        <pt x="981" y="310" on="1"/>
        <pt x="981" y="364" on="0"/>
        <pt x="911" y="442" on="0"/>
        <pt x="847" y="442" on="1"/>
        <pt x="789" y="442" on="0"/>
        <pt x="713" y="369" on="0"/>
        <pt x="713" y="311" on="1"/>
        <pt x="713" y="251" on="0"/>
        <pt x="788" y="178" on="0"/>
        <pt x="847" y="178" on="1"/>
      </contour>
      <contour>
        <pt x="351" y="355" on="1"/>
        <pt x="280" y="355" on="1"/>
        <pt x="236" y="355" on="0"/>
        <pt x="183" y="310" on="0"/>
        <pt x="183" y="270" on="1"/>
        <pt x="183" y="231" on="0"/>
        <pt x="231" y="185" on="0"/>
        <pt x="268" y="185" on="1"/>
        <pt x="308" y="185" on="0"/>
        <pt x="351" y="241" on="0"/>
        <pt x="351" y="289" on="1"/>
      </contour>
    </TTGlyph>
    <TTGlyph name="dvBH_YA" xMin="63" yMin="0" xMax="1288" yMax="749">
      <contour>
        <pt x="1288" y="632" on="1"/>
        <pt x="1176" y="632" on="1"/>
        <pt x="1176" y="0" on="1"/>
        <pt x="1047" y="0" on="1"/>
        <pt x="1047" y="179" on="1"/>
        <pt x="1016" y="139" on="0"/>
        <pt x="914" y="93" on="0"/>
        <pt x="845" y="93" on="1"/>
        <pt x="724" y="93" on="0"/>
        <pt x="583" y="233" on="0"/>
        <pt x="577" y="355" on="1"/>
        <pt x="472" y="355" on="1"/>
        <pt x="472" y="296" on="1"/>
        <pt x="472" y="192" on="0"/>
        <pt x="367" y="76" on="0"/>
        <pt x="270" y="76" on="1"/>
        <pt x="209" y="76" on="0"/>
        <pt x="115" y="124" on="0"/>
        <pt x="63" y="212" on="0"/>
        <pt x="63" y="269" on="1"/>
        <pt x="63" y="361" on="0"/>
        <pt x="183" y="460" on="0"/>
        <pt x="277" y="460" on="1"/>
        <pt x="351" y="460" on="1"/>
        <pt x="351" y="543" on="1"/>
        <pt x="351" y="588" on="0"/>
        <pt x="318" y="639" on="0"/>
        <pt x="283" y="639" on="1"/>
        <pt x="252" y="639" on="0"/>
        <pt x="214" y="595" on="0"/>
        <pt x="214" y="559" on="1"/>
        <pt x="214" y="541" on="0"/>
        <pt x="218" y="525" on="1"/>
        <pt x="88" y="525" on="1"/>
        <pt x="84" y="547" on="0"/>
        <pt x="84" y="564" on="1"/>
        <pt x="84" y="647" on="0"/>
        <pt x="185" y="749" on="0"/>
        <pt x="278" y="749" on="1"/>
        <pt x="380" y="749" on="0"/>
        <pt x="472" y="625" on="0"/>
        <pt x="472" y="520" on="1"/>
        <pt x="472" y="460" on="1"/>
        <pt x="621" y="460" on="1"/>
        <pt x="689" y="460" on="0"/>
        <pt x="753" y="511" on="0"/>
        <pt x="753" y="578" on="1"/>
        <pt x="753" y="632" on="1"/>
        <pt x="577" y="632" on="1"/>
        <pt x="577" y="740" on="1"/>
        <pt x="1288" y="740" on="1"/>
      </contour>
      <contour>
        <pt x="1047" y="632" on="1"/>
        <pt x="880" y="632" on="1"/>
        <pt x="880" y="555" on="1"/>
        <pt x="880" y="376" on="0"/>
        <pt x="705" y="362" on="1"/>
        <pt x="705" y="289" on="0"/>
        <pt x="794" y="201" on="0"/>
        <pt x="874" y="201" on="1"/>
        <pt x="951" y="201" on="0"/>
        <pt x="1047" y="297" on="0"/>
        <pt x="1047" y="372" on="1"/>
      </contour>
      <contour>
        <pt x="351" y="355" on="1"/>
        <pt x="280" y="355" on="1"/>
        <pt x="236" y="355" on="0"/>
        <pt x="183" y="310" on="0"/>
        <pt x="183" y="270" on="1"/>
        <pt x="183" y="231" on="0"/>
        <pt x="231" y="185" on="0"/>
        <pt x="268" y="185" on="1"/>
        <pt x="308" y="185" on="0"/>
        <pt x="351" y="241" on="0"/>
        <pt x="351" y="289" on="1"/>
      </contour>
    </TTGlyph>
    <TTGlyph name="dvB_BA" xMin="-21" yMin="0" xMax="1125" yMax="740">
      <contour>
        <pt x="1125" y="632" on="1"/>
        <pt x="1015" y="632" on="1"/>
        <pt x="1015" y="0" on="1"/>
        <pt x="891" y="0" on="1"/>
        <pt x="891" y="152" on="1"/>
        <pt x="866" y="115" on="0"/>
        <pt x="777" y="71" on="0"/>
        <pt x="719" y="71" on="1"/>
        <pt x="659" y="71" on="0"/>
        <pt x="559" y="118" on="0"/>
        <pt x="527" y="161" on="1"/>
        <pt x="493" y="118" on="0"/>
        <pt x="389" y="70" on="0"/>
        <pt x="320" y="70" on="1"/>
        <pt x="241" y="70" on="0"/>
        <pt x="123" y="133" on="0"/>
        <pt x="59" y="244" on="0"/>
        <pt x="59" y="314" on="1"/>
        <pt x="59" y="383" on="0"/>
        <pt x="123" y="492" on="0"/>
        <pt x="241" y="553" on="0"/>
        <pt x="319" y="553" on="1"/>
        <pt x="390" y="553" on="0"/>
        <pt x="494" y="506" on="0"/>
        <pt x="526" y="464" on="1"/>
        <pt x="558" y="506" on="0"/>
        <pt x="658" y="552" on="0"/>
        <pt x="718" y="552" on="1"/>
        <pt x="774" y="552" on="0"/>
        <pt x="863" y="509" on="0"/>
        <pt x="891" y="473" on="1"/>
        <pt x="891" y="632" on="1"/>
        <pt x="-21" y="632" on="1"/>
        <pt x="-21" y="740" on="1"/>
        <pt x="1125" y="740" on="1"/>
      </contour>
      <contour>
        <pt x="685" y="467" on="0"/>
        <pt x="643" y="433" on="1"/>
        <pt x="880" y="242" on="1"/>
        <pt x="898" y="275" on="0"/>
        <pt x="898" y="315" on="1"/>
        <pt x="898" y="355" on="0"/>
        <pt x="862" y="425" on="0"/>
        <pt x="792" y="467" on="0"/>
        <pt x="744" y="467" on="1"/>
      </contour>
      <contour>
        <pt x="265" y="464" on="0"/>
        <pt x="220" y="429" on="1"/>
        <pt x="458" y="238" on="1"/>
        <pt x="476" y="273" on="0"/>
        <pt x="476" y="311" on="1"/>
        <pt x="476" y="351" on="0"/>
        <pt x="440" y="421" on="0"/>
        <pt x="371" y="464" on="0"/>
        <pt x="323" y="464" on="1"/>
      </contour>
      <contour>
        <pt x="589" y="268" on="0"/>
        <pt x="631" y="200" on="0"/>
        <pt x="703" y="164" on="0"/>
        <pt x="746" y="164" on="1"/>
        <pt x="806" y="164" on="0"/>
        <pt x="846" y="199" on="1"/>
        <pt x="607" y="389" on="1"/>
        <pt x="589" y="355" on="0"/>
        <pt x="589" y="314" on="1"/>
      </contour>
      <contour>
        <pt x="167" y="265" on="0"/>
        <pt x="210" y="196" on="0"/>
        <pt x="281" y="160" on="0"/>
        <pt x="323" y="160" on="1"/>
        <pt x="382" y="160" on="0"/>
        <pt x="424" y="195" on="1"/>
        <pt x="185" y="386" on="1"/>
        <pt x="167" y="352" on="0"/>
        <pt x="167" y="311" on="1"/>
      </contour>
    </TTGlyph>
    <TTGlyph name="dvB_BHA" xMin="-21" yMin="0" xMax="1262" yMax="749">
      <contour>
        <pt x="1262" y="740" on="1"/>
        <pt x="1262" y="632" on="1"/>
        <pt x="1151" y="632" on="1"/>
        <pt x="1151" y="0" on="1"/>
        <pt x="1021" y="0" on="1"/>
        <pt x="1021" y="355" on="1"/>
        <pt x="882" y="355" on="1"/>
        <pt x="882" y="296" on="1"/>
        <pt x="882" y="191" on="0"/>
        <pt x="778" y="76" on="0"/>
        <pt x="680" y="76" on="1"/>
        <pt x="626" y="76" on="0"/>
        <pt x="542" y="112" on="0"/>
        <pt x="515" y="146" on="1"/>
        <pt x="481" y="110" on="0"/>
        <pt x="383" y="70" on="0"/>
        <pt x="320" y="70" on="1"/>
        <pt x="241" y="70" on="0"/>
        <pt x="123" y="133" on="0"/>
        <pt x="59" y="244" on="0"/>
        <pt x="59" y="314" on="1"/>
        <pt x="59" y="383" on="0"/>
        <pt x="123" y="492" on="0"/>
        <pt x="241" y="553" on="0"/>
        <pt x="319" y="553" on="1"/>
        <pt x="405" y="553" on="0"/>
        <pt x="523" y="482" on="0"/>
        <pt x="552" y="424" on="1"/>
        <pt x="606" y="460" on="0"/>
        <pt x="686" y="460" on="1"/>
        <pt x="761" y="460" on="1"/>
        <pt x="761" y="543" on="1"/>
        <pt x="761" y="588" on="0"/>
        <pt x="728" y="639" on="0"/>
        <pt x="693" y="639" on="1"/>
        <pt x="680" y="639" on="0"/>
        <pt x="664" y="632" on="1"/>
        <pt x="618" y="633" on="1"/>
        <pt x="618" y="632" on="1"/>
        <pt x="-21" y="632" on="1"/>
        <pt x="-21" y="740" on="1"/>
        <pt x="622" y="740" on="1"/>
        <pt x="651" y="749" on="0"/>
        <pt x="688" y="749" on="1"/>
        <pt x="790" y="749" on="0"/>
        <pt x="882" y="625" on="0"/>
        <pt x="882" y="520" on="1"/>
        <pt x="882" y="460" on="1"/>
        <pt x="1021" y="460" on="1"/>
        <pt x="1021" y="740" on="1"/>
      </contour>
      <contour>
        <pt x="265" y="464" on="0"/>
        <pt x="220" y="429" on="1"/>
        <pt x="458" y="238" on="1"/>
        <pt x="476" y="273" on="0"/>
        <pt x="476" y="311" on="1"/>
        <pt x="476" y="351" on="0"/>
        <pt x="440" y="421" on="0"/>
        <pt x="371" y="464" on="0"/>
        <pt x="323" y="464" on="1"/>
      </contour>
      <contour>
        <pt x="167" y="265" on="0"/>
        <pt x="210" y="196" on="0"/>
        <pt x="281" y="160" on="0"/>
        <pt x="323" y="160" on="1"/>
        <pt x="382" y="160" on="0"/>
        <pt x="424" y="195" on="1"/>
        <pt x="185" y="386" on="1"/>
        <pt x="167" y="352" on="0"/>
        <pt x="167" y="311" on="1"/>
      </contour>
      <contour>
        <pt x="761" y="355" on="1"/>
        <pt x="690" y="355" on="1"/>
        <pt x="647" y="355" on="0"/>
        <pt x="593" y="310" on="0"/>
        <pt x="593" y="270" on="1"/>
        <pt x="593" y="231" on="0"/>
        <pt x="641" y="185" on="0"/>
        <pt x="678" y="185" on="1"/>
        <pt x="718" y="185" on="0"/>
        <pt x="761" y="241" on="0"/>
        <pt x="761" y="289" on="1"/>
      </contour>
    </TTGlyph>
    <TTGlyph name="dvB_BH_RA" xMin="-21" yMin="-83" xMax="1283" yMax="749">
      <contour>
        <pt x="1283" y="740" on="1"/>
        <pt x="1283" y="632" on="1"/>
        <pt x="1172" y="632" on="1"/>
        <pt x="1172" y="0" on="1"/>
        <pt x="1056" y="0" on="1"/>
        <pt x="1056" y="150" on="1"/>
        <pt x="824" y="-83" on="1"/>
        <pt x="683" y="-83" on="1"/>
        <pt x="1048" y="264" on="1"/>
        <pt x="1048" y="362" on="1"/>
        <pt x="882" y="362" on="1"/>
        <pt x="882" y="316" on="1"/>
        <pt x="882" y="216" on="0"/>
        <pt x="775" y="97" on="0"/>
        <pt x="681" y="97" on="1"/>
        <pt x="631" y="97" on="0"/>
        <pt x="550" y="127" on="0"/>
        <pt x="523" y="156" on="1"/>
        <pt x="489" y="115" on="0"/>
        <pt x="387" y="70" on="0"/>
        <pt x="320" y="70" on="1"/>
        <pt x="241" y="70" on="0"/>
        <pt x="123" y="133" on="0"/>
        <pt x="59" y="244" on="0"/>
        <pt x="59" y="314" on="1"/>
        <pt x="59" y="383" on="0"/>
        <pt x="123" y="492" on="0"/>
        <pt x="241" y="553" on="0"/>
        <pt x="319" y="553" on="1"/>
        <pt x="404" y="553" on="0"/>
        <pt x="520" y="485" on="0"/>
        <pt x="549" y="428" on="1"/>
        <pt x="604" y="465" on="0"/>
        <pt x="688" y="465" on="1"/>
        <pt x="764" y="465" on="1"/>
        <pt x="764" y="543" on="1"/>
        <pt x="764" y="588" on="0"/>
        <pt x="729" y="639" on="0"/>
        <pt x="693" y="639" on="1"/>
        <pt x="675" y="639" on="0"/>
        <pt x="662" y="632" on="1"/>
        <pt x="-21" y="632" on="1"/>
        <pt x="-21" y="740" on="1"/>
        <pt x="622" y="740" on="1"/>
        <pt x="651" y="749" on="0"/>
        <pt x="689" y="749" on="1"/>
        <pt x="790" y="749" on="0"/>
        <pt x="882" y="625" on="0"/>
        <pt x="882" y="520" on="1"/>
        <pt x="882" y="465" on="1"/>
        <pt x="1048" y="465" on="1"/>
        <pt x="1048" y="740" on="1"/>
      </contour>
      <contour>
        <pt x="265" y="464" on="0"/>
        <pt x="220" y="429" on="1"/>
        <pt x="458" y="238" on="1"/>
        <pt x="476" y="273" on="0"/>
        <pt x="476" y="311" on="1"/>
        <pt x="476" y="351" on="0"/>
        <pt x="440" y="421" on="0"/>
        <pt x="371" y="464" on="0"/>
        <pt x="323" y="464" on="1"/>
      </contour>
      <contour>
        <pt x="167" y="265" on="0"/>
        <pt x="210" y="196" on="0"/>
        <pt x="281" y="160" on="0"/>
        <pt x="323" y="160" on="1"/>
        <pt x="382" y="160" on="0"/>
        <pt x="424" y="195" on="1"/>
        <pt x="185" y="386" on="1"/>
        <pt x="167" y="352" on="0"/>
        <pt x="167" y="311" on="1"/>
      </contour>
      <contour>
        <pt x="764" y="362" on="1"/>
        <pt x="688" y="362" on="1"/>
        <pt x="646" y="362" on="0"/>
        <pt x="594" y="319" on="0"/>
        <pt x="594" y="281" on="1"/>
        <pt x="594" y="246" on="0"/>
        <pt x="641" y="204" on="0"/>
        <pt x="678" y="204" on="1"/>
        <pt x="721" y="204" on="0"/>
        <pt x="764" y="259" on="0"/>
        <pt x="764" y="308" on="1"/>
      </contour>
    </TTGlyph>
    <TTGlyph name="dvB_DA" xMin="-21" yMin="-27" xMax="1049" yMax="740">
      <contour>
        <pt x="690" y="430" on="0"/>
        <pt x="608" y="362" on="0"/>
        <pt x="608" y="301" on="1"/>
        <pt x="608" y="246" on="0"/>
        <pt x="674" y="181" on="0"/>
        <pt x="729" y="181" on="1"/>
        <pt x="774" y="181" on="0"/>
        <pt x="839" y="237" on="0"/>
        <pt x="839" y="289" on="1"/>
        <pt x="958" y="289" on="1"/>
        <pt x="958" y="-27" on="1"/>
        <pt x="832" y="-27" on="1"/>
        <pt x="832" y="138" on="1"/>
        <pt x="810" y="109" on="0"/>
        <pt x="738" y="78" on="0"/>
        <pt x="692" y="78" on="1"/>
        <pt x="640" y="78" on="0"/>
        <pt x="552" y="117" on="0"/>
        <pt x="522" y="155" on="1"/>
        <pt x="489" y="115" on="0"/>
        <pt x="387" y="70" on="0"/>
        <pt x="320" y="70" on="1"/>
        <pt x="241" y="70" on="0"/>
        <pt x="123" y="133" on="0"/>
        <pt x="59" y="244" on="0"/>
        <pt x="59" y="314" on="1"/>
        <pt x="59" y="383" on="0"/>
        <pt x="123" y="492" on="0"/>
        <pt x="241" y="553" on="0"/>
        <pt x="319" y="553" on="1"/>
        <pt x="392" y="553" on="0"/>
        <pt x="498" y="503" on="0"/>
        <pt x="530" y="460" on="1"/>
        <pt x="567" y="499" on="0"/>
        <pt x="677" y="541" on="0"/>
        <pt x="743" y="541" on="1"/>
        <pt x="793" y="541" on="1"/>
        <pt x="793" y="632" on="1"/>
        <pt x="-21" y="632" on="1"/>
        <pt x="-21" y="740" on="1"/>
        <pt x="1049" y="740" on="1"/>
        <pt x="1048" y="632" on="1"/>
        <pt x="923" y="632" on="1"/>
        <pt x="923" y="430" on="1"/>
        <pt x="756" y="430" on="1"/>
      </contour>
      <contour>
        <pt x="265" y="464" on="0"/>
        <pt x="220" y="429" on="1"/>
        <pt x="458" y="238" on="1"/>
        <pt x="476" y="273" on="0"/>
        <pt x="476" y="311" on="1"/>
        <pt x="476" y="351" on="0"/>
        <pt x="440" y="421" on="0"/>
        <pt x="371" y="464" on="0"/>
        <pt x="323" y="464" on="1"/>
      </contour>
      <contour>
        <pt x="167" y="265" on="0"/>
        <pt x="210" y="196" on="0"/>
        <pt x="281" y="160" on="0"/>
        <pt x="323" y="160" on="1"/>
        <pt x="382" y="160" on="0"/>
        <pt x="424" y="195" on="1"/>
        <pt x="185" y="386" on="1"/>
        <pt x="167" y="352" on="0"/>
        <pt x="167" y="311" on="1"/>
      </contour>
    </TTGlyph>
    <TTGlyph name="dvB_DHA" xMin="-21" yMin="0" xMax="1149" yMax="749">
      <contour>
        <pt x="1149" y="632" on="1"/>
        <pt x="1040" y="632" on="1"/>
        <pt x="1040" y="0" on="1"/>
        <pt x="911" y="0" on="1"/>
        <pt x="911" y="185" on="1"/>
        <pt x="879" y="137" on="0"/>
        <pt x="770" y="85" on="0"/>
        <pt x="698" y="85" on="1"/>
        <pt x="639" y="85" on="0"/>
        <pt x="542" y="122" on="0"/>
        <pt x="512" y="158" on="1"/>
        <pt x="480" y="116" on="0"/>
        <pt x="380" y="70" on="0"/>
        <pt x="318" y="70" on="1"/>
        <pt x="248" y="70" on="0"/>
        <pt x="130" y="127" on="0"/>
        <pt x="60" y="236" on="0"/>
        <pt x="60" y="311" on="1"/>
        <pt x="60" y="383" on="0"/>
        <pt x="125" y="493" on="0"/>
        <pt x="240" y="554" on="0"/>
        <pt x="313" y="554" on="1"/>
        <pt x="354" y="554" on="0"/>
        <pt x="385" y="545" on="1"/>
        <pt x="385" y="459" on="1"/>
        <pt x="355" y="467" on="0"/>
        <pt x="325" y="467" on="1"/>
        <pt x="295" y="467" on="0"/>
        <pt x="239" y="447" on="0"/>
        <pt x="218" y="429" on="1"/>
        <pt x="458" y="235" on="1"/>
        <pt x="472" y="260" on="0"/>
        <pt x="477" y="293" on="1"/>
        <pt x="478" y="293" on="1"/>
        <pt x="487" y="341" on="0"/>
        <pt x="553" y="400" on="0"/>
        <pt x="593" y="408" on="1"/>
        <pt x="593" y="412" on="1"/>
        <pt x="540" y="426" on="0"/>
        <pt x="468" y="510" on="0"/>
        <pt x="468" y="577" on="1"/>
        <pt x="468" y="605" on="0"/>
        <pt x="476" y="632" on="1"/>
        <pt x="-21" y="632" on="1"/>
        <pt x="-21" y="740" on="1"/>
        <pt x="586" y="740" on="1"/>
        <pt x="615" y="749" on="0"/>
        <pt x="649" y="749" on="1"/>
        <pt x="731" y="749" on="0"/>
        <pt x="824" y="658" on="0"/>
        <pt x="824" y="584" on="1"/>
        <pt x="824" y="568" on="0"/>
        <pt x="822" y="546" on="1"/>
        <pt x="726" y="546" on="1"/>
        <pt x="727" y="568" on="1"/>
        <pt x="727" y="600" on="0"/>
        <pt x="687" y="641" on="0"/>
        <pt x="653" y="641" on="1"/>
        <pt x="619" y="641" on="0"/>
        <pt x="578" y="597" on="0"/>
        <pt x="578" y="563" on="1"/>
        <pt x="578" y="515" on="0"/>
        <pt x="655" y="464" on="0"/>
        <pt x="714" y="464" on="1"/>
        <pt x="773" y="464" on="1"/>
        <pt x="773" y="360" on="1"/>
        <pt x="720" y="360" on="1"/>
        <pt x="666" y="360" on="0"/>
        <pt x="607" y="316" on="0"/>
        <pt x="607" y="278" on="1"/>
        <pt x="607" y="236" on="0"/>
        <pt x="674" y="192" on="0"/>
        <pt x="730" y="192" on="1"/>
        <pt x="811" y="192" on="0"/>
        <pt x="911" y="294" on="0"/>
        <pt x="911" y="377" on="1"/>
        <pt x="911" y="740" on="1"/>
        <pt x="1149" y="740" on="1"/>
      </contour>
      <contour>
        <pt x="167" y="262" on="0"/>
        <pt x="210" y="195" on="0"/>
        <pt x="283" y="159" on="0"/>
        <pt x="327" y="159" on="1"/>
        <pt x="384" y="159" on="0"/>
        <pt x="423" y="193" on="1"/>
        <pt x="185" y="385" on="1"/>
        <pt x="167" y="352" on="0"/>
        <pt x="167" y="308" on="1"/>
      </contour>
    </TTGlyph>
    <TTGlyph name="dvB_DH_VA" xMin="-21" yMin="0" xMax="1545" yMax="749">
      <contour>
        <pt x="1545" y="740" on="1"/>
        <pt x="1545" y="632" on="1"/>
        <pt x="1435" y="632" on="1"/>
        <pt x="1435" y="0" on="1"/>
        <pt x="1308" y="0" on="1"/>
        <pt x="1308" y="158" on="1"/>
        <pt x="1282" y="119" on="0"/>
        <pt x="1196" y="75" on="0"/>
        <pt x="1140" y="75" on="1"/>
        <pt x="1068" y="75" on="0"/>
        <pt x="964" y="140" on="0"/>
        <pt x="938" y="198" on="1"/>
        <pt x="875" y="84" on="0"/>
        <pt x="715" y="84" on="1"/>
        <pt x="647" y="84" on="0"/>
        <pt x="542" y="121" on="0"/>
        <pt x="512" y="158" on="1"/>
        <pt x="479" y="116" on="0"/>
        <pt x="380" y="70" on="0"/>
        <pt x="318" y="70" on="1"/>
        <pt x="248" y="70" on="0"/>
        <pt x="130" y="127" on="0"/>
        <pt x="60" y="236" on="0"/>
        <pt x="60" y="311" on="1"/>
        <pt x="60" y="383" on="0"/>
        <pt x="125" y="493" on="0"/>
        <pt x="240" y="554" on="0"/>
        <pt x="313" y="554" on="1"/>
        <pt x="354" y="554" on="0"/>
        <pt x="385" y="545" on="1"/>
        <pt x="385" y="459" on="1"/>
        <pt x="355" y="467" on="0"/>
        <pt x="325" y="467" on="1"/>
        <pt x="295" y="467" on="0"/>
        <pt x="239" y="447" on="0"/>
        <pt x="218" y="429" on="1"/>
        <pt x="458" y="235" on="1"/>
        <pt x="472" y="260" on="0"/>
        <pt x="477" y="293" on="1"/>
        <pt x="478" y="293" on="1"/>
        <pt x="487" y="341" on="0"/>
        <pt x="553" y="400" on="0"/>
        <pt x="593" y="408" on="1"/>
        <pt x="593" y="412" on="1"/>
        <pt x="540" y="426" on="0"/>
        <pt x="468" y="510" on="0"/>
        <pt x="468" y="577" on="1"/>
        <pt x="468" y="605" on="0"/>
        <pt x="476" y="632" on="1"/>
        <pt x="-21" y="632" on="1"/>
        <pt x="-21" y="740" on="1"/>
        <pt x="586" y="740" on="1"/>
        <pt x="615" y="749" on="0"/>
        <pt x="649" y="749" on="1"/>
        <pt x="731" y="749" on="0"/>
        <pt x="824" y="658" on="0"/>
        <pt x="824" y="584" on="1"/>
        <pt x="824" y="568" on="0"/>
        <pt x="822" y="546" on="1"/>
        <pt x="726" y="546" on="1"/>
        <pt x="727" y="568" on="1"/>
        <pt x="727" y="600" on="0"/>
        <pt x="687" y="641" on="0"/>
        <pt x="653" y="641" on="1"/>
        <pt x="619" y="641" on="0"/>
        <pt x="578" y="597" on="0"/>
        <pt x="578" y="563" on="1"/>
        <pt x="578" y="515" on="0"/>
        <pt x="655" y="464" on="0"/>
        <pt x="714" y="464" on="1"/>
        <pt x="773" y="464" on="1"/>
        <pt x="773" y="360" on="1"/>
        <pt x="720" y="360" on="1"/>
        <pt x="666" y="360" on="0"/>
        <pt x="607" y="316" on="0"/>
        <pt x="607" y="278" on="1"/>
        <pt x="607" y="234" on="0"/>
        <pt x="682" y="192" on="0"/>
        <pt x="739" y="192" on="1"/>
        <pt x="811" y="192" on="0"/>
        <pt x="903" y="264" on="0"/>
        <pt x="915" y="336" on="1"/>
        <pt x="919" y="397" on="0"/>
        <pt x="977" y="493" on="0"/>
        <pt x="1076" y="546" on="0"/>
        <pt x="1140" y="546" on="1"/>
        <pt x="1196" y="546" on="0"/>
        <pt x="1283" y="503" on="0"/>
        <pt x="1308" y="464" on="1"/>
        <pt x="1308" y="632" on="1"/>
        <pt x="926" y="632" on="1"/>
        <pt x="926" y="740" on="1"/>
      </contour>
      <contour>
        <pt x="1218" y="178" on="0"/>
        <pt x="1278" y="216" on="0"/>
        <pt x="1308" y="276" on="0"/>
        <pt x="1308" y="309" on="1"/>
        <pt x="1308" y="310" on="1"/>
        <pt x="1308" y="364" on="0"/>
        <pt x="1239" y="442" on="0"/>
        <pt x="1175" y="442" on="1"/>
        <pt x="1116" y="442" on="0"/>
        <pt x="1040" y="370" on="0"/>
        <pt x="1040" y="311" on="1"/>
        <pt x="1040" y="251" on="0"/>
        <pt x="1116" y="178" on="0"/>
        <pt x="1175" y="178" on="1"/>
      </contour>
      <contour>
        <pt x="167" y="262" on="0"/>
        <pt x="210" y="195" on="0"/>
        <pt x="283" y="159" on="0"/>
        <pt x="327" y="159" on="1"/>
        <pt x="384" y="159" on="0"/>
        <pt x="423" y="193" on="1"/>
        <pt x="185" y="385" on="1"/>
        <pt x="167" y="352" on="0"/>
        <pt x="167" y="308" on="1"/>
      </contour>
    </TTGlyph>
    <TTGlyph name="dvB_JA" xMin="-21" yMin="0" xMax="1267" yMax="740">
      <contour>
        <pt x="1267" y="632" on="1"/>
        <pt x="1156" y="632" on="1"/>
        <pt x="1156" y="0" on="1"/>
        <pt x="1027" y="0" on="1"/>
        <pt x="1027" y="382" on="1"/>
        <pt x="883" y="382" on="1"/>
        <pt x="883" y="327" on="1"/>
        <pt x="883" y="230" on="0"/>
        <pt x="775" y="112" on="0"/>
        <pt x="678" y="112" on="1"/>
        <pt x="583" y="112" on="0"/>
        <pt x="534" y="167" on="1"/>
        <pt x="500" y="122" on="0"/>
        <pt x="390" y="70" on="0"/>
        <pt x="320" y="70" on="1"/>
        <pt x="241" y="70" on="0"/>
        <pt x="123" y="133" on="0"/>
        <pt x="59" y="244" on="0"/>
        <pt x="59" y="314" on="1"/>
        <pt x="59" y="383" on="0"/>
        <pt x="123" y="492" on="0"/>
        <pt x="241" y="553" on="0"/>
        <pt x="319" y="553" on="1"/>
        <pt x="401" y="553" on="0"/>
        <pt x="518" y="490" on="0"/>
        <pt x="581" y="387" on="0"/>
        <pt x="584" y="327" on="1"/>
        <pt x="584" y="326" on="1"/>
        <pt x="585" y="280" on="0"/>
        <pt x="630" y="225" on="0"/>
        <pt x="670" y="225" on="1"/>
        <pt x="711" y="225" on="0"/>
        <pt x="757" y="282" on="0"/>
        <pt x="757" y="330" on="1"/>
        <pt x="757" y="492" on="1"/>
        <pt x="1027" y="492" on="1"/>
        <pt x="1027" y="632" on="1"/>
        <pt x="-21" y="632" on="1"/>
        <pt x="-21" y="740" on="1"/>
        <pt x="1267" y="740" on="1"/>
      </contour>
      <contour>
        <pt x="265" y="464" on="0"/>
        <pt x="220" y="429" on="1"/>
        <pt x="458" y="238" on="1"/>
        <pt x="476" y="273" on="0"/>
        <pt x="476" y="311" on="1"/>
        <pt x="476" y="351" on="0"/>
        <pt x="440" y="421" on="0"/>
        <pt x="371" y="464" on="0"/>
        <pt x="323" y="464" on="1"/>
      </contour>
      <contour>
        <pt x="167" y="265" on="0"/>
        <pt x="210" y="196" on="0"/>
        <pt x="281" y="160" on="0"/>
        <pt x="323" y="160" on="1"/>
        <pt x="382" y="160" on="0"/>
        <pt x="424" y="195" on="1"/>
        <pt x="185" y="386" on="1"/>
        <pt x="167" y="352" on="0"/>
        <pt x="167" y="311" on="1"/>
      </contour>
    </TTGlyph>
    <TTGlyph name="dvB_JHA" xMin="-21" yMin="-81" xMax="1355" yMax="740">
      <contour>
        <pt x="1355" y="632" on="1"/>
        <pt x="1245" y="632" on="1"/>
        <pt x="1245" y="0" on="1"/>
        <pt x="1118" y="0" on="1"/>
        <pt x="1118" y="232" on="1"/>
        <pt x="970" y="232" on="1"/>
        <pt x="997" y="195" on="0"/>
        <pt x="997" y="140" on="1"/>
        <pt x="997" y="73" on="0"/>
        <pt x="910" y="-12" on="0"/>
        <pt x="830" y="-12" on="1"/>
        <pt x="774" y="-12" on="0"/>
        <pt x="705" y="27" on="0"/>
        <pt x="686" y="50" on="1"/>
        <pt x="686" y="-81" on="1"/>
        <pt x="569" y="-81" on="1"/>
        <pt x="569" y="170" on="1"/>
        <pt x="679" y="170" on="1"/>
        <pt x="684" y="132" on="0"/>
        <pt x="742" y="83" on="0"/>
        <pt x="790" y="83" on="1"/>
        <pt x="834" y="83" on="0"/>
        <pt x="878" y="124" on="0"/>
        <pt x="878" y="156" on="1"/>
        <pt x="878" y="194" on="0"/>
        <pt x="824" y="238" on="0"/>
        <pt x="771" y="238" on="1"/>
        <pt x="659" y="238" on="1"/>
        <pt x="601" y="240" on="0"/>
        <pt x="560" y="264" on="1"/>
        <pt x="540" y="177" on="0"/>
        <pt x="418" y="70" on="0"/>
        <pt x="320" y="70" on="1"/>
        <pt x="241" y="70" on="0"/>
        <pt x="123" y="133" on="0"/>
        <pt x="59" y="244" on="0"/>
        <pt x="59" y="314" on="1"/>
        <pt x="59" y="383" on="0"/>
        <pt x="123" y="492" on="0"/>
        <pt x="241" y="553" on="0"/>
        <pt x="319" y="553" on="1"/>
        <pt x="361" y="553" on="0"/>
        <pt x="402" y="542" on="1"/>
        <pt x="402" y="454" on="1"/>
        <pt x="363" y="466" on="0"/>
        <pt x="325" y="466" on="1"/>
        <pt x="263" y="466" on="0"/>
        <pt x="219" y="430" on="1"/>
        <pt x="460" y="237" on="1"/>
        <pt x="490" y="288" on="0"/>
        <pt x="490" y="355" on="1"/>
        <pt x="490" y="389" on="1"/>
        <pt x="490" y="466" on="0"/>
        <pt x="594" y="542" on="0"/>
        <pt x="673" y="542" on="1"/>
        <pt x="799" y="542" on="1"/>
        <pt x="799" y="632" on="1"/>
        <pt x="-21" y="632" on="1"/>
        <pt x="-21" y="740" on="1"/>
        <pt x="1355" y="740" on="1"/>
      </contour>
      <contour>
        <pt x="1118" y="329" on="1"/>
        <pt x="1118" y="632" on="1"/>
        <pt x="923" y="632" on="1"/>
        <pt x="923" y="449" on="1"/>
        <pt x="704" y="449" on="1"/>
        <pt x="667" y="449" on="0"/>
        <pt x="617" y="422" on="0"/>
        <pt x="617" y="388" on="1"/>
        <pt x="617" y="358" on="0"/>
        <pt x="660" y="329" on="0"/>
        <pt x="696" y="329" on="1"/>
        <pt x="795" y="329" on="1"/>
      </contour>
      <contour>
        <pt x="167" y="265" on="0"/>
        <pt x="210" y="196" on="0"/>
        <pt x="281" y="160" on="0"/>
        <pt x="323" y="160" on="1"/>
        <pt x="384" y="160" on="0"/>
        <pt x="424" y="195" on="1"/>
        <pt x="184" y="387" on="1"/>
        <pt x="167" y="353" on="0"/>
        <pt x="167" y="311" on="1"/>
      </contour>
    </TTGlyph>
    <TTGlyph name="dvB_J_YA" xMin="-21" yMin="0" xMax="1721" yMax="740">
      <contour>
        <pt x="1721" y="632" on="1"/>
        <pt x="1611" y="632" on="1"/>
        <pt x="1611" y="0" on="1"/>
        <pt x="1481" y="0" on="1"/>
        <pt x="1481" y="178" on="1"/>
        <pt x="1450" y="138" on="0"/>
        <pt x="1348" y="93" on="0"/>
        <pt x="1281" y="93" on="1"/>
        <pt x="1165" y="93" on="0"/>
        <pt x="1026" y="229" on="0"/>
        <pt x="1014" y="348" on="1"/>
        <pt x="883" y="348" on="1"/>
        <pt x="883" y="327" on="1"/>
        <pt x="883" y="230" on="0"/>
        <pt x="775" y="112" on="0"/>
        <pt x="678" y="112" on="1"/>
        <pt x="583" y="112" on="0"/>
        <pt x="534" y="167" on="1"/>
        <pt x="500" y="122" on="0"/>
        <pt x="390" y="70" on="0"/>
        <pt x="320" y="70" on="1"/>
        <pt x="241" y="70" on="0"/>
        <pt x="123" y="133" on="0"/>
        <pt x="59" y="244" on="0"/>
        <pt x="59" y="314" on="1"/>
        <pt x="59" y="383" on="0"/>
        <pt x="123" y="492" on="0"/>
        <pt x="241" y="553" on="0"/>
        <pt x="319" y="553" on="1"/>
        <pt x="401" y="553" on="0"/>
        <pt x="518" y="490" on="0"/>
        <pt x="581" y="387" on="0"/>
        <pt x="584" y="327" on="1"/>
        <pt x="584" y="326" on="1"/>
        <pt x="585" y="280" on="0"/>
        <pt x="630" y="225" on="0"/>
        <pt x="670" y="225" on="1"/>
        <pt x="711" y="225" on="0"/>
        <pt x="757" y="282" on="0"/>
        <pt x="757" y="330" on="1"/>
        <pt x="757" y="455" on="1"/>
        <pt x="1028" y="455" on="1"/>
        <pt x="1112" y="455" on="0"/>
        <pt x="1187" y="515" on="0"/>
        <pt x="1187" y="578" on="1"/>
        <pt x="1187" y="632" on="1"/>
        <pt x="-21" y="632" on="1"/>
        <pt x="-21" y="740" on="1"/>
        <pt x="1721" y="740" on="1"/>
      </contour>
      <contour>
        <pt x="1481" y="632" on="1"/>
        <pt x="1314" y="632" on="1"/>
        <pt x="1314" y="555" on="1"/>
        <pt x="1314" y="475" on="0"/>
        <pt x="1224" y="377" on="0"/>
        <pt x="1140" y="367" on="1"/>
        <pt x="1142" y="291" on="0"/>
        <pt x="1230" y="201" on="0"/>
        <pt x="1307" y="201" on="1"/>
        <pt x="1385" y="201" on="0"/>
        <pt x="1481" y="296" on="0"/>
        <pt x="1481" y="372" on="1"/>
      </contour>
      <contour>
        <pt x="265" y="464" on="0"/>
        <pt x="220" y="429" on="1"/>
        <pt x="458" y="238" on="1"/>
        <pt x="476" y="273" on="0"/>
        <pt x="476" y="311" on="1"/>
        <pt x="476" y="351" on="0"/>
        <pt x="440" y="421" on="0"/>
        <pt x="371" y="464" on="0"/>
        <pt x="323" y="464" on="1"/>
      </contour>
      <contour>
        <pt x="167" y="265" on="0"/>
        <pt x="210" y="196" on="0"/>
        <pt x="281" y="160" on="0"/>
        <pt x="323" y="160" on="1"/>
        <pt x="382" y="160" on="0"/>
        <pt x="424" y="195" on="1"/>
        <pt x="185" y="386" on="1"/>
        <pt x="167" y="352" on="0"/>
        <pt x="167" y="311" on="1"/>
      </contour>
    </TTGlyph>
    <TTGlyph name="dvB_JxA" xMin="-21" yMin="-109" xMax="1267" yMax="740">
      <component glyphName="dvB_JA" x="0" y="0" flags="0x0"/>
      <component glyphName="dvNukta" x="983" y="110" flags="0x4"/>
    </TTGlyph>
    <TTGlyph name="dvB_LA" xMin="-21" yMin="44" xMax="1331" yMax="740">
      <contour>
        <pt x="1119" y="632" on="1"/>
        <pt x="1119" y="516" on="1"/>
        <pt x="1180" y="493" on="0"/>
        <pt x="1252" y="379" on="0"/>
        <pt x="1252" y="295" on="1"/>
        <pt x="1252" y="222" on="0"/>
        <pt x="1194" y="108" on="0"/>
        <pt x="1081" y="44" on="0"/>
        <pt x="1001" y="44" on="1"/>
        <pt x="993" y="44" on="0"/>
        <pt x="967" y="46" on="1"/>
        <pt x="967" y="159" on="1"/>
        <pt x="994" y="157" on="1"/>
        <pt x="1053" y="157" on="0"/>
        <pt x="1121" y="231" on="0"/>
        <pt x="1121" y="293" on="1"/>
        <pt x="1121" y="348" on="0"/>
        <pt x="1066" y="418" on="0"/>
        <pt x="1016" y="418" on="1"/>
        <pt x="963" y="418" on="0"/>
        <pt x="910" y="339" on="0"/>
        <pt x="910" y="275" on="1"/>
        <pt x="910" y="254" on="1"/>
        <pt x="802" y="254" on="1"/>
        <pt x="802" y="275" on="1"/>
        <pt x="802" y="338" on="0"/>
        <pt x="751" y="418" on="0"/>
        <pt x="700" y="418" on="1"/>
        <pt x="648" y="418" on="0"/>
        <pt x="591" y="349" on="0"/>
        <pt x="591" y="293" on="1"/>
        <pt x="591" y="231" on="0"/>
        <pt x="659" y="157" on="0"/>
        <pt x="718" y="157" on="1"/>
        <pt x="745" y="159" on="1"/>
        <pt x="745" y="46" on="1"/>
        <pt x="719" y="44" on="0"/>
        <pt x="711" y="44" on="1"/>
        <pt x="644" y="44" on="0"/>
        <pt x="544" y="97" on="0"/>
        <pt x="515" y="146" on="1"/>
        <pt x="482" y="110" on="0"/>
        <pt x="383" y="70" on="0"/>
        <pt x="320" y="70" on="1"/>
        <pt x="241" y="70" on="0"/>
        <pt x="123" y="133" on="0"/>
        <pt x="59" y="244" on="0"/>
        <pt x="59" y="314" on="1"/>
        <pt x="59" y="383" on="0"/>
        <pt x="123" y="492" on="0"/>
        <pt x="241" y="553" on="0"/>
        <pt x="319" y="553" on="1"/>
        <pt x="390" y="553" on="0"/>
        <pt x="496" y="505" on="0"/>
        <pt x="528" y="462" on="1"/>
        <pt x="556" y="496" on="0"/>
        <pt x="635" y="531" on="0"/>
        <pt x="681" y="531" on="1"/>
        <pt x="750" y="531" on="0"/>
        <pt x="835" y="461" on="0"/>
        <pt x="854" y="406" on="1"/>
        <pt x="858" y="406" on="1"/>
        <pt x="874" y="452" on="0"/>
        <pt x="939" y="516" on="0"/>
        <pt x="991" y="527" on="1"/>
        <pt x="991" y="632" on="1"/>
        <pt x="-21" y="632" on="1"/>
        <pt x="-21" y="740" on="1"/>
        <pt x="1331" y="740" on="1"/>
        <pt x="1331" y="632" on="1"/>
      </contour>
      <contour>
        <pt x="265" y="464" on="0"/>
        <pt x="220" y="429" on="1"/>
        <pt x="458" y="238" on="1"/>
        <pt x="476" y="273" on="0"/>
        <pt x="476" y="311" on="1"/>
        <pt x="476" y="351" on="0"/>
        <pt x="440" y="421" on="0"/>
        <pt x="371" y="464" on="0"/>
        <pt x="323" y="464" on="1"/>
      </contour>
      <contour>
        <pt x="167" y="265" on="0"/>
        <pt x="210" y="196" on="0"/>
        <pt x="281" y="160" on="0"/>
        <pt x="323" y="160" on="1"/>
        <pt x="382" y="160" on="0"/>
        <pt x="424" y="195" on="1"/>
        <pt x="185" y="386" on="1"/>
        <pt x="167" y="352" on="0"/>
        <pt x="167" y="311" on="1"/>
      </contour>
    </TTGlyph>
    <TTGlyph name="dvB_L_YA" xMin="-21" yMin="0" xMax="1822" yMax="740">
      <contour>
        <pt x="1822" y="632" on="1"/>
        <pt x="1711" y="632" on="1"/>
        <pt x="1711" y="0" on="1"/>
        <pt x="1582" y="0" on="1"/>
        <pt x="1582" y="179" on="1"/>
        <pt x="1551" y="139" on="0"/>
        <pt x="1450" y="93" on="0"/>
        <pt x="1381" y="93" on="1"/>
        <pt x="1257" y="93" on="0"/>
        <pt x="1117" y="232" on="0"/>
        <pt x="1112" y="351" on="1"/>
        <pt x="1103" y="379" on="0"/>
        <pt x="1057" y="418" on="0"/>
        <pt x="1019" y="418" on="1"/>
        <pt x="964" y="418" on="0"/>
        <pt x="910" y="340" on="0"/>
        <pt x="910" y="275" on="1"/>
        <pt x="910" y="254" on="1"/>
        <pt x="802" y="254" on="1"/>
        <pt x="802" y="275" on="1"/>
        <pt x="802" y="338" on="0"/>
        <pt x="751" y="418" on="0"/>
        <pt x="700" y="418" on="1"/>
        <pt x="648" y="418" on="0"/>
        <pt x="591" y="349" on="0"/>
        <pt x="591" y="293" on="1"/>
        <pt x="591" y="231" on="0"/>
        <pt x="659" y="157" on="0"/>
        <pt x="718" y="157" on="1"/>
        <pt x="745" y="159" on="1"/>
        <pt x="745" y="46" on="1"/>
        <pt x="719" y="44" on="0"/>
        <pt x="711" y="44" on="1"/>
        <pt x="644" y="44" on="0"/>
        <pt x="544" y="97" on="0"/>
        <pt x="515" y="146" on="1"/>
        <pt x="482" y="110" on="0"/>
        <pt x="383" y="70" on="0"/>
        <pt x="320" y="70" on="1"/>
        <pt x="241" y="70" on="0"/>
        <pt x="123" y="133" on="0"/>
        <pt x="59" y="244" on="0"/>
        <pt x="59" y="314" on="1"/>
        <pt x="59" y="383" on="0"/>
        <pt x="123" y="492" on="0"/>
        <pt x="241" y="553" on="0"/>
        <pt x="319" y="553" on="1"/>
        <pt x="390" y="553" on="0"/>
        <pt x="496" y="505" on="0"/>
        <pt x="528" y="462" on="1"/>
        <pt x="556" y="496" on="0"/>
        <pt x="635" y="531" on="0"/>
        <pt x="681" y="531" on="1"/>
        <pt x="750" y="531" on="0"/>
        <pt x="835" y="461" on="0"/>
        <pt x="854" y="406" on="1"/>
        <pt x="858" y="406" on="1"/>
        <pt x="877" y="461" on="0"/>
        <pt x="963" y="531" on="0"/>
        <pt x="1035" y="531" on="1"/>
        <pt x="1089" y="531" on="0"/>
        <pt x="1176" y="478" on="0"/>
        <pt x="1200" y="431" on="1"/>
        <pt x="1245" y="444" on="0"/>
        <pt x="1288" y="513" on="0"/>
        <pt x="1288" y="569" on="1"/>
        <pt x="1288" y="632" on="1"/>
        <pt x="-21" y="632" on="1"/>
        <pt x="-21" y="740" on="1"/>
        <pt x="1822" y="740" on="1"/>
      </contour>
      <contour>
        <pt x="1582" y="632" on="1"/>
        <pt x="1415" y="632" on="1"/>
        <pt x="1415" y="546" on="1"/>
        <pt x="1415" y="368" on="0"/>
        <pt x="1240" y="354" on="1"/>
        <pt x="1240" y="285" on="0"/>
        <pt x="1329" y="201" on="0"/>
        <pt x="1408" y="201" on="1"/>
        <pt x="1486" y="201" on="0"/>
        <pt x="1582" y="297" on="0"/>
        <pt x="1582" y="372" on="1"/>
      </contour>
      <contour>
        <pt x="265" y="464" on="0"/>
        <pt x="220" y="429" on="1"/>
        <pt x="458" y="238" on="1"/>
        <pt x="476" y="273" on="0"/>
        <pt x="476" y="311" on="1"/>
        <pt x="476" y="351" on="0"/>
        <pt x="440" y="421" on="0"/>
        <pt x="371" y="464" on="0"/>
        <pt x="323" y="464" on="1"/>
      </contour>
      <contour>
        <pt x="167" y="265" on="0"/>
        <pt x="210" y="196" on="0"/>
        <pt x="281" y="160" on="0"/>
        <pt x="323" y="160" on="1"/>
        <pt x="382" y="160" on="0"/>
        <pt x="424" y="195" on="1"/>
        <pt x="185" y="386" on="1"/>
        <pt x="167" y="352" on="0"/>
        <pt x="167" y="311" on="1"/>
      </contour>
    </TTGlyph>
    <TTGlyph name="dvB_NA" xMin="-21" yMin="0" xMax="1252" yMax="740">
      <contour>
        <pt x="1252" y="632" on="1"/>
        <pt x="1141" y="632" on="1"/>
        <pt x="1141" y="0" on="1"/>
        <pt x="1012" y="0" on="1"/>
        <pt x="1012" y="391" on="1"/>
        <pt x="861" y="391" on="1"/>
        <pt x="896" y="343" on="0"/>
        <pt x="896" y="276" on="1"/>
        <pt x="896" y="217" on="0"/>
        <pt x="842" y="131" on="0"/>
        <pt x="749" y="87" on="0"/>
        <pt x="692" y="87" on="1"/>
        <pt x="642" y="87" on="0"/>
        <pt x="554" y="123" on="0"/>
        <pt x="524" y="157" on="1"/>
        <pt x="491" y="116" on="0"/>
        <pt x="388" y="70" on="0"/>
        <pt x="320" y="70" on="1"/>
        <pt x="241" y="70" on="0"/>
        <pt x="123" y="133" on="0"/>
        <pt x="59" y="244" on="0"/>
        <pt x="59" y="314" on="1"/>
        <pt x="59" y="383" on="0"/>
        <pt x="123" y="492" on="0"/>
        <pt x="241" y="553" on="0"/>
        <pt x="319" y="553" on="1"/>
        <pt x="397" y="553" on="0"/>
        <pt x="509" y="495" on="0"/>
        <pt x="540" y="445" on="1"/>
        <pt x="570" y="472" on="0"/>
        <pt x="654" y="499" on="0"/>
        <pt x="703" y="499" on="1"/>
        <pt x="1012" y="499" on="1"/>
        <pt x="1012" y="632" on="1"/>
        <pt x="-21" y="632" on="1"/>
        <pt x="-21" y="740" on="1"/>
        <pt x="1252" y="740" on="1"/>
      </contour>
      <contour>
        <pt x="265" y="464" on="0"/>
        <pt x="220" y="429" on="1"/>
        <pt x="458" y="238" on="1"/>
        <pt x="476" y="273" on="0"/>
        <pt x="476" y="311" on="1"/>
        <pt x="476" y="351" on="0"/>
        <pt x="440" y="421" on="0"/>
        <pt x="371" y="464" on="0"/>
        <pt x="323" y="464" on="1"/>
      </contour>
      <contour>
        <pt x="737" y="196" on="0"/>
        <pt x="793" y="251" on="0"/>
        <pt x="793" y="294" on="1"/>
        <pt x="793" y="336" on="0"/>
        <pt x="737" y="391" on="0"/>
        <pt x="694" y="391" on="1"/>
        <pt x="649" y="391" on="0"/>
        <pt x="592" y="336" on="0"/>
        <pt x="592" y="293" on="1"/>
        <pt x="592" y="250" on="0"/>
        <pt x="649" y="196" on="0"/>
        <pt x="694" y="196" on="1"/>
      </contour>
      <contour>
        <pt x="167" y="265" on="0"/>
        <pt x="210" y="196" on="0"/>
        <pt x="281" y="160" on="0"/>
        <pt x="323" y="160" on="1"/>
        <pt x="382" y="160" on="0"/>
        <pt x="424" y="195" on="1"/>
        <pt x="185" y="386" on="1"/>
        <pt x="167" y="352" on="0"/>
        <pt x="167" y="311" on="1"/>
      </contour>
    </TTGlyph>
    <TTGlyph name="dvB_R" xMin="-21" yMin="-59" xMax="580" yMax="740">
      <contour>
        <pt x="580" y="740" on="1"/>
        <pt x="580" y="632" on="1"/>
        <pt x="-21" y="632" on="1"/>
        <pt x="-21" y="740" on="1"/>
      </contour>
      <contour>
        <pt x="403" y="553" on="0"/>
        <pt x="520" y="486" on="0"/>
        <pt x="577" y="377" on="0"/>
        <pt x="577" y="315" on="1"/>
        <pt x="577" y="263" on="0"/>
        <pt x="541" y="171" on="0"/>
        <pt x="507" y="138" on="1"/>
        <pt x="331" y="-59" on="1"/>
        <pt x="200" y="-59" on="1"/>
        <pt x="327" y="70" on="1"/>
        <pt x="320" y="70" on="1"/>
        <pt x="241" y="70" on="0"/>
        <pt x="123" y="133" on="0"/>
        <pt x="59" y="244" on="0"/>
        <pt x="59" y="314" on="1"/>
        <pt x="59" y="383" on="0"/>
        <pt x="123" y="492" on="0"/>
        <pt x="241" y="553" on="0"/>
        <pt x="319" y="553" on="1"/>
      </contour>
      <contour>
        <pt x="265" y="464" on="0"/>
        <pt x="220" y="429" on="1"/>
        <pt x="458" y="238" on="1"/>
        <pt x="476" y="273" on="0"/>
        <pt x="476" y="311" on="1"/>
        <pt x="476" y="351" on="0"/>
        <pt x="440" y="421" on="0"/>
        <pt x="371" y="464" on="0"/>
        <pt x="323" y="464" on="1"/>
      </contour>
      <contour>
        <pt x="167" y="265" on="0"/>
        <pt x="210" y="196" on="0"/>
        <pt x="281" y="160" on="0"/>
        <pt x="323" y="160" on="1"/>
        <pt x="382" y="160" on="0"/>
        <pt x="424" y="195" on="1"/>
        <pt x="185" y="386" on="1"/>
        <pt x="167" y="352" on="0"/>
        <pt x="167" y="311" on="1"/>
      </contour>
    </TTGlyph>
    <TTGlyph name="dvB_RA" xMin="-21" yMin="-59" xMax="708" yMax="740">
      <contour>
        <pt x="708" y="740" on="1"/>
        <pt x="708" y="632" on="1"/>
        <pt x="599" y="632" on="1"/>
        <pt x="599" y="0" on="1"/>
        <pt x="474" y="0" on="1"/>
        <pt x="474" y="152" on="1"/>
        <pt x="459" y="134" on="0"/>
        <pt x="458" y="133" on="1"/>
        <pt x="283" y="-59" on="1"/>
        <pt x="146" y="-59" on="1"/>
        <pt x="282" y="79" on="1"/>
        <pt x="218" y="84" on="0"/>
        <pt x="117" y="144" on="0"/>
        <pt x="59" y="247" on="0"/>
        <pt x="59" y="314" on="1"/>
        <pt x="59" y="384" on="0"/>
        <pt x="122" y="492" on="0"/>
        <pt x="232" y="552" on="0"/>
        <pt x="301" y="552" on="1"/>
        <pt x="358" y="552" on="0"/>
        <pt x="445" y="510" on="0"/>
        <pt x="474" y="474" on="1"/>
        <pt x="474" y="632" on="1"/>
        <pt x="-21" y="632" on="1"/>
        <pt x="-21" y="740" on="1"/>
      </contour>
      <contour>
        <pt x="269" y="467" on="0"/>
        <pt x="227" y="433" on="1"/>
        <pt x="464" y="242" on="1"/>
        <pt x="481" y="278" on="0"/>
        <pt x="481" y="315" on="1"/>
        <pt x="481" y="355" on="0"/>
        <pt x="445" y="425" on="0"/>
        <pt x="376" y="467" on="0"/>
        <pt x="328" y="467" on="1"/>
      </contour>
      <contour>
        <pt x="172" y="268" on="0"/>
        <pt x="214" y="200" on="0"/>
        <pt x="286" y="164" on="0"/>
        <pt x="328" y="164" on="1"/>
        <pt x="388" y="164" on="0"/>
        <pt x="430" y="199" on="1"/>
        <pt x="191" y="390" on="1"/>
        <pt x="172" y="355" on="0"/>
        <pt x="172" y="314" on="1"/>
      </contour>
    </TTGlyph>
</ttFont>
